%TF.GenerationSoftware,KiCad,Pcbnew,8.0.0*%
%TF.CreationDate,2024-03-04T22:35:08+02:00*%
%TF.ProjectId,Intercom_SMS_Sender,496e7465-7263-46f6-9d5f-534d535f5365,rev?*%
%TF.SameCoordinates,PX77ecaf0PY7735940*%
%TF.FileFunction,Copper,L4,Bot*%
%TF.FilePolarity,Positive*%
%FSLAX46Y46*%
G04 Gerber Fmt 4.6, Leading zero omitted, Abs format (unit mm)*
G04 Created by KiCad (PCBNEW 8.0.0) date 2024-03-04 22:35:08*
%MOMM*%
%LPD*%
G01*
G04 APERTURE LIST*
G04 Aperture macros list*
%AMRoundRect*
0 Rectangle with rounded corners*
0 $1 Rounding radius*
0 $2 $3 $4 $5 $6 $7 $8 $9 X,Y pos of 4 corners*
0 Add a 4 corners polygon primitive as box body*
4,1,4,$2,$3,$4,$5,$6,$7,$8,$9,$2,$3,0*
0 Add four circle primitives for the rounded corners*
1,1,$1+$1,$2,$3*
1,1,$1+$1,$4,$5*
1,1,$1+$1,$6,$7*
1,1,$1+$1,$8,$9*
0 Add four rect primitives between the rounded corners*
20,1,$1+$1,$2,$3,$4,$5,0*
20,1,$1+$1,$4,$5,$6,$7,0*
20,1,$1+$1,$6,$7,$8,$9,0*
20,1,$1+$1,$8,$9,$2,$3,0*%
G04 Aperture macros list end*
%TA.AperFunction,ComponentPad*%
%ADD10C,1.200000*%
%TD*%
%TA.AperFunction,ComponentPad*%
%ADD11R,1.700000X1.700000*%
%TD*%
%TA.AperFunction,ComponentPad*%
%ADD12O,1.700000X1.700000*%
%TD*%
%TA.AperFunction,ComponentPad*%
%ADD13RoundRect,0.200100X-0.949900X0.949900X-0.949900X-0.949900X0.949900X-0.949900X0.949900X0.949900X0*%
%TD*%
%TA.AperFunction,ComponentPad*%
%ADD14C,2.500000*%
%TD*%
%TA.AperFunction,ComponentPad*%
%ADD15C,1.500000*%
%TD*%
%TA.AperFunction,ComponentPad*%
%ADD16C,2.000000*%
%TD*%
%TA.AperFunction,ComponentPad*%
%ADD17R,2.600000X2.600000*%
%TD*%
%TA.AperFunction,ComponentPad*%
%ADD18C,2.600000*%
%TD*%
%TA.AperFunction,ViaPad*%
%ADD19C,1.000000*%
%TD*%
%TA.AperFunction,ViaPad*%
%ADD20C,2.000000*%
%TD*%
%TA.AperFunction,Conductor*%
%ADD21C,0.500000*%
%TD*%
G04 APERTURE END LIST*
D10*
%TO.P,J3,9*%
%TO.N,N/C*%
X72900000Y15000000D03*
%TO.P,J3,10*%
X64600000Y24000000D03*
%TD*%
D11*
%TO.P,J5,1,Pin_1*%
%TO.N,/MISO*%
X7390000Y35775000D03*
D12*
%TO.P,J5,2,Pin_2*%
%TO.N,+5V*%
X4850000Y35775000D03*
%TO.P,J5,3,Pin_3*%
%TO.N,/SCK*%
X7390000Y33235000D03*
%TO.P,J5,4,Pin_4*%
%TO.N,/MOSI*%
X4850000Y33235000D03*
%TO.P,J5,5,Pin_5*%
%TO.N,/RESET*%
X7390000Y30695000D03*
%TO.P,J5,6,Pin_6*%
%TO.N,GND*%
X4850000Y30695000D03*
%TD*%
D11*
%TO.P,J2,1,Pin_1*%
%TO.N,Net-(J2-Pin_1)*%
X36250000Y8120000D03*
D12*
%TO.P,J2,2,Pin_2*%
%TO.N,Net-(J2-Pin_2)*%
X38790000Y8120000D03*
%TD*%
D13*
%TO.P,J4,1,In*%
%TO.N,/RF_GSM_Circuit/RF_ANT*%
X94800000Y48000000D03*
D14*
%TO.P,J4,2,Ext*%
%TO.N,GND*%
X97340000Y50540000D03*
X92260000Y50540000D03*
X97340000Y45460000D03*
X92260000Y45460000D03*
%TD*%
D15*
%TO.P,Y1,1,1*%
%TO.N,Net-(U2-XTAL2{slash}PB7)*%
X12400000Y57000000D03*
%TO.P,Y1,2,2*%
%TO.N,Net-(U2-XTAL1{slash}PB6)*%
X17300000Y57000000D03*
%TD*%
D16*
%TO.P,SW1,1,1*%
%TO.N,/RESET*%
X8850000Y19500000D03*
X8850000Y13000000D03*
%TO.P,SW1,2,2*%
%TO.N,GND*%
X4350000Y19500000D03*
X4350000Y13000000D03*
%TD*%
D17*
%TO.P,J1,1*%
%TO.N,+5V*%
X14300000Y79000000D03*
D18*
%TO.P,J1,2*%
%TO.N,GND*%
X8300000Y79000000D03*
%TO.P,J1,3*%
X11300000Y74300000D03*
%TD*%
D19*
%TO.N,GND*%
X85150000Y49600000D03*
X38000000Y75000000D03*
X43000000Y85000000D03*
X92750000Y15000000D03*
X38000000Y80000000D03*
X87500000Y46350000D03*
X85150000Y46400000D03*
X92750000Y6000000D03*
X33000000Y11500000D03*
X48000000Y85000000D03*
X52250000Y29750000D03*
X20350000Y36750000D03*
X92750000Y25000000D03*
X87450000Y49600000D03*
X82650000Y49600000D03*
X45500000Y85000000D03*
X80000000Y49600000D03*
X80000000Y46400000D03*
X82650000Y46400000D03*
X38000000Y77500000D03*
X89600000Y46350000D03*
X66250000Y20000000D03*
X89650000Y49600000D03*
D20*
%TO.N,+5V*%
X36500000Y67400000D03*
X63200000Y75800000D03*
D19*
X38750000Y37050000D03*
X21700000Y19500000D03*
X24300000Y59300000D03*
X43050000Y29000000D03*
%TO.N,/RESET*%
X62400000Y70400000D03*
X22000000Y45400000D03*
%TO.N,+1V8*%
X50750000Y52700000D03*
X67500000Y54400000D03*
X44150000Y37600000D03*
%TO.N,Net-(Q1-S)*%
X54100000Y41100000D03*
X56500000Y50500000D03*
%TD*%
D21*
%TO.N,/RESET*%
X22000000Y45450000D02*
X22000000Y45400000D01*
X22000000Y45400000D02*
X22000000Y45305000D01*
X62400000Y70400000D02*
X46950000Y70400000D01*
X22000000Y45305000D02*
X7390000Y30695000D01*
X46950000Y70400000D02*
X22000000Y45450000D01*
%TO.N,+1V8*%
X50750000Y52750000D02*
X52400000Y54400000D01*
X52400000Y54400000D02*
X67500000Y54400000D01*
X50750000Y52700000D02*
X50750000Y52750000D01*
X48000000Y49950000D02*
X48000000Y39000000D01*
X50750000Y52700000D02*
X48000000Y49950000D01*
X48000000Y39000000D02*
X46600000Y37600000D01*
X46600000Y37600000D02*
X44150000Y37600000D01*
%TO.N,Net-(Q1-S)*%
X54100000Y48100000D02*
X56500000Y50500000D01*
X54100000Y41100000D02*
X54100000Y48100000D01*
%TD*%
%TA.AperFunction,Conductor*%
%TO.N,GND*%
G36*
X5293039Y31175315D02*
G01*
X5338794Y31122511D01*
X5350000Y31071000D01*
X5350000Y30760826D01*
X5315925Y30887993D01*
X5250099Y31002007D01*
X5157007Y31095099D01*
X5042993Y31160925D01*
X4915826Y31195000D01*
X5226000Y31195000D01*
X5293039Y31175315D01*
G37*
%TD.AperFunction*%
%TA.AperFunction,Conductor*%
G36*
X98692539Y94979815D02*
G01*
X98738294Y94927011D01*
X98749500Y94875500D01*
X98749500Y51293755D01*
X98729815Y51226716D01*
X98713181Y51206074D01*
X98180182Y50673076D01*
X98157335Y50787936D01*
X98093260Y50942626D01*
X98000238Y51081844D01*
X97881844Y51200238D01*
X97742626Y51293260D01*
X97587936Y51357335D01*
X97473075Y51380183D01*
X98173739Y52080846D01*
X98173738Y52080848D01*
X97981142Y52173596D01*
X97981144Y52173596D01*
X97730505Y52250908D01*
X97730499Y52250910D01*
X97471151Y52290000D01*
X97208848Y52290000D01*
X96949500Y52250910D01*
X96949494Y52250908D01*
X96698856Y52173596D01*
X96506260Y52080847D01*
X97206924Y51380183D01*
X97092064Y51357335D01*
X96937374Y51293260D01*
X96798156Y51200238D01*
X96679762Y51081844D01*
X96586740Y50942626D01*
X96522665Y50787936D01*
X96499817Y50673076D01*
X95800091Y51372802D01*
X95758883Y51301427D01*
X95663058Y51057271D01*
X95604693Y50801551D01*
X95604692Y50801546D01*
X95585093Y50540005D01*
X95585093Y50539996D01*
X95604692Y50278455D01*
X95604693Y50278450D01*
X95663058Y50022730D01*
X95758881Y49778577D01*
X95869778Y49586501D01*
X95886251Y49518600D01*
X95863399Y49452573D01*
X95808478Y49409383D01*
X95762391Y49400500D01*
X93837609Y49400500D01*
X93770570Y49420185D01*
X93724815Y49472989D01*
X93714871Y49542147D01*
X93730222Y49586501D01*
X93841118Y49778577D01*
X93936941Y50022730D01*
X93995306Y50278450D01*
X93995307Y50278455D01*
X94014907Y50539996D01*
X94014907Y50540005D01*
X93995307Y50801546D01*
X93995306Y50801551D01*
X93936941Y51057271D01*
X93841116Y51301427D01*
X93799907Y51372803D01*
X93100181Y50673077D01*
X93077335Y50787936D01*
X93013260Y50942626D01*
X92920238Y51081844D01*
X92801844Y51200238D01*
X92662626Y51293260D01*
X92507936Y51357335D01*
X92393075Y51380183D01*
X93093739Y52080846D01*
X93093738Y52080848D01*
X92901142Y52173596D01*
X92901144Y52173596D01*
X92650505Y52250908D01*
X92650499Y52250910D01*
X92391151Y52290000D01*
X92128848Y52290000D01*
X91869500Y52250910D01*
X91869494Y52250908D01*
X91618856Y52173596D01*
X91426260Y52080847D01*
X92126924Y51380183D01*
X92012064Y51357335D01*
X91857374Y51293260D01*
X91718156Y51200238D01*
X91599762Y51081844D01*
X91506740Y50942626D01*
X91442665Y50787936D01*
X91419817Y50673076D01*
X90720091Y51372802D01*
X90678883Y51301427D01*
X90583058Y51057271D01*
X90524693Y50801551D01*
X90524692Y50801546D01*
X90505093Y50540005D01*
X90505093Y50539996D01*
X90524692Y50278455D01*
X90524693Y50278450D01*
X90583058Y50022730D01*
X90678880Y49778581D01*
X90678882Y49778577D01*
X90720091Y49707200D01*
X91419817Y50406926D01*
X91442665Y50292064D01*
X91506740Y50137374D01*
X91599762Y49998156D01*
X91718156Y49879762D01*
X91857374Y49786740D01*
X92012064Y49722665D01*
X92126924Y49699818D01*
X91426261Y48999156D01*
X91618855Y48906406D01*
X91618858Y48906405D01*
X91869494Y48829093D01*
X91869500Y48829091D01*
X92128848Y48790001D01*
X92128857Y48790000D01*
X92391143Y48790000D01*
X92391151Y48790001D01*
X92650499Y48829091D01*
X92650505Y48829093D01*
X92901143Y48906405D01*
X93137445Y49020202D01*
X93137447Y49020203D01*
X93205648Y49066701D01*
X93272127Y49088201D01*
X93339677Y49070347D01*
X93386852Y49018807D01*
X93399500Y48964247D01*
X93399500Y47035754D01*
X93379815Y46968715D01*
X93327011Y46922960D01*
X93257853Y46913016D01*
X93205649Y46933300D01*
X93137454Y46979794D01*
X93137445Y46979799D01*
X92901142Y47093596D01*
X92901144Y47093596D01*
X92650505Y47170908D01*
X92650499Y47170910D01*
X92391151Y47210000D01*
X92128848Y47210000D01*
X91869500Y47170910D01*
X91869494Y47170908D01*
X91618856Y47093596D01*
X91426260Y47000847D01*
X92126924Y46300183D01*
X92012064Y46277335D01*
X91857374Y46213260D01*
X91718156Y46120238D01*
X91599762Y46001844D01*
X91506740Y45862626D01*
X91442665Y45707936D01*
X91419817Y45593076D01*
X90720091Y46292802D01*
X90678883Y46221427D01*
X90583058Y45977271D01*
X90524693Y45721551D01*
X90524692Y45721546D01*
X90505093Y45460005D01*
X90505093Y45459996D01*
X90524692Y45198455D01*
X90524693Y45198450D01*
X90583058Y44942730D01*
X90678880Y44698581D01*
X90678882Y44698577D01*
X90720091Y44627200D01*
X91419817Y45326926D01*
X91442665Y45212064D01*
X91506740Y45057374D01*
X91599762Y44918156D01*
X91718156Y44799762D01*
X91857374Y44706740D01*
X92012064Y44642665D01*
X92126924Y44619818D01*
X91426261Y43919156D01*
X91618855Y43826406D01*
X91618858Y43826405D01*
X91869494Y43749093D01*
X91869500Y43749091D01*
X92128848Y43710001D01*
X92128857Y43710000D01*
X92391143Y43710000D01*
X92391151Y43710001D01*
X92650499Y43749091D01*
X92650505Y43749093D01*
X92901143Y43826405D01*
X93093739Y43919154D01*
X92393075Y44619818D01*
X92507936Y44642665D01*
X92662626Y44706740D01*
X92801844Y44799762D01*
X92920238Y44918156D01*
X93013260Y45057374D01*
X93077335Y45212064D01*
X93100182Y45326925D01*
X93799907Y44627199D01*
X93799908Y44627199D01*
X93841116Y44698574D01*
X93936941Y44942730D01*
X93995306Y45198450D01*
X93995307Y45198455D01*
X94014907Y45459996D01*
X94014907Y45460005D01*
X93995307Y45721546D01*
X93995306Y45721551D01*
X93936941Y45977271D01*
X93841118Y46221424D01*
X93730222Y46413499D01*
X93713749Y46481400D01*
X93736601Y46547427D01*
X93791522Y46590617D01*
X93837609Y46599500D01*
X95762391Y46599500D01*
X95829430Y46579815D01*
X95875185Y46527011D01*
X95885129Y46457853D01*
X95869778Y46413499D01*
X95758881Y46221424D01*
X95663058Y45977271D01*
X95604693Y45721551D01*
X95604692Y45721546D01*
X95585093Y45460005D01*
X95585093Y45459996D01*
X95604692Y45198455D01*
X95604693Y45198450D01*
X95663058Y44942730D01*
X95758880Y44698581D01*
X95758882Y44698577D01*
X95800091Y44627200D01*
X96499817Y45326926D01*
X96522665Y45212064D01*
X96586740Y45057374D01*
X96679762Y44918156D01*
X96798156Y44799762D01*
X96937374Y44706740D01*
X97092064Y44642665D01*
X97206924Y44619818D01*
X96506261Y43919156D01*
X96698855Y43826406D01*
X96698858Y43826405D01*
X96949494Y43749093D01*
X96949500Y43749091D01*
X97208848Y43710001D01*
X97208857Y43710000D01*
X97471143Y43710000D01*
X97471151Y43710001D01*
X97730499Y43749091D01*
X97730505Y43749093D01*
X97981143Y43826405D01*
X98173739Y43919154D01*
X97473075Y44619818D01*
X97587936Y44642665D01*
X97742626Y44706740D01*
X97881844Y44799762D01*
X98000238Y44918156D01*
X98093260Y45057374D01*
X98157335Y45212064D01*
X98180182Y45326925D01*
X98713181Y44793926D01*
X98746666Y44732603D01*
X98749500Y44706245D01*
X98749500Y624500D01*
X98729815Y557461D01*
X98677011Y511706D01*
X98625500Y500500D01*
X624500Y500500D01*
X557461Y520185D01*
X511706Y572989D01*
X500500Y624500D01*
X500500Y3873461D01*
X2069500Y3873461D01*
X2097011Y3664503D01*
X2102532Y3622570D01*
X2102533Y3622568D01*
X2168029Y3378131D01*
X2168032Y3378121D01*
X2264869Y3144337D01*
X2264872Y3144330D01*
X2391404Y2925170D01*
X2391406Y2925167D01*
X2391407Y2925166D01*
X2545457Y2724404D01*
X2545463Y2724397D01*
X2724396Y2545464D01*
X2724402Y2545459D01*
X2925170Y2391404D01*
X3144330Y2264872D01*
X3378130Y2168029D01*
X3622570Y2102532D01*
X3873468Y2069500D01*
X3873475Y2069500D01*
X4126525Y2069500D01*
X4126532Y2069500D01*
X4377430Y2102532D01*
X4621870Y2168029D01*
X4855670Y2264872D01*
X5074830Y2391404D01*
X5275598Y2545459D01*
X5454541Y2724402D01*
X5608596Y2925170D01*
X5735128Y3144330D01*
X5831971Y3378130D01*
X5897468Y3622570D01*
X5930499Y3873461D01*
X93319500Y3873461D01*
X93347011Y3664503D01*
X93352532Y3622570D01*
X93352533Y3622568D01*
X93418029Y3378131D01*
X93418032Y3378121D01*
X93514869Y3144337D01*
X93514872Y3144330D01*
X93641404Y2925170D01*
X93641406Y2925167D01*
X93641407Y2925166D01*
X93795457Y2724404D01*
X93795463Y2724397D01*
X93974396Y2545464D01*
X93974402Y2545459D01*
X94175170Y2391404D01*
X94394330Y2264872D01*
X94628130Y2168029D01*
X94872570Y2102532D01*
X95123468Y2069500D01*
X95123475Y2069500D01*
X95376525Y2069500D01*
X95376532Y2069500D01*
X95627430Y2102532D01*
X95871870Y2168029D01*
X96105670Y2264872D01*
X96324830Y2391404D01*
X96525598Y2545459D01*
X96704541Y2724402D01*
X96858596Y2925170D01*
X96985128Y3144330D01*
X97081971Y3378130D01*
X97147468Y3622570D01*
X97180500Y3873468D01*
X97180500Y4126532D01*
X97147468Y4377430D01*
X97081971Y4621870D01*
X96985128Y4855670D01*
X96858596Y5074830D01*
X96704541Y5275598D01*
X96704536Y5275604D01*
X96525603Y5454537D01*
X96525596Y5454543D01*
X96324834Y5608593D01*
X96324833Y5608594D01*
X96324830Y5608596D01*
X96105670Y5735128D01*
X96105663Y5735131D01*
X95871879Y5831968D01*
X95871872Y5831970D01*
X95871870Y5831971D01*
X95627430Y5897468D01*
X95585497Y5902989D01*
X95376539Y5930500D01*
X95376532Y5930500D01*
X95123468Y5930500D01*
X95123460Y5930500D01*
X94884649Y5899059D01*
X94872570Y5897468D01*
X94628130Y5831971D01*
X94628120Y5831968D01*
X94394336Y5735131D01*
X94394327Y5735127D01*
X94175165Y5608593D01*
X93974403Y5454543D01*
X93974396Y5454537D01*
X93795463Y5275604D01*
X93795457Y5275597D01*
X93641407Y5074835D01*
X93514873Y4855673D01*
X93514869Y4855664D01*
X93418032Y4621880D01*
X93418029Y4621870D01*
X93352533Y4377433D01*
X93352531Y4377422D01*
X93319500Y4126540D01*
X93319500Y3873461D01*
X5930499Y3873461D01*
X5930500Y3873468D01*
X5930500Y4126532D01*
X5897468Y4377430D01*
X5831971Y4621870D01*
X5735128Y4855670D01*
X5608596Y5074830D01*
X5454541Y5275598D01*
X5454536Y5275604D01*
X5275603Y5454537D01*
X5275596Y5454543D01*
X5074834Y5608593D01*
X5074833Y5608594D01*
X5074830Y5608596D01*
X4855670Y5735128D01*
X4855663Y5735131D01*
X4621879Y5831968D01*
X4621872Y5831970D01*
X4621870Y5831971D01*
X4377430Y5897468D01*
X4335497Y5902989D01*
X4126539Y5930500D01*
X4126532Y5930500D01*
X3873468Y5930500D01*
X3873460Y5930500D01*
X3634649Y5899059D01*
X3622570Y5897468D01*
X3378130Y5831971D01*
X3378120Y5831968D01*
X3144336Y5735131D01*
X3144327Y5735127D01*
X2925165Y5608593D01*
X2724403Y5454543D01*
X2724396Y5454537D01*
X2545463Y5275604D01*
X2545457Y5275597D01*
X2391407Y5074835D01*
X2264873Y4855673D01*
X2264869Y4855664D01*
X2168032Y4621880D01*
X2168029Y4621870D01*
X2102533Y4377433D01*
X2102531Y4377422D01*
X2069500Y4126540D01*
X2069500Y3873461D01*
X500500Y3873461D01*
X500500Y7245322D01*
X35149500Y7245322D01*
X35164032Y7172265D01*
X35164033Y7172261D01*
X35164034Y7172260D01*
X35219399Y7089399D01*
X35302260Y7034034D01*
X35302264Y7034033D01*
X35375321Y7019501D01*
X35375324Y7019500D01*
X35375326Y7019500D01*
X37124676Y7019500D01*
X37124677Y7019501D01*
X37197740Y7034034D01*
X37280601Y7089399D01*
X37335966Y7172260D01*
X37350500Y7245326D01*
X37350500Y8120000D01*
X37684785Y8120000D01*
X37703602Y7916918D01*
X37759417Y7720753D01*
X37759422Y7720740D01*
X37850327Y7538179D01*
X37973237Y7375419D01*
X38123958Y7238020D01*
X38123960Y7238018D01*
X38223141Y7176608D01*
X38297363Y7130652D01*
X38487544Y7056976D01*
X38688024Y7019500D01*
X38688026Y7019500D01*
X38891974Y7019500D01*
X38891976Y7019500D01*
X39092456Y7056976D01*
X39282637Y7130652D01*
X39456041Y7238019D01*
X39606764Y7375421D01*
X39729673Y7538179D01*
X39820582Y7720750D01*
X39876397Y7916917D01*
X39895215Y8120000D01*
X39876397Y8323083D01*
X39820582Y8519250D01*
X39729673Y8701821D01*
X39606764Y8864579D01*
X39606762Y8864582D01*
X39456041Y9001981D01*
X39456039Y9001983D01*
X39282642Y9109345D01*
X39282635Y9109349D01*
X39176150Y9150601D01*
X39092456Y9183024D01*
X38891976Y9220500D01*
X38688024Y9220500D01*
X38487544Y9183024D01*
X38487541Y9183024D01*
X38487541Y9183023D01*
X38297364Y9109349D01*
X38297357Y9109345D01*
X38123960Y9001983D01*
X38123958Y9001981D01*
X37973237Y8864582D01*
X37850327Y8701822D01*
X37759422Y8519261D01*
X37759417Y8519248D01*
X37703602Y8323083D01*
X37684785Y8120001D01*
X37684785Y8120000D01*
X37350500Y8120000D01*
X37350500Y8994674D01*
X37350500Y8994677D01*
X37350499Y8994679D01*
X37335967Y9067736D01*
X37335966Y9067740D01*
X37280601Y9150601D01*
X37197740Y9205966D01*
X37197739Y9205967D01*
X37197735Y9205968D01*
X37124677Y9220500D01*
X37124674Y9220500D01*
X35375326Y9220500D01*
X35375323Y9220500D01*
X35302264Y9205968D01*
X35302260Y9205967D01*
X35219399Y9150601D01*
X35164033Y9067740D01*
X35164032Y9067736D01*
X35149500Y8994679D01*
X35149500Y7245322D01*
X500500Y7245322D01*
X500500Y11645037D01*
X3702143Y11645037D01*
X3745385Y11621636D01*
X3745396Y11621631D01*
X3980506Y11540917D01*
X4225707Y11500000D01*
X4474293Y11500000D01*
X4719493Y11540917D01*
X4954601Y11621630D01*
X4954603Y11621631D01*
X4997855Y11645037D01*
X4997855Y11645038D01*
X4350001Y12292893D01*
X4350000Y12292893D01*
X3702143Y11645037D01*
X500500Y11645037D01*
X500500Y12999995D01*
X2844859Y12999995D01*
X2865385Y12752271D01*
X2865387Y12752262D01*
X2926412Y12511283D01*
X2995856Y12352964D01*
X3570484Y12927591D01*
X3800000Y12927591D01*
X3837482Y12787708D01*
X3909890Y12662292D01*
X4012292Y12559890D01*
X4137708Y12487482D01*
X4277591Y12450000D01*
X4422409Y12450000D01*
X4562292Y12487482D01*
X4687708Y12559890D01*
X4790110Y12662292D01*
X4862518Y12787708D01*
X4900000Y12927591D01*
X4900000Y13000000D01*
X5057107Y13000000D01*
X5704142Y12352964D01*
X5704143Y12352965D01*
X5773587Y12511281D01*
X5834612Y12752262D01*
X5834614Y12752271D01*
X5855141Y12999995D01*
X5855141Y12999998D01*
X7594723Y12999998D01*
X7613793Y12782025D01*
X7613793Y12782021D01*
X7670422Y12570678D01*
X7670424Y12570674D01*
X7670425Y12570670D01*
X7675452Y12559890D01*
X7762897Y12372362D01*
X7762898Y12372361D01*
X7888402Y12193123D01*
X8043123Y12038402D01*
X8222361Y11912898D01*
X8420670Y11820425D01*
X8632023Y11763793D01*
X8814926Y11747792D01*
X8849998Y11744723D01*
X8850000Y11744723D01*
X8850002Y11744723D01*
X8878254Y11747195D01*
X9067977Y11763793D01*
X9279330Y11820425D01*
X9477639Y11912898D01*
X9656877Y12038402D01*
X9811598Y12193123D01*
X9937102Y12372361D01*
X10029575Y12570670D01*
X10086207Y12782023D01*
X10105277Y13000000D01*
X10105276Y13000006D01*
X10098942Y13072409D01*
X10086207Y13217977D01*
X10029575Y13429330D01*
X9937102Y13627638D01*
X9937100Y13627641D01*
X9937099Y13627643D01*
X9811599Y13806876D01*
X9811596Y13806879D01*
X9656877Y13961598D01*
X9477639Y14087102D01*
X9477640Y14087102D01*
X9477638Y14087103D01*
X9343826Y14149500D01*
X9279330Y14179575D01*
X9279326Y14179576D01*
X9279322Y14179578D01*
X9067977Y14236207D01*
X8850002Y14255277D01*
X8849998Y14255277D01*
X8704682Y14242564D01*
X8632023Y14236207D01*
X8632020Y14236207D01*
X8420677Y14179578D01*
X8420668Y14179574D01*
X8222361Y14087102D01*
X8222357Y14087100D01*
X8043121Y13961598D01*
X7888402Y13806879D01*
X7762900Y13627643D01*
X7762898Y13627639D01*
X7670426Y13429332D01*
X7670422Y13429323D01*
X7613793Y13217980D01*
X7613793Y13217976D01*
X7594723Y13000003D01*
X7594723Y12999998D01*
X5855141Y12999998D01*
X5855141Y13000006D01*
X5834614Y13247730D01*
X5834612Y13247739D01*
X5773587Y13488720D01*
X5704143Y13647037D01*
X5704142Y13647038D01*
X5057107Y13000001D01*
X5057107Y13000000D01*
X4900000Y13000000D01*
X4900000Y13072409D01*
X4862518Y13212292D01*
X4790110Y13337708D01*
X4687708Y13440110D01*
X4562292Y13512518D01*
X4422409Y13550000D01*
X4277591Y13550000D01*
X4137708Y13512518D01*
X4012292Y13440110D01*
X3909890Y13337708D01*
X3837482Y13212292D01*
X3800000Y13072409D01*
X3800000Y12927591D01*
X3570484Y12927591D01*
X3642893Y13000000D01*
X2995856Y13647037D01*
X2926412Y13488718D01*
X2865387Y13247739D01*
X2865385Y13247730D01*
X2844859Y13000006D01*
X2844859Y12999995D01*
X500500Y12999995D01*
X500500Y14354964D01*
X3702143Y14354964D01*
X4350000Y13707107D01*
X4350001Y13707107D01*
X4997856Y14354964D01*
X4997856Y14354965D01*
X4954619Y14378363D01*
X4954599Y14378371D01*
X4719493Y14459084D01*
X4474293Y14500000D01*
X4225707Y14500000D01*
X3980506Y14459084D01*
X3745392Y14378369D01*
X3702143Y14354964D01*
X500500Y14354964D01*
X500500Y15000000D01*
X72044815Y15000000D01*
X72063503Y14822195D01*
X72063504Y14822193D01*
X72118747Y14652171D01*
X72118750Y14652165D01*
X72208141Y14497335D01*
X72249812Y14451054D01*
X72327764Y14364479D01*
X72327767Y14364477D01*
X72327770Y14364474D01*
X72472407Y14259388D01*
X72635733Y14186671D01*
X72810609Y14149500D01*
X72810610Y14149500D01*
X72989389Y14149500D01*
X72989391Y14149500D01*
X73164267Y14186671D01*
X73327593Y14259388D01*
X73472230Y14364474D01*
X73591859Y14497335D01*
X73681250Y14652165D01*
X73736497Y14822197D01*
X73755185Y15000000D01*
X73736497Y15177803D01*
X73681250Y15347835D01*
X73591859Y15502665D01*
X73545003Y15554704D01*
X73472235Y15635522D01*
X73472232Y15635524D01*
X73472231Y15635525D01*
X73472230Y15635526D01*
X73327593Y15740612D01*
X73164267Y15813329D01*
X73164265Y15813330D01*
X73036594Y15840467D01*
X72989391Y15850500D01*
X72810609Y15850500D01*
X72779954Y15843985D01*
X72635733Y15813330D01*
X72635728Y15813328D01*
X72472408Y15740613D01*
X72327768Y15635525D01*
X72208140Y15502664D01*
X72118750Y15347836D01*
X72118747Y15347830D01*
X72063504Y15177808D01*
X72063503Y15177806D01*
X72044815Y15000000D01*
X500500Y15000000D01*
X500500Y18145037D01*
X3702143Y18145037D01*
X3745385Y18121636D01*
X3745396Y18121631D01*
X3980506Y18040917D01*
X4225707Y18000000D01*
X4474293Y18000000D01*
X4719493Y18040917D01*
X4954601Y18121630D01*
X4954603Y18121631D01*
X4997855Y18145037D01*
X4997855Y18145038D01*
X4350001Y18792893D01*
X4350000Y18792893D01*
X3702143Y18145037D01*
X500500Y18145037D01*
X500500Y19499995D01*
X2844859Y19499995D01*
X2865385Y19252271D01*
X2865387Y19252262D01*
X2926412Y19011283D01*
X2995856Y18852964D01*
X3570484Y19427591D01*
X3800000Y19427591D01*
X3837482Y19287708D01*
X3909890Y19162292D01*
X4012292Y19059890D01*
X4137708Y18987482D01*
X4277591Y18950000D01*
X4422409Y18950000D01*
X4562292Y18987482D01*
X4687708Y19059890D01*
X4790110Y19162292D01*
X4862518Y19287708D01*
X4900000Y19427591D01*
X4900000Y19500000D01*
X5057107Y19500000D01*
X5704142Y18852964D01*
X5704143Y18852965D01*
X5773587Y19011281D01*
X5834612Y19252262D01*
X5834614Y19252271D01*
X5855141Y19499995D01*
X5855141Y19499998D01*
X7594723Y19499998D01*
X7613793Y19282025D01*
X7613793Y19282021D01*
X7670422Y19070678D01*
X7670424Y19070674D01*
X7670425Y19070670D01*
X7675452Y19059890D01*
X7762897Y18872362D01*
X7762898Y18872361D01*
X7888402Y18693123D01*
X8043123Y18538402D01*
X8222361Y18412898D01*
X8420670Y18320425D01*
X8632023Y18263793D01*
X8814926Y18247792D01*
X8849998Y18244723D01*
X8850000Y18244723D01*
X8850002Y18244723D01*
X8878254Y18247195D01*
X9067977Y18263793D01*
X9279330Y18320425D01*
X9477639Y18412898D01*
X9656877Y18538402D01*
X9811598Y18693123D01*
X9937102Y18872361D01*
X10029575Y19070670D01*
X10086207Y19282023D01*
X10105277Y19499998D01*
X20944751Y19499998D01*
X20963685Y19331944D01*
X21019545Y19172306D01*
X21019547Y19172303D01*
X21109518Y19029116D01*
X21109523Y19029110D01*
X21229109Y18909524D01*
X21229115Y18909519D01*
X21372302Y18819548D01*
X21372305Y18819546D01*
X21372309Y18819545D01*
X21372310Y18819544D01*
X21444913Y18794140D01*
X21531943Y18763686D01*
X21699997Y18744751D01*
X21700000Y18744751D01*
X21700003Y18744751D01*
X21868056Y18763686D01*
X21868059Y18763687D01*
X22027690Y18819544D01*
X22027692Y18819546D01*
X22027694Y18819546D01*
X22027697Y18819548D01*
X22170884Y18909519D01*
X22170885Y18909520D01*
X22170890Y18909523D01*
X22290477Y19029110D01*
X22290481Y19029116D01*
X22380452Y19172303D01*
X22380454Y19172306D01*
X22380454Y19172308D01*
X22380456Y19172310D01*
X22436313Y19331941D01*
X22436313Y19331942D01*
X22436314Y19331944D01*
X22455249Y19499998D01*
X22455249Y19500003D01*
X22436314Y19668057D01*
X22380454Y19827695D01*
X22380452Y19827698D01*
X22290481Y19970885D01*
X22290476Y19970891D01*
X22170890Y20090477D01*
X22170884Y20090482D01*
X22027697Y20180453D01*
X22027694Y20180455D01*
X21868056Y20236315D01*
X21700003Y20255249D01*
X21699997Y20255249D01*
X21531943Y20236315D01*
X21372305Y20180455D01*
X21372302Y20180453D01*
X21229115Y20090482D01*
X21229109Y20090477D01*
X21109523Y19970891D01*
X21109518Y19970885D01*
X21019547Y19827698D01*
X21019545Y19827695D01*
X20963685Y19668057D01*
X20944751Y19500003D01*
X20944751Y19499998D01*
X10105277Y19499998D01*
X10105277Y19500000D01*
X10105276Y19500006D01*
X10090574Y19668057D01*
X10086207Y19717977D01*
X10029575Y19929330D01*
X9937102Y20127638D01*
X9937100Y20127641D01*
X9937099Y20127643D01*
X9811599Y20306876D01*
X9811596Y20306879D01*
X9656877Y20461598D01*
X9477639Y20587102D01*
X9477640Y20587102D01*
X9477638Y20587103D01*
X9378484Y20633339D01*
X9279330Y20679575D01*
X9279326Y20679576D01*
X9279322Y20679578D01*
X9067977Y20736207D01*
X8850002Y20755277D01*
X8849998Y20755277D01*
X8704682Y20742564D01*
X8632023Y20736207D01*
X8632020Y20736207D01*
X8420677Y20679578D01*
X8420668Y20679574D01*
X8222361Y20587102D01*
X8222357Y20587100D01*
X8043121Y20461598D01*
X7888402Y20306879D01*
X7762900Y20127643D01*
X7762898Y20127639D01*
X7670426Y19929332D01*
X7670422Y19929323D01*
X7613793Y19717980D01*
X7613793Y19717976D01*
X7594723Y19500003D01*
X7594723Y19499998D01*
X5855141Y19499998D01*
X5855141Y19500006D01*
X5834614Y19747730D01*
X5834612Y19747739D01*
X5773587Y19988720D01*
X5704143Y20147037D01*
X5704142Y20147038D01*
X5057107Y19500001D01*
X5057107Y19500000D01*
X4900000Y19500000D01*
X4900000Y19572409D01*
X4862518Y19712292D01*
X4790110Y19837708D01*
X4687708Y19940110D01*
X4562292Y20012518D01*
X4422409Y20050000D01*
X4277591Y20050000D01*
X4137708Y20012518D01*
X4012292Y19940110D01*
X3909890Y19837708D01*
X3837482Y19712292D01*
X3800000Y19572409D01*
X3800000Y19427591D01*
X3570484Y19427591D01*
X3642893Y19500000D01*
X2995856Y20147037D01*
X2926412Y19988718D01*
X2865387Y19747739D01*
X2865385Y19747730D01*
X2844859Y19500006D01*
X2844859Y19499995D01*
X500500Y19499995D01*
X500500Y20854964D01*
X3702143Y20854964D01*
X4350000Y20207107D01*
X4350001Y20207107D01*
X4997856Y20854964D01*
X4997856Y20854965D01*
X4954619Y20878363D01*
X4954599Y20878371D01*
X4719493Y20959084D01*
X4474293Y21000000D01*
X4225707Y21000000D01*
X3980506Y20959084D01*
X3745392Y20878369D01*
X3702143Y20854964D01*
X500500Y20854964D01*
X500500Y24000000D01*
X63744815Y24000000D01*
X63763503Y23822195D01*
X63763504Y23822193D01*
X63818747Y23652171D01*
X63818750Y23652165D01*
X63908141Y23497335D01*
X63949812Y23451054D01*
X64027764Y23364479D01*
X64027767Y23364477D01*
X64027770Y23364474D01*
X64172407Y23259388D01*
X64335733Y23186671D01*
X64510609Y23149500D01*
X64510610Y23149500D01*
X64689389Y23149500D01*
X64689391Y23149500D01*
X64864267Y23186671D01*
X65027593Y23259388D01*
X65172230Y23364474D01*
X65291859Y23497335D01*
X65381250Y23652165D01*
X65436497Y23822197D01*
X65455185Y24000000D01*
X65436497Y24177803D01*
X65381250Y24347835D01*
X65291859Y24502665D01*
X65245003Y24554704D01*
X65172235Y24635522D01*
X65172232Y24635524D01*
X65172231Y24635525D01*
X65172230Y24635526D01*
X65027593Y24740612D01*
X64864267Y24813329D01*
X64864265Y24813330D01*
X64736594Y24840467D01*
X64689391Y24850500D01*
X64510609Y24850500D01*
X64479954Y24843985D01*
X64335733Y24813330D01*
X64335728Y24813328D01*
X64172408Y24740613D01*
X64027768Y24635525D01*
X63908140Y24502664D01*
X63818750Y24347836D01*
X63818747Y24347830D01*
X63763504Y24177808D01*
X63763503Y24177806D01*
X63744815Y24000000D01*
X500500Y24000000D01*
X500500Y28999998D01*
X42294751Y28999998D01*
X42313685Y28831944D01*
X42369545Y28672306D01*
X42369547Y28672303D01*
X42459518Y28529116D01*
X42459523Y28529110D01*
X42579109Y28409524D01*
X42579115Y28409519D01*
X42722302Y28319548D01*
X42722305Y28319546D01*
X42722309Y28319545D01*
X42722310Y28319544D01*
X42794913Y28294140D01*
X42881943Y28263686D01*
X43049997Y28244751D01*
X43050000Y28244751D01*
X43050003Y28244751D01*
X43218056Y28263686D01*
X43218059Y28263687D01*
X43377690Y28319544D01*
X43377692Y28319546D01*
X43377694Y28319546D01*
X43377697Y28319548D01*
X43520884Y28409519D01*
X43520885Y28409520D01*
X43520890Y28409523D01*
X43640477Y28529110D01*
X43730452Y28672303D01*
X43730454Y28672306D01*
X43730454Y28672308D01*
X43730456Y28672310D01*
X43786313Y28831941D01*
X43786313Y28831942D01*
X43786314Y28831944D01*
X43805249Y28999998D01*
X43805249Y29000003D01*
X43786314Y29168057D01*
X43730454Y29327695D01*
X43730452Y29327698D01*
X43640481Y29470885D01*
X43640476Y29470891D01*
X43520890Y29590477D01*
X43520884Y29590482D01*
X43377697Y29680453D01*
X43377694Y29680455D01*
X43218056Y29736315D01*
X43050003Y29755249D01*
X43049997Y29755249D01*
X42881943Y29736315D01*
X42722305Y29680455D01*
X42722302Y29680453D01*
X42579115Y29590482D01*
X42579109Y29590477D01*
X42459523Y29470891D01*
X42459518Y29470885D01*
X42369547Y29327698D01*
X42369545Y29327695D01*
X42313685Y29168057D01*
X42294751Y29000003D01*
X42294751Y28999998D01*
X500500Y28999998D01*
X500500Y30195000D01*
X3593593Y30195000D01*
X3676398Y30017424D01*
X3811894Y29823918D01*
X3978917Y29656895D01*
X4172422Y29521400D01*
X4172424Y29521399D01*
X4349999Y29438595D01*
X4350000Y29438595D01*
X4350000Y30195000D01*
X3593593Y30195000D01*
X500500Y30195000D01*
X500500Y31195000D01*
X3593594Y31195000D01*
X4784174Y31195000D01*
X4657007Y31160925D01*
X4542993Y31095099D01*
X4449901Y31002007D01*
X4384075Y30887993D01*
X4350000Y30760826D01*
X4350000Y30629174D01*
X4384075Y30502007D01*
X4449901Y30387993D01*
X4542993Y30294901D01*
X4657007Y30229075D01*
X4784174Y30195000D01*
X4915826Y30195000D01*
X5042993Y30229075D01*
X5157007Y30294901D01*
X5250099Y30387993D01*
X5315925Y30502007D01*
X5350000Y30629174D01*
X5350000Y29438595D01*
X5527575Y29521399D01*
X5527577Y29521400D01*
X5721082Y29656895D01*
X5888105Y29823918D01*
X6023600Y30017422D01*
X6123429Y30231508D01*
X6123431Y30231511D01*
X6132406Y30265008D01*
X6168770Y30324669D01*
X6231616Y30355200D01*
X6300992Y30346906D01*
X6354871Y30302422D01*
X6363182Y30288189D01*
X6450327Y30113179D01*
X6573237Y29950419D01*
X6723958Y29813020D01*
X6723960Y29813018D01*
X6817261Y29755249D01*
X6897363Y29705652D01*
X7087544Y29631976D01*
X7288024Y29594500D01*
X7288026Y29594500D01*
X7491974Y29594500D01*
X7491976Y29594500D01*
X7692456Y29631976D01*
X7882637Y29705652D01*
X8056041Y29813019D01*
X8206764Y29950421D01*
X8329673Y30113179D01*
X8420582Y30295750D01*
X8476397Y30491917D01*
X8495215Y30695000D01*
X8476397Y30898083D01*
X8457464Y30964625D01*
X8458050Y31034487D01*
X8489047Y31086235D01*
X14452810Y37049998D01*
X37994751Y37049998D01*
X38013685Y36881944D01*
X38069545Y36722306D01*
X38069547Y36722303D01*
X38159518Y36579116D01*
X38159523Y36579110D01*
X38279109Y36459524D01*
X38279115Y36459519D01*
X38422302Y36369548D01*
X38422305Y36369546D01*
X38422309Y36369545D01*
X38422310Y36369544D01*
X38494913Y36344140D01*
X38581943Y36313686D01*
X38749997Y36294751D01*
X38750000Y36294751D01*
X38750003Y36294751D01*
X38918056Y36313686D01*
X38918059Y36313687D01*
X39077690Y36369544D01*
X39077692Y36369546D01*
X39077694Y36369546D01*
X39077697Y36369548D01*
X39220884Y36459519D01*
X39220885Y36459520D01*
X39220890Y36459523D01*
X39340477Y36579110D01*
X39384816Y36649674D01*
X39430452Y36722303D01*
X39430454Y36722306D01*
X39430454Y36722308D01*
X39430456Y36722310D01*
X39486313Y36881941D01*
X39486313Y36881942D01*
X39486314Y36881944D01*
X39505249Y37049998D01*
X39505249Y37050003D01*
X39486314Y37218057D01*
X39430454Y37377695D01*
X39430452Y37377698D01*
X39340481Y37520885D01*
X39340476Y37520891D01*
X39261369Y37599998D01*
X43394751Y37599998D01*
X43413685Y37431944D01*
X43469545Y37272306D01*
X43469547Y37272303D01*
X43559518Y37129116D01*
X43559523Y37129110D01*
X43679109Y37009524D01*
X43679115Y37009519D01*
X43822302Y36919548D01*
X43822305Y36919546D01*
X43822309Y36919545D01*
X43822310Y36919544D01*
X43894913Y36894140D01*
X43981943Y36863686D01*
X44149997Y36844751D01*
X44150000Y36844751D01*
X44150003Y36844751D01*
X44318056Y36863686D01*
X44318059Y36863687D01*
X44477690Y36919544D01*
X44477692Y36919546D01*
X44477694Y36919546D01*
X44477697Y36919548D01*
X44620884Y37009519D01*
X44620885Y37009520D01*
X44620890Y37009523D01*
X44674548Y37063181D01*
X44735871Y37096666D01*
X44762229Y37099500D01*
X46665890Y37099500D01*
X46665892Y37099500D01*
X46793186Y37133608D01*
X46907314Y37199500D01*
X48400500Y38692686D01*
X48466392Y38806814D01*
X48500500Y38934108D01*
X48500500Y39065892D01*
X48500500Y41099998D01*
X53344751Y41099998D01*
X53363685Y40931944D01*
X53419545Y40772306D01*
X53419547Y40772303D01*
X53509518Y40629116D01*
X53509523Y40629110D01*
X53629109Y40509524D01*
X53629115Y40509519D01*
X53772302Y40419548D01*
X53772305Y40419546D01*
X53772309Y40419545D01*
X53772310Y40419544D01*
X53844913Y40394140D01*
X53931943Y40363686D01*
X54099997Y40344751D01*
X54100000Y40344751D01*
X54100003Y40344751D01*
X54268056Y40363686D01*
X54268059Y40363687D01*
X54427690Y40419544D01*
X54427692Y40419546D01*
X54427694Y40419546D01*
X54427697Y40419548D01*
X54570884Y40509519D01*
X54570885Y40509520D01*
X54570890Y40509523D01*
X54690477Y40629110D01*
X54780452Y40772303D01*
X54780454Y40772306D01*
X54780454Y40772308D01*
X54780456Y40772310D01*
X54836313Y40931941D01*
X54836313Y40931942D01*
X54836314Y40931944D01*
X54855249Y41099998D01*
X54855249Y41100003D01*
X54836314Y41268057D01*
X54780454Y41427695D01*
X54780452Y41427698D01*
X54690481Y41570885D01*
X54690476Y41570891D01*
X54636819Y41624548D01*
X54603334Y41685871D01*
X54600500Y41712229D01*
X54600500Y47841325D01*
X54620185Y47908364D01*
X54636814Y47929001D01*
X56416245Y49708433D01*
X56477568Y49741917D01*
X56493122Y49743590D01*
X56493080Y49743971D01*
X56668055Y49763686D01*
X56668057Y49763687D01*
X56668059Y49763687D01*
X56827690Y49819544D01*
X56827692Y49819546D01*
X56827694Y49819546D01*
X56827697Y49819548D01*
X56970884Y49909519D01*
X56970885Y49909520D01*
X56970890Y49909523D01*
X57090477Y50029110D01*
X57162156Y50143186D01*
X57180452Y50172303D01*
X57180454Y50172306D01*
X57180454Y50172308D01*
X57180456Y50172310D01*
X57236313Y50331941D01*
X57236313Y50331942D01*
X57236314Y50331944D01*
X57255249Y50499998D01*
X57255249Y50500003D01*
X57236314Y50668057D01*
X57180454Y50827695D01*
X57180452Y50827698D01*
X57090481Y50970885D01*
X57090476Y50970891D01*
X56970890Y51090477D01*
X56970884Y51090482D01*
X56827697Y51180453D01*
X56827694Y51180455D01*
X56668056Y51236315D01*
X56500003Y51255249D01*
X56499997Y51255249D01*
X56331943Y51236315D01*
X56172305Y51180455D01*
X56172302Y51180453D01*
X56029115Y51090482D01*
X56029109Y51090477D01*
X55909523Y50970891D01*
X55909518Y50970885D01*
X55819547Y50827698D01*
X55819545Y50827695D01*
X55763685Y50668057D01*
X55743971Y50493080D01*
X55741642Y50493343D01*
X55725066Y50436889D01*
X55708432Y50416247D01*
X53792686Y48500500D01*
X53699502Y48407317D01*
X53699500Y48407314D01*
X53633608Y48293188D01*
X53599500Y48165892D01*
X53599500Y41712229D01*
X53579815Y41645190D01*
X53563181Y41624548D01*
X53509523Y41570891D01*
X53509518Y41570885D01*
X53419547Y41427698D01*
X53419545Y41427695D01*
X53363685Y41268057D01*
X53344751Y41100003D01*
X53344751Y41099998D01*
X48500500Y41099998D01*
X48500500Y49691326D01*
X48520185Y49758365D01*
X48536814Y49779002D01*
X50666244Y51908433D01*
X50727567Y51941917D01*
X50743122Y51943590D01*
X50743080Y51943971D01*
X50918056Y51963686D01*
X50918059Y51963687D01*
X51077690Y52019544D01*
X51077692Y52019546D01*
X51077694Y52019546D01*
X51077697Y52019548D01*
X51220884Y52109519D01*
X51220885Y52109520D01*
X51220890Y52109523D01*
X51340477Y52229110D01*
X51430452Y52372303D01*
X51430454Y52372306D01*
X51430454Y52372308D01*
X51430456Y52372310D01*
X51486313Y52531941D01*
X51486313Y52531942D01*
X51486314Y52531944D01*
X51505249Y52699998D01*
X51505249Y52700001D01*
X51502068Y52728229D01*
X51514122Y52797051D01*
X51537604Y52829792D01*
X52570995Y53863181D01*
X52632318Y53896666D01*
X52658676Y53899500D01*
X66887771Y53899500D01*
X66954810Y53879815D01*
X66975452Y53863181D01*
X67029109Y53809524D01*
X67029115Y53809519D01*
X67172302Y53719548D01*
X67172305Y53719546D01*
X67172309Y53719545D01*
X67172310Y53719544D01*
X67244913Y53694140D01*
X67331943Y53663686D01*
X67499997Y53644751D01*
X67500000Y53644751D01*
X67500003Y53644751D01*
X67668056Y53663686D01*
X67668059Y53663687D01*
X67827690Y53719544D01*
X67827692Y53719546D01*
X67827694Y53719546D01*
X67827697Y53719548D01*
X67970884Y53809519D01*
X67970885Y53809520D01*
X67970890Y53809523D01*
X68090477Y53929110D01*
X68180452Y54072303D01*
X68180454Y54072306D01*
X68180454Y54072308D01*
X68180456Y54072310D01*
X68236313Y54231941D01*
X68236313Y54231942D01*
X68236314Y54231944D01*
X68255249Y54399998D01*
X68255249Y54400003D01*
X68236314Y54568057D01*
X68180454Y54727695D01*
X68180452Y54727698D01*
X68090481Y54870885D01*
X68090476Y54870891D01*
X67970890Y54990477D01*
X67970884Y54990482D01*
X67827697Y55080453D01*
X67827694Y55080455D01*
X67668056Y55136315D01*
X67500003Y55155249D01*
X67499997Y55155249D01*
X67331943Y55136315D01*
X67172305Y55080455D01*
X67172302Y55080453D01*
X67029115Y54990482D01*
X67029109Y54990477D01*
X66975452Y54936819D01*
X66914129Y54903334D01*
X66887771Y54900500D01*
X52334107Y54900500D01*
X52223600Y54870890D01*
X52223599Y54870891D01*
X52206816Y54866393D01*
X52206811Y54866391D01*
X52092689Y54800502D01*
X52092683Y54800498D01*
X50777789Y53485605D01*
X50716466Y53452120D01*
X50703992Y53450066D01*
X50581946Y53436315D01*
X50422307Y53380456D01*
X50422302Y53380453D01*
X50279115Y53290482D01*
X50279109Y53290477D01*
X50159523Y53170891D01*
X50159518Y53170885D01*
X50069547Y53027698D01*
X50069545Y53027695D01*
X50013685Y52868057D01*
X49993971Y52693080D01*
X49991642Y52693343D01*
X49975066Y52636889D01*
X49958432Y52616247D01*
X47675244Y50333060D01*
X47675245Y50333059D01*
X47599500Y50257314D01*
X47533608Y50143188D01*
X47499500Y50015892D01*
X47499500Y39258676D01*
X47479815Y39191637D01*
X47463181Y39170995D01*
X46429005Y38136819D01*
X46367682Y38103334D01*
X46341324Y38100500D01*
X44762229Y38100500D01*
X44695190Y38120185D01*
X44674548Y38136819D01*
X44620890Y38190477D01*
X44620884Y38190482D01*
X44477697Y38280453D01*
X44477694Y38280455D01*
X44318056Y38336315D01*
X44150003Y38355249D01*
X44149997Y38355249D01*
X43981943Y38336315D01*
X43822305Y38280455D01*
X43822302Y38280453D01*
X43679115Y38190482D01*
X43679109Y38190477D01*
X43559523Y38070891D01*
X43559518Y38070885D01*
X43469547Y37927698D01*
X43469545Y37927695D01*
X43413685Y37768057D01*
X43394751Y37600003D01*
X43394751Y37599998D01*
X39261369Y37599998D01*
X39220890Y37640477D01*
X39220884Y37640482D01*
X39077697Y37730453D01*
X39077694Y37730455D01*
X38918056Y37786315D01*
X38750003Y37805249D01*
X38749997Y37805249D01*
X38581943Y37786315D01*
X38422305Y37730455D01*
X38422302Y37730453D01*
X38279115Y37640482D01*
X38279109Y37640477D01*
X38159523Y37520891D01*
X38159518Y37520885D01*
X38069547Y37377698D01*
X38069545Y37377695D01*
X38013685Y37218057D01*
X37994751Y37050003D01*
X37994751Y37049998D01*
X14452810Y37049998D01*
X22022924Y44620112D01*
X22084245Y44653595D01*
X22096720Y44655649D01*
X22168054Y44663686D01*
X22168057Y44663687D01*
X22168059Y44663687D01*
X22327690Y44719544D01*
X22327692Y44719546D01*
X22327694Y44719546D01*
X22327697Y44719548D01*
X22470884Y44809519D01*
X22470885Y44809520D01*
X22470890Y44809523D01*
X22590477Y44929110D01*
X22680452Y45072303D01*
X22680454Y45072306D01*
X22680454Y45072308D01*
X22680456Y45072310D01*
X22736313Y45231941D01*
X22736313Y45231942D01*
X22736314Y45231944D01*
X22755249Y45399998D01*
X22755249Y45400001D01*
X22752068Y45428229D01*
X22764122Y45497051D01*
X22787604Y45529792D01*
X47120995Y69863181D01*
X47182318Y69896666D01*
X47208676Y69899500D01*
X61787771Y69899500D01*
X61854810Y69879815D01*
X61875452Y69863181D01*
X61929109Y69809524D01*
X61929115Y69809519D01*
X62072302Y69719548D01*
X62072305Y69719546D01*
X62072309Y69719545D01*
X62072310Y69719544D01*
X62144913Y69694140D01*
X62231943Y69663686D01*
X62399997Y69644751D01*
X62400000Y69644751D01*
X62400003Y69644751D01*
X62568056Y69663686D01*
X62568059Y69663687D01*
X62727690Y69719544D01*
X62727692Y69719546D01*
X62727694Y69719546D01*
X62727697Y69719548D01*
X62870884Y69809519D01*
X62870885Y69809520D01*
X62870890Y69809523D01*
X62990477Y69929110D01*
X63080452Y70072303D01*
X63080454Y70072306D01*
X63080454Y70072308D01*
X63080456Y70072310D01*
X63136313Y70231941D01*
X63136313Y70231942D01*
X63136314Y70231944D01*
X63155249Y70399998D01*
X63155249Y70400003D01*
X63136314Y70568057D01*
X63080454Y70727695D01*
X63080452Y70727698D01*
X62990481Y70870885D01*
X62990476Y70870891D01*
X62870890Y70990477D01*
X62870884Y70990482D01*
X62727697Y71080453D01*
X62727694Y71080455D01*
X62568056Y71136315D01*
X62400003Y71155249D01*
X62399997Y71155249D01*
X62231943Y71136315D01*
X62072305Y71080455D01*
X62072302Y71080453D01*
X61929115Y70990482D01*
X61929109Y70990477D01*
X61875452Y70936819D01*
X61814129Y70903334D01*
X61787771Y70900500D01*
X46884107Y70900500D01*
X46773600Y70870890D01*
X46773599Y70870891D01*
X46756816Y70866393D01*
X46756811Y70866391D01*
X46642689Y70800502D01*
X46642683Y70800498D01*
X22027789Y46185605D01*
X21966466Y46152120D01*
X21953992Y46150066D01*
X21831946Y46136315D01*
X21672307Y46080456D01*
X21672302Y46080453D01*
X21529115Y45990482D01*
X21529109Y45990477D01*
X21409523Y45870891D01*
X21409518Y45870885D01*
X21319547Y45727698D01*
X21319545Y45727695D01*
X21263685Y45568057D01*
X21244751Y45400003D01*
X21244751Y45399998D01*
X21252488Y45331329D01*
X21240434Y45262508D01*
X21216949Y45229765D01*
X8559043Y32571859D01*
X8497720Y32538374D01*
X8428028Y32543358D01*
X8372095Y32585230D01*
X8347678Y32650694D01*
X8360362Y32714812D01*
X8420577Y32835740D01*
X8420576Y32835740D01*
X8420582Y32835750D01*
X8476397Y33031917D01*
X8495215Y33235000D01*
X8476397Y33438083D01*
X8420582Y33634250D01*
X8329673Y33816821D01*
X8206764Y33979579D01*
X8206762Y33979582D01*
X8056041Y34116981D01*
X8056039Y34116983D01*
X7882642Y34224345D01*
X7882635Y34224349D01*
X7787546Y34261186D01*
X7692456Y34298024D01*
X7491976Y34335500D01*
X7288024Y34335500D01*
X7087544Y34298024D01*
X7087541Y34298024D01*
X7087541Y34298023D01*
X6897364Y34224349D01*
X6897357Y34224345D01*
X6723960Y34116983D01*
X6723958Y34116981D01*
X6573237Y33979582D01*
X6450327Y33816822D01*
X6359422Y33634261D01*
X6359417Y33634248D01*
X6303602Y33438083D01*
X6284785Y33235001D01*
X6284785Y33235000D01*
X6303602Y33031918D01*
X6359417Y32835753D01*
X6359422Y32835740D01*
X6450327Y32653179D01*
X6573237Y32490419D01*
X6723958Y32353020D01*
X6723960Y32353018D01*
X6823141Y32291608D01*
X6897363Y32245652D01*
X7087544Y32171976D01*
X7288024Y32134500D01*
X7288026Y32134500D01*
X7491974Y32134500D01*
X7491976Y32134500D01*
X7692456Y32171976D01*
X7882637Y32245652D01*
X7893489Y32252372D01*
X7960847Y32270929D01*
X8027547Y32250123D01*
X8072410Y32196559D01*
X8081193Y32127243D01*
X8051106Y32064183D01*
X8046449Y32059265D01*
X7783118Y31795934D01*
X7721795Y31762449D01*
X7672652Y31761726D01*
X7491976Y31795500D01*
X7288024Y31795500D01*
X7087544Y31758024D01*
X7087541Y31758024D01*
X7087541Y31758023D01*
X6897364Y31684349D01*
X6897357Y31684345D01*
X6723960Y31576983D01*
X6723958Y31576981D01*
X6573237Y31439582D01*
X6450327Y31276822D01*
X6363182Y31101812D01*
X6315679Y31050575D01*
X6248016Y31033154D01*
X6181676Y31055080D01*
X6137721Y31109391D01*
X6132407Y31124992D01*
X6123434Y31158482D01*
X6123429Y31158493D01*
X6023600Y31372578D01*
X6023599Y31372580D01*
X5888113Y31566074D01*
X5888108Y31566080D01*
X5721082Y31733106D01*
X5527578Y31868601D01*
X5313492Y31968430D01*
X5313477Y31968436D01*
X5274414Y31978903D01*
X5214754Y32015268D01*
X5184226Y32078115D01*
X5192521Y32147491D01*
X5237007Y32201368D01*
X5261710Y32214302D01*
X5342637Y32245652D01*
X5516041Y32353019D01*
X5666764Y32490421D01*
X5789673Y32653179D01*
X5880582Y32835750D01*
X5936397Y33031917D01*
X5955215Y33235000D01*
X5936397Y33438083D01*
X5880582Y33634250D01*
X5789673Y33816821D01*
X5666764Y33979579D01*
X5666762Y33979582D01*
X5516041Y34116981D01*
X5516039Y34116983D01*
X5342642Y34224345D01*
X5342635Y34224349D01*
X5247546Y34261186D01*
X5152456Y34298024D01*
X4951976Y34335500D01*
X4748024Y34335500D01*
X4547544Y34298024D01*
X4547541Y34298024D01*
X4547541Y34298023D01*
X4357364Y34224349D01*
X4357357Y34224345D01*
X4183960Y34116983D01*
X4183958Y34116981D01*
X4033237Y33979582D01*
X3910327Y33816822D01*
X3819422Y33634261D01*
X3819417Y33634248D01*
X3763602Y33438083D01*
X3744785Y33235001D01*
X3744785Y33235000D01*
X3763602Y33031918D01*
X3819417Y32835753D01*
X3819422Y32835740D01*
X3910327Y32653179D01*
X4033237Y32490419D01*
X4183958Y32353020D01*
X4183960Y32353018D01*
X4283141Y32291608D01*
X4357363Y32245652D01*
X4438283Y32214304D01*
X4493685Y32171731D01*
X4517276Y32105965D01*
X4501565Y32037884D01*
X4451542Y31989105D01*
X4425586Y31978903D01*
X4386519Y31968435D01*
X4386507Y31968430D01*
X4172422Y31868601D01*
X4172420Y31868600D01*
X3978926Y31733114D01*
X3978920Y31733109D01*
X3811891Y31566080D01*
X3811886Y31566074D01*
X3676402Y31372583D01*
X3676400Y31372579D01*
X3593594Y31195001D01*
X3593594Y31195000D01*
X500500Y31195000D01*
X500500Y35775000D01*
X3744785Y35775000D01*
X3763602Y35571918D01*
X3819417Y35375753D01*
X3819422Y35375740D01*
X3910327Y35193179D01*
X4033237Y35030419D01*
X4183958Y34893020D01*
X4183960Y34893018D01*
X4283141Y34831608D01*
X4357363Y34785652D01*
X4547544Y34711976D01*
X4748024Y34674500D01*
X4748026Y34674500D01*
X4951974Y34674500D01*
X4951976Y34674500D01*
X5152456Y34711976D01*
X5342637Y34785652D01*
X5516041Y34893019D01*
X5524052Y34900322D01*
X6289500Y34900322D01*
X6304032Y34827265D01*
X6304033Y34827261D01*
X6304034Y34827260D01*
X6359399Y34744399D01*
X6442260Y34689034D01*
X6442264Y34689033D01*
X6515321Y34674501D01*
X6515324Y34674500D01*
X6515326Y34674500D01*
X8264676Y34674500D01*
X8264677Y34674501D01*
X8337740Y34689034D01*
X8420601Y34744399D01*
X8475966Y34827260D01*
X8490500Y34900326D01*
X8490500Y36649674D01*
X8490500Y36649677D01*
X8490499Y36649679D01*
X8475967Y36722736D01*
X8475966Y36722740D01*
X8420601Y36805601D01*
X8337740Y36860966D01*
X8337739Y36860967D01*
X8337735Y36860968D01*
X8264677Y36875500D01*
X8264674Y36875500D01*
X6515326Y36875500D01*
X6515323Y36875500D01*
X6442264Y36860968D01*
X6442260Y36860967D01*
X6359399Y36805601D01*
X6304033Y36722740D01*
X6304032Y36722736D01*
X6289500Y36649679D01*
X6289500Y34900322D01*
X5524052Y34900322D01*
X5666764Y35030421D01*
X5789673Y35193179D01*
X5880582Y35375750D01*
X5936397Y35571917D01*
X5955215Y35775000D01*
X5936397Y35978083D01*
X5880582Y36174250D01*
X5789673Y36356821D01*
X5666764Y36519579D01*
X5666762Y36519582D01*
X5516041Y36656981D01*
X5516039Y36656983D01*
X5342642Y36764345D01*
X5342635Y36764349D01*
X5236150Y36805601D01*
X5152456Y36838024D01*
X4951976Y36875500D01*
X4748024Y36875500D01*
X4547544Y36838024D01*
X4547541Y36838024D01*
X4547541Y36838023D01*
X4357364Y36764349D01*
X4357357Y36764345D01*
X4183960Y36656983D01*
X4183958Y36656981D01*
X4033237Y36519582D01*
X3910327Y36356822D01*
X3819422Y36174261D01*
X3819417Y36174248D01*
X3763602Y35978083D01*
X3744785Y35775001D01*
X3744785Y35775000D01*
X500500Y35775000D01*
X500500Y57000000D01*
X11394659Y57000000D01*
X11413975Y56803871D01*
X11471188Y56615267D01*
X11564086Y56441468D01*
X11564090Y56441461D01*
X11689116Y56289117D01*
X11841460Y56164091D01*
X11841467Y56164087D01*
X12015266Y56071189D01*
X12015269Y56071189D01*
X12015273Y56071186D01*
X12203868Y56013976D01*
X12400000Y55994659D01*
X12596132Y56013976D01*
X12784727Y56071186D01*
X12958538Y56164090D01*
X13110883Y56289117D01*
X13235910Y56441462D01*
X13328814Y56615273D01*
X13386024Y56803868D01*
X13405341Y57000000D01*
X16294659Y57000000D01*
X16313975Y56803871D01*
X16371188Y56615267D01*
X16464086Y56441468D01*
X16464090Y56441461D01*
X16589116Y56289117D01*
X16741460Y56164091D01*
X16741467Y56164087D01*
X16915266Y56071189D01*
X16915269Y56071189D01*
X16915273Y56071186D01*
X17103868Y56013976D01*
X17300000Y55994659D01*
X17496132Y56013976D01*
X17684727Y56071186D01*
X17858538Y56164090D01*
X18010883Y56289117D01*
X18135910Y56441462D01*
X18228814Y56615273D01*
X18286024Y56803868D01*
X18305341Y57000000D01*
X18286024Y57196132D01*
X18228814Y57384727D01*
X18228811Y57384731D01*
X18228811Y57384734D01*
X18135913Y57558533D01*
X18135909Y57558540D01*
X18010883Y57710884D01*
X17858539Y57835910D01*
X17858532Y57835914D01*
X17684733Y57928812D01*
X17684727Y57928814D01*
X17496132Y57986024D01*
X17496129Y57986025D01*
X17300000Y58005341D01*
X17103870Y57986025D01*
X16915266Y57928812D01*
X16741467Y57835914D01*
X16741460Y57835910D01*
X16589116Y57710884D01*
X16464090Y57558540D01*
X16464086Y57558533D01*
X16371188Y57384734D01*
X16313975Y57196130D01*
X16294659Y57000000D01*
X13405341Y57000000D01*
X13386024Y57196132D01*
X13328814Y57384727D01*
X13328811Y57384731D01*
X13328811Y57384734D01*
X13235913Y57558533D01*
X13235909Y57558540D01*
X13110883Y57710884D01*
X12958539Y57835910D01*
X12958532Y57835914D01*
X12784733Y57928812D01*
X12784727Y57928814D01*
X12596132Y57986024D01*
X12596129Y57986025D01*
X12400000Y58005341D01*
X12203870Y57986025D01*
X12015266Y57928812D01*
X11841467Y57835914D01*
X11841460Y57835910D01*
X11689116Y57710884D01*
X11564090Y57558540D01*
X11564086Y57558533D01*
X11471188Y57384734D01*
X11413975Y57196130D01*
X11394659Y57000000D01*
X500500Y57000000D01*
X500500Y59299998D01*
X23544751Y59299998D01*
X23563685Y59131944D01*
X23619545Y58972306D01*
X23619547Y58972303D01*
X23709518Y58829116D01*
X23709523Y58829110D01*
X23829109Y58709524D01*
X23829115Y58709519D01*
X23972302Y58619548D01*
X23972305Y58619546D01*
X23972309Y58619545D01*
X23972310Y58619544D01*
X24044913Y58594140D01*
X24131943Y58563686D01*
X24299997Y58544751D01*
X24300000Y58544751D01*
X24300003Y58544751D01*
X24468056Y58563686D01*
X24468059Y58563687D01*
X24627690Y58619544D01*
X24627692Y58619546D01*
X24627694Y58619546D01*
X24627697Y58619548D01*
X24770884Y58709519D01*
X24770885Y58709520D01*
X24770890Y58709523D01*
X24890477Y58829110D01*
X24980452Y58972303D01*
X24980454Y58972306D01*
X24980454Y58972308D01*
X24980456Y58972310D01*
X25036313Y59131941D01*
X25036313Y59131942D01*
X25036314Y59131944D01*
X25055249Y59299998D01*
X25055249Y59300003D01*
X25036314Y59468057D01*
X24980454Y59627695D01*
X24980452Y59627698D01*
X24890481Y59770885D01*
X24890476Y59770891D01*
X24770890Y59890477D01*
X24770884Y59890482D01*
X24627697Y59980453D01*
X24627694Y59980455D01*
X24468056Y60036315D01*
X24300003Y60055249D01*
X24299997Y60055249D01*
X24131943Y60036315D01*
X23972305Y59980455D01*
X23972302Y59980453D01*
X23829115Y59890482D01*
X23829109Y59890477D01*
X23709523Y59770891D01*
X23709518Y59770885D01*
X23619547Y59627698D01*
X23619545Y59627695D01*
X23563685Y59468057D01*
X23544751Y59300003D01*
X23544751Y59299998D01*
X500500Y59299998D01*
X500500Y67399998D01*
X35244723Y67399998D01*
X35263793Y67182025D01*
X35263793Y67182021D01*
X35320422Y66970678D01*
X35320424Y66970674D01*
X35320425Y66970670D01*
X35366661Y66871516D01*
X35412897Y66772362D01*
X35412898Y66772361D01*
X35538402Y66593123D01*
X35693123Y66438402D01*
X35872361Y66312898D01*
X36070670Y66220425D01*
X36282023Y66163793D01*
X36464926Y66147792D01*
X36499998Y66144723D01*
X36500000Y66144723D01*
X36500002Y66144723D01*
X36528254Y66147195D01*
X36717977Y66163793D01*
X36929330Y66220425D01*
X37127639Y66312898D01*
X37306877Y66438402D01*
X37461598Y66593123D01*
X37587102Y66772361D01*
X37679575Y66970670D01*
X37736207Y67182023D01*
X37755277Y67400000D01*
X37736207Y67617977D01*
X37679575Y67829330D01*
X37587102Y68027638D01*
X37587100Y68027641D01*
X37587099Y68027643D01*
X37461599Y68206876D01*
X37461596Y68206879D01*
X37306877Y68361598D01*
X37127639Y68487102D01*
X37127640Y68487102D01*
X37127638Y68487103D01*
X37028484Y68533339D01*
X36929330Y68579575D01*
X36929326Y68579576D01*
X36929322Y68579578D01*
X36717977Y68636207D01*
X36500002Y68655277D01*
X36499998Y68655277D01*
X36354682Y68642564D01*
X36282023Y68636207D01*
X36282020Y68636207D01*
X36070677Y68579578D01*
X36070668Y68579574D01*
X35872361Y68487102D01*
X35872357Y68487100D01*
X35693121Y68361598D01*
X35538402Y68206879D01*
X35412900Y68027643D01*
X35412898Y68027639D01*
X35320426Y67829332D01*
X35320422Y67829323D01*
X35263793Y67617980D01*
X35263793Y67617976D01*
X35244723Y67400003D01*
X35244723Y67399998D01*
X500500Y67399998D01*
X500500Y74299996D01*
X9494953Y74299996D01*
X9515113Y74030974D01*
X9515113Y74030972D01*
X9575142Y73767967D01*
X9575148Y73767948D01*
X9673709Y73516819D01*
X9723489Y73430598D01*
X9723490Y73430597D01*
X10502339Y74209447D01*
X10530743Y74066649D01*
X10591049Y73921058D01*
X10678599Y73790030D01*
X10790030Y73678599D01*
X10921058Y73591049D01*
X11066649Y73530743D01*
X11209446Y73502340D01*
X10428802Y72721697D01*
X10640539Y72619731D01*
X10640537Y72619731D01*
X10898337Y72540210D01*
X10898343Y72540208D01*
X11165101Y72500001D01*
X11165110Y72500000D01*
X11434890Y72500000D01*
X11434898Y72500001D01*
X11701656Y72540208D01*
X11701662Y72540210D01*
X11959458Y72619730D01*
X12171195Y72721698D01*
X11390553Y73502340D01*
X11533351Y73530743D01*
X11678942Y73591049D01*
X11809970Y73678599D01*
X11921401Y73790030D01*
X12008951Y73921058D01*
X12069257Y74066649D01*
X12097660Y74209446D01*
X12876509Y73430597D01*
X12876510Y73430597D01*
X12926290Y73516818D01*
X12926293Y73516825D01*
X13024851Y73767948D01*
X13024857Y73767967D01*
X13084886Y74030972D01*
X13084886Y74030974D01*
X13105047Y74299996D01*
X13105047Y74300005D01*
X13084886Y74569027D01*
X13084886Y74569029D01*
X13024857Y74832034D01*
X13024851Y74832053D01*
X12926290Y75083182D01*
X12876509Y75169405D01*
X12097660Y74390555D01*
X12069257Y74533351D01*
X12008951Y74678942D01*
X11921401Y74809970D01*
X11809970Y74921401D01*
X11678942Y75008951D01*
X11533351Y75069257D01*
X11390554Y75097661D01*
X12092891Y75799998D01*
X61944723Y75799998D01*
X61963793Y75582025D01*
X61963793Y75582021D01*
X62020422Y75370678D01*
X62020424Y75370674D01*
X62020425Y75370670D01*
X62066661Y75271516D01*
X62112897Y75172362D01*
X62137998Y75136514D01*
X62238402Y74993123D01*
X62393123Y74838402D01*
X62572361Y74712898D01*
X62770670Y74620425D01*
X62982023Y74563793D01*
X63164926Y74547792D01*
X63199998Y74544723D01*
X63200000Y74544723D01*
X63200002Y74544723D01*
X63228254Y74547195D01*
X63417977Y74563793D01*
X63629330Y74620425D01*
X63827639Y74712898D01*
X64006877Y74838402D01*
X64161598Y74993123D01*
X64287102Y75172361D01*
X64379575Y75370670D01*
X64436207Y75582023D01*
X64455277Y75800000D01*
X64436207Y76017977D01*
X64379575Y76229330D01*
X64287102Y76427638D01*
X64287100Y76427641D01*
X64287099Y76427643D01*
X64161599Y76606876D01*
X64161596Y76606879D01*
X64006877Y76761598D01*
X63827639Y76887102D01*
X63827640Y76887102D01*
X63827638Y76887103D01*
X63728484Y76933339D01*
X63629330Y76979575D01*
X63629326Y76979576D01*
X63629322Y76979578D01*
X63417977Y77036207D01*
X63200002Y77055277D01*
X63199998Y77055277D01*
X63054682Y77042564D01*
X62982023Y77036207D01*
X62982020Y77036207D01*
X62770677Y76979578D01*
X62770668Y76979574D01*
X62572361Y76887102D01*
X62572357Y76887100D01*
X62393121Y76761598D01*
X62238402Y76606879D01*
X62112900Y76427643D01*
X62112898Y76427639D01*
X62020426Y76229332D01*
X62020422Y76229323D01*
X61963793Y76017980D01*
X61963793Y76017976D01*
X61944723Y75800003D01*
X61944723Y75799998D01*
X12092891Y75799998D01*
X12171196Y75878303D01*
X12171195Y75878305D01*
X11959460Y75980270D01*
X11959462Y75980270D01*
X11701662Y76059791D01*
X11701656Y76059793D01*
X11434898Y76100000D01*
X11165101Y76100000D01*
X10898343Y76059793D01*
X10898337Y76059791D01*
X10640538Y75980270D01*
X10428803Y75878305D01*
X10428803Y75878304D01*
X11209446Y75097661D01*
X11066649Y75069257D01*
X10921058Y75008951D01*
X10790030Y74921401D01*
X10678599Y74809970D01*
X10591049Y74678942D01*
X10530743Y74533351D01*
X10502339Y74390554D01*
X9723489Y75169404D01*
X9673708Y75083179D01*
X9673706Y75083175D01*
X9575148Y74832053D01*
X9575142Y74832034D01*
X9515113Y74569029D01*
X9515113Y74569027D01*
X9494953Y74300005D01*
X9494953Y74299996D01*
X500500Y74299996D01*
X500500Y78999996D01*
X6494953Y78999996D01*
X6515113Y78730974D01*
X6515113Y78730972D01*
X6575142Y78467967D01*
X6575148Y78467948D01*
X6673709Y78216819D01*
X6723489Y78130598D01*
X6723490Y78130597D01*
X7502339Y78909447D01*
X7530743Y78766649D01*
X7591049Y78621058D01*
X7678599Y78490030D01*
X7790030Y78378599D01*
X7921058Y78291049D01*
X8066649Y78230743D01*
X8209446Y78202340D01*
X7428802Y77421697D01*
X7640539Y77319731D01*
X7640537Y77319731D01*
X7898337Y77240210D01*
X7898343Y77240208D01*
X8165101Y77200001D01*
X8165110Y77200000D01*
X8434890Y77200000D01*
X8434898Y77200001D01*
X8701656Y77240208D01*
X8701662Y77240210D01*
X8959458Y77319730D01*
X9171195Y77421698D01*
X8917571Y77675322D01*
X12749500Y77675322D01*
X12764032Y77602265D01*
X12764033Y77602261D01*
X12764034Y77602260D01*
X12819399Y77519399D01*
X12902260Y77464034D01*
X12902264Y77464033D01*
X12975321Y77449501D01*
X12975324Y77449500D01*
X12975326Y77449500D01*
X15624676Y77449500D01*
X15624677Y77449501D01*
X15697740Y77464034D01*
X15780601Y77519399D01*
X15835966Y77602260D01*
X15850500Y77675326D01*
X15850500Y80324674D01*
X15850500Y80324677D01*
X15850499Y80324679D01*
X15835967Y80397736D01*
X15835966Y80397740D01*
X15780601Y80480601D01*
X15697740Y80535966D01*
X15697739Y80535967D01*
X15697735Y80535968D01*
X15624677Y80550500D01*
X15624674Y80550500D01*
X12975326Y80550500D01*
X12975323Y80550500D01*
X12902264Y80535968D01*
X12902260Y80535967D01*
X12819399Y80480601D01*
X12764033Y80397740D01*
X12764032Y80397736D01*
X12749500Y80324679D01*
X12749500Y77675322D01*
X8917571Y77675322D01*
X8390553Y78202340D01*
X8533351Y78230743D01*
X8678942Y78291049D01*
X8809970Y78378599D01*
X8921401Y78490030D01*
X9008951Y78621058D01*
X9069257Y78766649D01*
X9097660Y78909446D01*
X9876509Y78130597D01*
X9876510Y78130597D01*
X9926290Y78216818D01*
X9926293Y78216825D01*
X10024851Y78467948D01*
X10024857Y78467967D01*
X10084886Y78730972D01*
X10084886Y78730974D01*
X10105047Y78999996D01*
X10105047Y79000005D01*
X10084886Y79269027D01*
X10084886Y79269029D01*
X10024857Y79532034D01*
X10024851Y79532053D01*
X9926290Y79783182D01*
X9876509Y79869405D01*
X9097660Y79090555D01*
X9069257Y79233351D01*
X9008951Y79378942D01*
X8921401Y79509970D01*
X8809970Y79621401D01*
X8678942Y79708951D01*
X8533351Y79769257D01*
X8390554Y79797661D01*
X9171196Y80578303D01*
X9171195Y80578305D01*
X8959460Y80680270D01*
X8959462Y80680270D01*
X8701662Y80759791D01*
X8701656Y80759793D01*
X8434898Y80800000D01*
X8165101Y80800000D01*
X7898343Y80759793D01*
X7898337Y80759791D01*
X7640538Y80680270D01*
X7428803Y80578305D01*
X7428803Y80578304D01*
X8209446Y79797661D01*
X8066649Y79769257D01*
X7921058Y79708951D01*
X7790030Y79621401D01*
X7678599Y79509970D01*
X7591049Y79378942D01*
X7530743Y79233351D01*
X7502339Y79090554D01*
X6723489Y79869404D01*
X6673708Y79783179D01*
X6673706Y79783175D01*
X6575148Y79532053D01*
X6575142Y79532034D01*
X6515113Y79269029D01*
X6515113Y79269027D01*
X6494953Y79000005D01*
X6494953Y78999996D01*
X500500Y78999996D01*
X500500Y91373461D01*
X2069500Y91373461D01*
X2097011Y91164503D01*
X2102532Y91122570D01*
X2102533Y91122568D01*
X2168029Y90878131D01*
X2168032Y90878121D01*
X2264869Y90644337D01*
X2264872Y90644330D01*
X2391404Y90425170D01*
X2391406Y90425167D01*
X2391407Y90425166D01*
X2545457Y90224404D01*
X2545463Y90224397D01*
X2724396Y90045464D01*
X2724402Y90045459D01*
X2925170Y89891404D01*
X3144330Y89764872D01*
X3378130Y89668029D01*
X3622570Y89602532D01*
X3873468Y89569500D01*
X3873475Y89569500D01*
X4126525Y89569500D01*
X4126532Y89569500D01*
X4377430Y89602532D01*
X4621870Y89668029D01*
X4855670Y89764872D01*
X5074830Y89891404D01*
X5275598Y90045459D01*
X5454541Y90224402D01*
X5608596Y90425170D01*
X5735128Y90644330D01*
X5831971Y90878130D01*
X5897468Y91122570D01*
X5930499Y91373461D01*
X93319500Y91373461D01*
X93347011Y91164503D01*
X93352532Y91122570D01*
X93352533Y91122568D01*
X93418029Y90878131D01*
X93418032Y90878121D01*
X93514869Y90644337D01*
X93514872Y90644330D01*
X93641404Y90425170D01*
X93641406Y90425167D01*
X93641407Y90425166D01*
X93795457Y90224404D01*
X93795463Y90224397D01*
X93974396Y90045464D01*
X93974402Y90045459D01*
X94175170Y89891404D01*
X94394330Y89764872D01*
X94628130Y89668029D01*
X94872570Y89602532D01*
X95123468Y89569500D01*
X95123475Y89569500D01*
X95376525Y89569500D01*
X95376532Y89569500D01*
X95627430Y89602532D01*
X95871870Y89668029D01*
X96105670Y89764872D01*
X96324830Y89891404D01*
X96525598Y90045459D01*
X96704541Y90224402D01*
X96858596Y90425170D01*
X96985128Y90644330D01*
X97081971Y90878130D01*
X97147468Y91122570D01*
X97180500Y91373468D01*
X97180500Y91626532D01*
X97147468Y91877430D01*
X97081971Y92121870D01*
X96985128Y92355670D01*
X96858596Y92574830D01*
X96704541Y92775598D01*
X96704536Y92775604D01*
X96525603Y92954537D01*
X96525596Y92954543D01*
X96324834Y93108593D01*
X96324833Y93108594D01*
X96324830Y93108596D01*
X96105670Y93235128D01*
X96105663Y93235131D01*
X95871879Y93331968D01*
X95871872Y93331970D01*
X95871870Y93331971D01*
X95627430Y93397468D01*
X95585497Y93402989D01*
X95376539Y93430500D01*
X95376532Y93430500D01*
X95123468Y93430500D01*
X95123460Y93430500D01*
X94884649Y93399059D01*
X94872570Y93397468D01*
X94628130Y93331971D01*
X94628120Y93331968D01*
X94394336Y93235131D01*
X94394327Y93235127D01*
X94175165Y93108593D01*
X93974403Y92954543D01*
X93974396Y92954537D01*
X93795463Y92775604D01*
X93795457Y92775597D01*
X93641407Y92574835D01*
X93514873Y92355673D01*
X93514869Y92355664D01*
X93418032Y92121880D01*
X93418029Y92121870D01*
X93352533Y91877433D01*
X93352531Y91877422D01*
X93319500Y91626540D01*
X93319500Y91373461D01*
X5930499Y91373461D01*
X5930500Y91373468D01*
X5930500Y91626532D01*
X5897468Y91877430D01*
X5831971Y92121870D01*
X5735128Y92355670D01*
X5608596Y92574830D01*
X5454541Y92775598D01*
X5454536Y92775604D01*
X5275603Y92954537D01*
X5275596Y92954543D01*
X5074834Y93108593D01*
X5074833Y93108594D01*
X5074830Y93108596D01*
X4855670Y93235128D01*
X4855663Y93235131D01*
X4621879Y93331968D01*
X4621872Y93331970D01*
X4621870Y93331971D01*
X4377430Y93397468D01*
X4335497Y93402989D01*
X4126539Y93430500D01*
X4126532Y93430500D01*
X3873468Y93430500D01*
X3873460Y93430500D01*
X3634649Y93399059D01*
X3622570Y93397468D01*
X3378130Y93331971D01*
X3378120Y93331968D01*
X3144336Y93235131D01*
X3144327Y93235127D01*
X2925165Y93108593D01*
X2724403Y92954543D01*
X2724396Y92954537D01*
X2545463Y92775604D01*
X2545457Y92775597D01*
X2391407Y92574835D01*
X2264873Y92355673D01*
X2264869Y92355664D01*
X2168032Y92121880D01*
X2168029Y92121870D01*
X2102533Y91877433D01*
X2102531Y91877422D01*
X2069500Y91626540D01*
X2069500Y91373461D01*
X500500Y91373461D01*
X500500Y94875500D01*
X520185Y94942539D01*
X572989Y94988294D01*
X624500Y94999500D01*
X98625500Y94999500D01*
X98692539Y94979815D01*
G37*
%TD.AperFunction*%
%TA.AperFunction,Conductor*%
G36*
X98713181Y49873926D02*
G01*
X98746666Y49812603D01*
X98749500Y49786245D01*
X98749500Y46213755D01*
X98729815Y46146716D01*
X98713181Y46126074D01*
X98180182Y45593076D01*
X98157335Y45707936D01*
X98093260Y45862626D01*
X98000238Y46001844D01*
X97881844Y46120238D01*
X97742626Y46213260D01*
X97587936Y46277335D01*
X97473075Y46300183D01*
X98173739Y47000846D01*
X98173738Y47000848D01*
X97981142Y47093596D01*
X97981144Y47093596D01*
X97730505Y47170908D01*
X97730499Y47170910D01*
X97471151Y47210000D01*
X97208848Y47210000D01*
X96949500Y47170910D01*
X96949494Y47170908D01*
X96698858Y47093596D01*
X96698854Y47093595D01*
X96462550Y46979796D01*
X96462546Y46979794D01*
X96394351Y46933299D01*
X96327872Y46911799D01*
X96260322Y46929653D01*
X96213148Y46981194D01*
X96200500Y47035753D01*
X96200500Y48964248D01*
X96220185Y49031287D01*
X96272989Y49077042D01*
X96342147Y49086986D01*
X96394352Y49066701D01*
X96462544Y49020209D01*
X96462550Y49020205D01*
X96698854Y48906406D01*
X96698858Y48906405D01*
X96949494Y48829093D01*
X96949500Y48829091D01*
X97208848Y48790001D01*
X97208857Y48790000D01*
X97471143Y48790000D01*
X97471151Y48790001D01*
X97730499Y48829091D01*
X97730505Y48829093D01*
X97981143Y48906405D01*
X98173739Y48999154D01*
X97473075Y49699818D01*
X97587936Y49722665D01*
X97742626Y49786740D01*
X97881844Y49879762D01*
X98000238Y49998156D01*
X98093260Y50137374D01*
X98157335Y50292064D01*
X98180182Y50406925D01*
X98713181Y49873926D01*
G37*
%TD.AperFunction*%
%TD*%
M02*
