%TF.GenerationSoftware,KiCad,Pcbnew,8.0.0*%
%TF.CreationDate,2024-03-04T22:35:08+02:00*%
%TF.ProjectId,Intercom_SMS_Sender,496e7465-7263-46f6-9d5f-534d535f5365,rev?*%
%TF.SameCoordinates,PX77ecaf0PY7735940*%
%TF.FileFunction,Legend,Top*%
%TF.FilePolarity,Positive*%
%FSLAX46Y46*%
G04 Gerber Fmt 4.6, Leading zero omitted, Abs format (unit mm)*
G04 Created by KiCad (PCBNEW 8.0.0) date 2024-03-04 22:35:08*
%MOMM*%
%LPD*%
G01*
G04 APERTURE LIST*
%ADD10C,0.300000*%
%ADD11C,0.500000*%
%ADD12C,0.125000*%
%ADD13C,0.200000*%
%ADD14C,0.160000*%
%ADD15C,0.150000*%
%ADD16C,0.120000*%
%ADD17C,0.100000*%
%ADD18C,0.127000*%
G04 APERTURE END LIST*
D10*
X27249999Y5399802D02*
X27749999Y5399802D01*
X27964285Y4614088D02*
X27249999Y4614088D01*
X27249999Y4614088D02*
X27249999Y6114088D01*
X27249999Y6114088D02*
X27964285Y6114088D01*
X28464285Y4614088D02*
X29250000Y5614088D01*
X28464285Y5614088D02*
X29250000Y4614088D01*
X29607143Y5614088D02*
X30178571Y5614088D01*
X29821428Y6114088D02*
X29821428Y4828374D01*
X29821428Y4828374D02*
X29892857Y4685516D01*
X29892857Y4685516D02*
X30035714Y4614088D01*
X30035714Y4614088D02*
X30178571Y4614088D01*
X31250000Y4685516D02*
X31107143Y4614088D01*
X31107143Y4614088D02*
X30821429Y4614088D01*
X30821429Y4614088D02*
X30678571Y4685516D01*
X30678571Y4685516D02*
X30607143Y4828374D01*
X30607143Y4828374D02*
X30607143Y5399802D01*
X30607143Y5399802D02*
X30678571Y5542659D01*
X30678571Y5542659D02*
X30821429Y5614088D01*
X30821429Y5614088D02*
X31107143Y5614088D01*
X31107143Y5614088D02*
X31250000Y5542659D01*
X31250000Y5542659D02*
X31321429Y5399802D01*
X31321429Y5399802D02*
X31321429Y5256945D01*
X31321429Y5256945D02*
X30607143Y5114088D01*
X31964285Y4614088D02*
X31964285Y5614088D01*
X31964285Y5328374D02*
X32035714Y5471231D01*
X32035714Y5471231D02*
X32107143Y5542659D01*
X32107143Y5542659D02*
X32250000Y5614088D01*
X32250000Y5614088D02*
X32392857Y5614088D01*
X32892856Y5614088D02*
X32892856Y4614088D01*
X32892856Y5471231D02*
X32964285Y5542659D01*
X32964285Y5542659D02*
X33107142Y5614088D01*
X33107142Y5614088D02*
X33321428Y5614088D01*
X33321428Y5614088D02*
X33464285Y5542659D01*
X33464285Y5542659D02*
X33535714Y5399802D01*
X33535714Y5399802D02*
X33535714Y4614088D01*
X34892857Y4614088D02*
X34892857Y5399802D01*
X34892857Y5399802D02*
X34821428Y5542659D01*
X34821428Y5542659D02*
X34678571Y5614088D01*
X34678571Y5614088D02*
X34392857Y5614088D01*
X34392857Y5614088D02*
X34249999Y5542659D01*
X34892857Y4685516D02*
X34749999Y4614088D01*
X34749999Y4614088D02*
X34392857Y4614088D01*
X34392857Y4614088D02*
X34249999Y4685516D01*
X34249999Y4685516D02*
X34178571Y4828374D01*
X34178571Y4828374D02*
X34178571Y4971231D01*
X34178571Y4971231D02*
X34249999Y5114088D01*
X34249999Y5114088D02*
X34392857Y5185516D01*
X34392857Y5185516D02*
X34749999Y5185516D01*
X34749999Y5185516D02*
X34892857Y5256945D01*
X35821428Y4614088D02*
X35678571Y4685516D01*
X35678571Y4685516D02*
X35607142Y4828374D01*
X35607142Y4828374D02*
X35607142Y6114088D01*
X37464285Y5042659D02*
X38178571Y5042659D01*
X37321428Y4614088D02*
X37821428Y6114088D01*
X37821428Y6114088D02*
X38321428Y4614088D01*
X39464285Y4685516D02*
X39321427Y4614088D01*
X39321427Y4614088D02*
X39035713Y4614088D01*
X39035713Y4614088D02*
X38892856Y4685516D01*
X38892856Y4685516D02*
X38821427Y4756945D01*
X38821427Y4756945D02*
X38749999Y4899802D01*
X38749999Y4899802D02*
X38749999Y5328374D01*
X38749999Y5328374D02*
X38821427Y5471231D01*
X38821427Y5471231D02*
X38892856Y5542659D01*
X38892856Y5542659D02*
X39035713Y5614088D01*
X39035713Y5614088D02*
X39321427Y5614088D01*
X39321427Y5614088D02*
X39464285Y5542659D01*
X39892856Y5614088D02*
X40464284Y5614088D01*
X40107141Y6114088D02*
X40107141Y4828374D01*
X40107141Y4828374D02*
X40178570Y4685516D01*
X40178570Y4685516D02*
X40321427Y4614088D01*
X40321427Y4614088D02*
X40464284Y4614088D01*
X40964284Y4614088D02*
X40964284Y5614088D01*
X40964284Y6114088D02*
X40892856Y6042659D01*
X40892856Y6042659D02*
X40964284Y5971231D01*
X40964284Y5971231D02*
X41035713Y6042659D01*
X41035713Y6042659D02*
X40964284Y6114088D01*
X40964284Y6114088D02*
X40964284Y5971231D01*
X41535713Y5614088D02*
X41892856Y4614088D01*
X41892856Y4614088D02*
X42249999Y5614088D01*
X43464285Y4614088D02*
X43464285Y5399802D01*
X43464285Y5399802D02*
X43392856Y5542659D01*
X43392856Y5542659D02*
X43249999Y5614088D01*
X43249999Y5614088D02*
X42964285Y5614088D01*
X42964285Y5614088D02*
X42821427Y5542659D01*
X43464285Y4685516D02*
X43321427Y4614088D01*
X43321427Y4614088D02*
X42964285Y4614088D01*
X42964285Y4614088D02*
X42821427Y4685516D01*
X42821427Y4685516D02*
X42749999Y4828374D01*
X42749999Y4828374D02*
X42749999Y4971231D01*
X42749999Y4971231D02*
X42821427Y5114088D01*
X42821427Y5114088D02*
X42964285Y5185516D01*
X42964285Y5185516D02*
X43321427Y5185516D01*
X43321427Y5185516D02*
X43464285Y5256945D01*
X43964285Y5614088D02*
X44535713Y5614088D01*
X44178570Y6114088D02*
X44178570Y4828374D01*
X44178570Y4828374D02*
X44249999Y4685516D01*
X44249999Y4685516D02*
X44392856Y4614088D01*
X44392856Y4614088D02*
X44535713Y4614088D01*
X45035713Y4614088D02*
X45035713Y5614088D01*
X45035713Y6114088D02*
X44964285Y6042659D01*
X44964285Y6042659D02*
X45035713Y5971231D01*
X45035713Y5971231D02*
X45107142Y6042659D01*
X45107142Y6042659D02*
X45035713Y6114088D01*
X45035713Y6114088D02*
X45035713Y5971231D01*
X45964285Y4614088D02*
X45821428Y4685516D01*
X45821428Y4685516D02*
X45749999Y4756945D01*
X45749999Y4756945D02*
X45678571Y4899802D01*
X45678571Y4899802D02*
X45678571Y5328374D01*
X45678571Y5328374D02*
X45749999Y5471231D01*
X45749999Y5471231D02*
X45821428Y5542659D01*
X45821428Y5542659D02*
X45964285Y5614088D01*
X45964285Y5614088D02*
X46178571Y5614088D01*
X46178571Y5614088D02*
X46321428Y5542659D01*
X46321428Y5542659D02*
X46392857Y5471231D01*
X46392857Y5471231D02*
X46464285Y5328374D01*
X46464285Y5328374D02*
X46464285Y4899802D01*
X46464285Y4899802D02*
X46392857Y4756945D01*
X46392857Y4756945D02*
X46321428Y4685516D01*
X46321428Y4685516D02*
X46178571Y4614088D01*
X46178571Y4614088D02*
X45964285Y4614088D01*
X47107142Y5614088D02*
X47107142Y4614088D01*
X47107142Y5471231D02*
X47178571Y5542659D01*
X47178571Y5542659D02*
X47321428Y5614088D01*
X47321428Y5614088D02*
X47535714Y5614088D01*
X47535714Y5614088D02*
X47678571Y5542659D01*
X47678571Y5542659D02*
X47750000Y5399802D01*
X47750000Y5399802D02*
X47750000Y4614088D01*
X34214285Y2342029D02*
X34142857Y2270600D01*
X34142857Y2270600D02*
X33928571Y2199172D01*
X33928571Y2199172D02*
X33785714Y2199172D01*
X33785714Y2199172D02*
X33571428Y2270600D01*
X33571428Y2270600D02*
X33428571Y2413458D01*
X33428571Y2413458D02*
X33357142Y2556315D01*
X33357142Y2556315D02*
X33285714Y2842029D01*
X33285714Y2842029D02*
X33285714Y3056315D01*
X33285714Y3056315D02*
X33357142Y3342029D01*
X33357142Y3342029D02*
X33428571Y3484886D01*
X33428571Y3484886D02*
X33571428Y3627743D01*
X33571428Y3627743D02*
X33785714Y3699172D01*
X33785714Y3699172D02*
X33928571Y3699172D01*
X33928571Y3699172D02*
X34142857Y3627743D01*
X34142857Y3627743D02*
X34214285Y3556315D01*
X35071428Y2199172D02*
X34928571Y2270600D01*
X34928571Y2270600D02*
X34857142Y2342029D01*
X34857142Y2342029D02*
X34785714Y2484886D01*
X34785714Y2484886D02*
X34785714Y2913458D01*
X34785714Y2913458D02*
X34857142Y3056315D01*
X34857142Y3056315D02*
X34928571Y3127743D01*
X34928571Y3127743D02*
X35071428Y3199172D01*
X35071428Y3199172D02*
X35285714Y3199172D01*
X35285714Y3199172D02*
X35428571Y3127743D01*
X35428571Y3127743D02*
X35500000Y3056315D01*
X35500000Y3056315D02*
X35571428Y2913458D01*
X35571428Y2913458D02*
X35571428Y2484886D01*
X35571428Y2484886D02*
X35500000Y2342029D01*
X35500000Y2342029D02*
X35428571Y2270600D01*
X35428571Y2270600D02*
X35285714Y2199172D01*
X35285714Y2199172D02*
X35071428Y2199172D01*
X36214285Y3199172D02*
X36214285Y2199172D01*
X36214285Y3056315D02*
X36285714Y3127743D01*
X36285714Y3127743D02*
X36428571Y3199172D01*
X36428571Y3199172D02*
X36642857Y3199172D01*
X36642857Y3199172D02*
X36785714Y3127743D01*
X36785714Y3127743D02*
X36857143Y2984886D01*
X36857143Y2984886D02*
X36857143Y2199172D01*
X37571428Y3199172D02*
X37571428Y2199172D01*
X37571428Y3056315D02*
X37642857Y3127743D01*
X37642857Y3127743D02*
X37785714Y3199172D01*
X37785714Y3199172D02*
X38000000Y3199172D01*
X38000000Y3199172D02*
X38142857Y3127743D01*
X38142857Y3127743D02*
X38214286Y2984886D01*
X38214286Y2984886D02*
X38214286Y2199172D01*
X39500000Y2270600D02*
X39357143Y2199172D01*
X39357143Y2199172D02*
X39071429Y2199172D01*
X39071429Y2199172D02*
X38928571Y2270600D01*
X38928571Y2270600D02*
X38857143Y2413458D01*
X38857143Y2413458D02*
X38857143Y2984886D01*
X38857143Y2984886D02*
X38928571Y3127743D01*
X38928571Y3127743D02*
X39071429Y3199172D01*
X39071429Y3199172D02*
X39357143Y3199172D01*
X39357143Y3199172D02*
X39500000Y3127743D01*
X39500000Y3127743D02*
X39571429Y2984886D01*
X39571429Y2984886D02*
X39571429Y2842029D01*
X39571429Y2842029D02*
X38857143Y2699172D01*
X40857143Y2270600D02*
X40714285Y2199172D01*
X40714285Y2199172D02*
X40428571Y2199172D01*
X40428571Y2199172D02*
X40285714Y2270600D01*
X40285714Y2270600D02*
X40214285Y2342029D01*
X40214285Y2342029D02*
X40142857Y2484886D01*
X40142857Y2484886D02*
X40142857Y2913458D01*
X40142857Y2913458D02*
X40214285Y3056315D01*
X40214285Y3056315D02*
X40285714Y3127743D01*
X40285714Y3127743D02*
X40428571Y3199172D01*
X40428571Y3199172D02*
X40714285Y3199172D01*
X40714285Y3199172D02*
X40857143Y3127743D01*
X41285714Y3199172D02*
X41857142Y3199172D01*
X41499999Y3699172D02*
X41499999Y2413458D01*
X41499999Y2413458D02*
X41571428Y2270600D01*
X41571428Y2270600D02*
X41714285Y2199172D01*
X41714285Y2199172D02*
X41857142Y2199172D01*
X21571428Y25042659D02*
X22285714Y25042659D01*
X21428571Y24614088D02*
X21928571Y26114088D01*
X21928571Y26114088D02*
X22428571Y24614088D01*
X23571428Y24685516D02*
X23428570Y24614088D01*
X23428570Y24614088D02*
X23142856Y24614088D01*
X23142856Y24614088D02*
X22999999Y24685516D01*
X22999999Y24685516D02*
X22928570Y24756945D01*
X22928570Y24756945D02*
X22857142Y24899802D01*
X22857142Y24899802D02*
X22857142Y25328374D01*
X22857142Y25328374D02*
X22928570Y25471231D01*
X22928570Y25471231D02*
X22999999Y25542659D01*
X22999999Y25542659D02*
X23142856Y25614088D01*
X23142856Y25614088D02*
X23428570Y25614088D01*
X23428570Y25614088D02*
X23571428Y25542659D01*
X23999999Y25614088D02*
X24571427Y25614088D01*
X24214284Y26114088D02*
X24214284Y24828374D01*
X24214284Y24828374D02*
X24285713Y24685516D01*
X24285713Y24685516D02*
X24428570Y24614088D01*
X24428570Y24614088D02*
X24571427Y24614088D01*
X25071427Y24614088D02*
X25071427Y25614088D01*
X25071427Y26114088D02*
X24999999Y26042659D01*
X24999999Y26042659D02*
X25071427Y25971231D01*
X25071427Y25971231D02*
X25142856Y26042659D01*
X25142856Y26042659D02*
X25071427Y26114088D01*
X25071427Y26114088D02*
X25071427Y25971231D01*
X25642856Y25614088D02*
X25999999Y24614088D01*
X25999999Y24614088D02*
X26357142Y25614088D01*
X27571428Y24614088D02*
X27571428Y25399802D01*
X27571428Y25399802D02*
X27499999Y25542659D01*
X27499999Y25542659D02*
X27357142Y25614088D01*
X27357142Y25614088D02*
X27071428Y25614088D01*
X27071428Y25614088D02*
X26928570Y25542659D01*
X27571428Y24685516D02*
X27428570Y24614088D01*
X27428570Y24614088D02*
X27071428Y24614088D01*
X27071428Y24614088D02*
X26928570Y24685516D01*
X26928570Y24685516D02*
X26857142Y24828374D01*
X26857142Y24828374D02*
X26857142Y24971231D01*
X26857142Y24971231D02*
X26928570Y25114088D01*
X26928570Y25114088D02*
X27071428Y25185516D01*
X27071428Y25185516D02*
X27428570Y25185516D01*
X27428570Y25185516D02*
X27571428Y25256945D01*
X28071428Y25614088D02*
X28642856Y25614088D01*
X28285713Y26114088D02*
X28285713Y24828374D01*
X28285713Y24828374D02*
X28357142Y24685516D01*
X28357142Y24685516D02*
X28499999Y24614088D01*
X28499999Y24614088D02*
X28642856Y24614088D01*
X29142856Y24614088D02*
X29142856Y25614088D01*
X29142856Y26114088D02*
X29071428Y26042659D01*
X29071428Y26042659D02*
X29142856Y25971231D01*
X29142856Y25971231D02*
X29214285Y26042659D01*
X29214285Y26042659D02*
X29142856Y26114088D01*
X29142856Y26114088D02*
X29142856Y25971231D01*
X30071428Y24614088D02*
X29928571Y24685516D01*
X29928571Y24685516D02*
X29857142Y24756945D01*
X29857142Y24756945D02*
X29785714Y24899802D01*
X29785714Y24899802D02*
X29785714Y25328374D01*
X29785714Y25328374D02*
X29857142Y25471231D01*
X29857142Y25471231D02*
X29928571Y25542659D01*
X29928571Y25542659D02*
X30071428Y25614088D01*
X30071428Y25614088D02*
X30285714Y25614088D01*
X30285714Y25614088D02*
X30428571Y25542659D01*
X30428571Y25542659D02*
X30500000Y25471231D01*
X30500000Y25471231D02*
X30571428Y25328374D01*
X30571428Y25328374D02*
X30571428Y24899802D01*
X30571428Y24899802D02*
X30500000Y24756945D01*
X30500000Y24756945D02*
X30428571Y24685516D01*
X30428571Y24685516D02*
X30285714Y24614088D01*
X30285714Y24614088D02*
X30071428Y24614088D01*
X31214285Y25614088D02*
X31214285Y24614088D01*
X31214285Y25471231D02*
X31285714Y25542659D01*
X31285714Y25542659D02*
X31428571Y25614088D01*
X31428571Y25614088D02*
X31642857Y25614088D01*
X31642857Y25614088D02*
X31785714Y25542659D01*
X31785714Y25542659D02*
X31857143Y25399802D01*
X31857143Y25399802D02*
X31857143Y24614088D01*
X23500000Y22270600D02*
X23714286Y22199172D01*
X23714286Y22199172D02*
X24071428Y22199172D01*
X24071428Y22199172D02*
X24214286Y22270600D01*
X24214286Y22270600D02*
X24285714Y22342029D01*
X24285714Y22342029D02*
X24357143Y22484886D01*
X24357143Y22484886D02*
X24357143Y22627743D01*
X24357143Y22627743D02*
X24285714Y22770600D01*
X24285714Y22770600D02*
X24214286Y22842029D01*
X24214286Y22842029D02*
X24071428Y22913458D01*
X24071428Y22913458D02*
X23785714Y22984886D01*
X23785714Y22984886D02*
X23642857Y23056315D01*
X23642857Y23056315D02*
X23571428Y23127743D01*
X23571428Y23127743D02*
X23500000Y23270600D01*
X23500000Y23270600D02*
X23500000Y23413458D01*
X23500000Y23413458D02*
X23571428Y23556315D01*
X23571428Y23556315D02*
X23642857Y23627743D01*
X23642857Y23627743D02*
X23785714Y23699172D01*
X23785714Y23699172D02*
X24142857Y23699172D01*
X24142857Y23699172D02*
X24357143Y23627743D01*
X24785714Y23199172D02*
X25357142Y23199172D01*
X24999999Y23699172D02*
X24999999Y22413458D01*
X24999999Y22413458D02*
X25071428Y22270600D01*
X25071428Y22270600D02*
X25214285Y22199172D01*
X25214285Y22199172D02*
X25357142Y22199172D01*
X26500000Y22199172D02*
X26500000Y22984886D01*
X26500000Y22984886D02*
X26428571Y23127743D01*
X26428571Y23127743D02*
X26285714Y23199172D01*
X26285714Y23199172D02*
X26000000Y23199172D01*
X26000000Y23199172D02*
X25857142Y23127743D01*
X26500000Y22270600D02*
X26357142Y22199172D01*
X26357142Y22199172D02*
X26000000Y22199172D01*
X26000000Y22199172D02*
X25857142Y22270600D01*
X25857142Y22270600D02*
X25785714Y22413458D01*
X25785714Y22413458D02*
X25785714Y22556315D01*
X25785714Y22556315D02*
X25857142Y22699172D01*
X25857142Y22699172D02*
X26000000Y22770600D01*
X26000000Y22770600D02*
X26357142Y22770600D01*
X26357142Y22770600D02*
X26500000Y22842029D01*
X27000000Y23199172D02*
X27571428Y23199172D01*
X27214285Y23699172D02*
X27214285Y22413458D01*
X27214285Y22413458D02*
X27285714Y22270600D01*
X27285714Y22270600D02*
X27428571Y22199172D01*
X27428571Y22199172D02*
X27571428Y22199172D01*
X28714286Y23199172D02*
X28714286Y22199172D01*
X28071428Y23199172D02*
X28071428Y22413458D01*
X28071428Y22413458D02*
X28142857Y22270600D01*
X28142857Y22270600D02*
X28285714Y22199172D01*
X28285714Y22199172D02*
X28500000Y22199172D01*
X28500000Y22199172D02*
X28642857Y22270600D01*
X28642857Y22270600D02*
X28714286Y22342029D01*
X29357143Y22270600D02*
X29500000Y22199172D01*
X29500000Y22199172D02*
X29785714Y22199172D01*
X29785714Y22199172D02*
X29928571Y22270600D01*
X29928571Y22270600D02*
X30000000Y22413458D01*
X30000000Y22413458D02*
X30000000Y22484886D01*
X30000000Y22484886D02*
X29928571Y22627743D01*
X29928571Y22627743D02*
X29785714Y22699172D01*
X29785714Y22699172D02*
X29571429Y22699172D01*
X29571429Y22699172D02*
X29428571Y22770600D01*
X29428571Y22770600D02*
X29357143Y22913458D01*
X29357143Y22913458D02*
X29357143Y22984886D01*
X29357143Y22984886D02*
X29428571Y23127743D01*
X29428571Y23127743D02*
X29571429Y23199172D01*
X29571429Y23199172D02*
X29785714Y23199172D01*
X29785714Y23199172D02*
X29928571Y23127743D01*
D11*
G36*
X81068699Y74310431D02*
G01*
X80803562Y74309159D01*
X80935358Y74707503D01*
X81068699Y74310431D01*
G37*
G36*
X82102756Y69770762D02*
G01*
X79771386Y69770762D01*
X79771386Y71889810D01*
X80209899Y71889810D01*
X80213025Y71734095D01*
X80211862Y71730603D01*
X80213581Y71706406D01*
X80214703Y71650561D01*
X80218140Y71642263D01*
X80218777Y71633303D01*
X80236292Y71587531D01*
X80336462Y71396057D01*
X80347270Y71369966D01*
X80355110Y71360412D01*
X80357639Y71355579D01*
X80362626Y71351254D01*
X80378360Y71332081D01*
X80481008Y71234672D01*
X80497095Y71216123D01*
X80507370Y71209655D01*
X80511483Y71205752D01*
X80517585Y71203225D01*
X80538571Y71190014D01*
X80717475Y71104628D01*
X80734066Y71092335D01*
X80770528Y71079307D01*
X80774819Y71077259D01*
X80776617Y71077132D01*
X80780217Y71075845D01*
X81119773Y70994873D01*
X81259861Y70928013D01*
X81300194Y70889738D01*
X81353861Y70787157D01*
X81355337Y70713628D01*
X81307624Y70613655D01*
X81269351Y70573324D01*
X81167939Y70520270D01*
X80796577Y70516871D01*
X80491167Y70614037D01*
X80393867Y70607122D01*
X80306621Y70563499D01*
X80242709Y70489808D01*
X80211862Y70397268D01*
X80218777Y70299968D01*
X80262400Y70212722D01*
X80336091Y70148810D01*
X80380842Y70128829D01*
X80668440Y70037330D01*
X80696840Y70025566D01*
X80709260Y70024343D01*
X80714345Y70022725D01*
X80720931Y70023194D01*
X80745613Y70020762D01*
X81184378Y70024778D01*
X81190535Y70022725D01*
X81224588Y70025146D01*
X81270577Y70025566D01*
X81278875Y70029004D01*
X81287835Y70029640D01*
X81333607Y70047155D01*
X81525077Y70147324D01*
X81551173Y70158133D01*
X81560728Y70165975D01*
X81565559Y70168502D01*
X81569883Y70173488D01*
X81589058Y70189224D01*
X81686467Y70291873D01*
X81705016Y70307960D01*
X81711484Y70318236D01*
X81715387Y70322348D01*
X81717914Y70328451D01*
X81731125Y70349436D01*
X81807716Y70509916D01*
X81810623Y70512822D01*
X81820605Y70536922D01*
X81843878Y70585684D01*
X81844514Y70594644D01*
X81847952Y70602942D01*
X81852756Y70651715D01*
X81849629Y70807431D01*
X81850793Y70810922D01*
X81849073Y70835120D01*
X81847952Y70890964D01*
X81844514Y70899263D01*
X81843878Y70908222D01*
X81826363Y70953994D01*
X81726195Y71145462D01*
X81715386Y71171559D01*
X81707542Y71181117D01*
X81705016Y71185946D01*
X81700030Y71190270D01*
X81684295Y71209444D01*
X81581651Y71306849D01*
X81565559Y71325403D01*
X81555279Y71331874D01*
X81551172Y71335772D01*
X81545077Y71338297D01*
X81524084Y71351512D01*
X81345178Y71436897D01*
X81328589Y71449189D01*
X81292125Y71462218D01*
X81287835Y71464265D01*
X81286036Y71464393D01*
X81282437Y71465679D01*
X80942880Y71546653D01*
X80802793Y71613512D01*
X80762460Y71651787D01*
X80708793Y71754369D01*
X80707317Y71827899D01*
X80755029Y71927868D01*
X80793304Y71968201D01*
X80894715Y72021255D01*
X81266077Y72024654D01*
X81571488Y71927487D01*
X81668788Y71934402D01*
X81756034Y71978025D01*
X81819946Y72051716D01*
X81850793Y72144256D01*
X81843878Y72241556D01*
X81800255Y72328802D01*
X81726564Y72392714D01*
X81681813Y72412695D01*
X81394214Y72504195D01*
X81365815Y72515958D01*
X81353394Y72517182D01*
X81348310Y72518799D01*
X81341723Y72518331D01*
X81317042Y72520762D01*
X80878276Y72516747D01*
X80872120Y72518799D01*
X80838066Y72516379D01*
X80792078Y72515958D01*
X80783779Y72512521D01*
X80774820Y72511884D01*
X80729048Y72494369D01*
X80537580Y72394202D01*
X80511483Y72383392D01*
X80501925Y72375549D01*
X80497096Y72373022D01*
X80492772Y72368037D01*
X80473598Y72352301D01*
X80376193Y72249658D01*
X80357639Y72233565D01*
X80351168Y72223286D01*
X80347270Y72219178D01*
X80344745Y72213084D01*
X80331530Y72192090D01*
X80254938Y72031610D01*
X80252032Y72028703D01*
X80242050Y72004605D01*
X80218777Y71955841D01*
X80218140Y71946882D01*
X80214703Y71938583D01*
X80209899Y71889810D01*
X79771386Y71889810D01*
X79771386Y73521918D01*
X80021386Y73521918D01*
X80028301Y73424618D01*
X80071924Y73337372D01*
X80145615Y73273460D01*
X80238155Y73242613D01*
X80335455Y73249528D01*
X80422701Y73293151D01*
X80486613Y73366842D01*
X80506594Y73411593D01*
X80639383Y73812941D01*
X81234802Y73815798D01*
X81385566Y73366842D01*
X81449478Y73293151D01*
X81536724Y73249528D01*
X81634024Y73242613D01*
X81726564Y73273460D01*
X81800255Y73337372D01*
X81843878Y73424618D01*
X81850793Y73521918D01*
X81839927Y73569707D01*
X81178427Y75539571D01*
X81177211Y75556682D01*
X81163415Y75584274D01*
X81153279Y75614458D01*
X81141576Y75627952D01*
X81133588Y75643928D01*
X81109906Y75664468D01*
X81089367Y75688149D01*
X81073390Y75696138D01*
X81059897Y75707840D01*
X81030160Y75717753D01*
X81002121Y75731772D01*
X80984302Y75733039D01*
X80967357Y75738687D01*
X80936089Y75736465D01*
X80904821Y75738687D01*
X80887875Y75733039D01*
X80870057Y75731772D01*
X80842017Y75717753D01*
X80812281Y75707840D01*
X80798787Y75696138D01*
X80782811Y75688149D01*
X80762271Y75664468D01*
X80738590Y75643928D01*
X80730601Y75627952D01*
X80718899Y75614458D01*
X80698918Y75569707D01*
X80222345Y74129302D01*
X80214703Y74110852D01*
X80214703Y74106204D01*
X80021386Y73521918D01*
X79771386Y73521918D01*
X79771386Y78329586D01*
X80209899Y78329586D01*
X80213025Y78173871D01*
X80211862Y78170379D01*
X80213581Y78146182D01*
X80214703Y78090337D01*
X80218140Y78082039D01*
X80218777Y78073079D01*
X80236292Y78027307D01*
X80336462Y77835833D01*
X80347270Y77809742D01*
X80355110Y77800188D01*
X80357639Y77795355D01*
X80362626Y77791030D01*
X80378360Y77771857D01*
X80481008Y77674448D01*
X80497095Y77655899D01*
X80507370Y77649431D01*
X80511483Y77645528D01*
X80517585Y77643001D01*
X80538571Y77629790D01*
X80717475Y77544404D01*
X80734066Y77532111D01*
X80770528Y77519083D01*
X80774819Y77517035D01*
X80776617Y77516908D01*
X80780217Y77515621D01*
X81119773Y77434649D01*
X81259861Y77367789D01*
X81300194Y77329514D01*
X81353861Y77226933D01*
X81355337Y77153404D01*
X81307624Y77053431D01*
X81269351Y77013100D01*
X81167939Y76960046D01*
X80796577Y76956647D01*
X80491167Y77053813D01*
X80393867Y77046898D01*
X80306621Y77003275D01*
X80242709Y76929584D01*
X80211862Y76837044D01*
X80218777Y76739744D01*
X80262400Y76652498D01*
X80336091Y76588586D01*
X80380842Y76568605D01*
X80668440Y76477106D01*
X80696840Y76465342D01*
X80709260Y76464119D01*
X80714345Y76462501D01*
X80720931Y76462970D01*
X80745613Y76460538D01*
X81184378Y76464554D01*
X81190535Y76462501D01*
X81224588Y76464922D01*
X81270577Y76465342D01*
X81278875Y76468780D01*
X81287835Y76469416D01*
X81333607Y76486931D01*
X81525077Y76587100D01*
X81551173Y76597909D01*
X81560728Y76605751D01*
X81565559Y76608278D01*
X81569883Y76613264D01*
X81589058Y76629000D01*
X81686467Y76731649D01*
X81705016Y76747736D01*
X81711484Y76758012D01*
X81715387Y76762124D01*
X81717914Y76768227D01*
X81731125Y76789212D01*
X81807716Y76949692D01*
X81810623Y76952598D01*
X81820605Y76976698D01*
X81843878Y77025460D01*
X81844514Y77034420D01*
X81847952Y77042718D01*
X81852756Y77091491D01*
X81849629Y77247207D01*
X81850793Y77250698D01*
X81849073Y77274896D01*
X81847952Y77330740D01*
X81844514Y77339039D01*
X81843878Y77347998D01*
X81826363Y77393770D01*
X81726195Y77585238D01*
X81715386Y77611335D01*
X81707542Y77620893D01*
X81705016Y77625722D01*
X81700030Y77630046D01*
X81684295Y77649220D01*
X81581651Y77746625D01*
X81565559Y77765179D01*
X81555279Y77771650D01*
X81551172Y77775548D01*
X81545077Y77778073D01*
X81524084Y77791288D01*
X81345178Y77876673D01*
X81328589Y77888965D01*
X81292125Y77901994D01*
X81287835Y77904041D01*
X81286036Y77904169D01*
X81282437Y77905455D01*
X80942880Y77986429D01*
X80802793Y78053288D01*
X80762460Y78091563D01*
X80708793Y78194145D01*
X80707317Y78267675D01*
X80755029Y78367644D01*
X80793304Y78407977D01*
X80894715Y78461031D01*
X81266077Y78464430D01*
X81571488Y78367263D01*
X81668788Y78374178D01*
X81756034Y78417801D01*
X81819946Y78491492D01*
X81850793Y78584032D01*
X81843878Y78681332D01*
X81800255Y78768578D01*
X81726564Y78832490D01*
X81681813Y78852471D01*
X81394214Y78943971D01*
X81365815Y78955734D01*
X81353394Y78956958D01*
X81348310Y78958575D01*
X81341723Y78958107D01*
X81317042Y78960538D01*
X80878276Y78956523D01*
X80872120Y78958575D01*
X80838066Y78956155D01*
X80792078Y78955734D01*
X80783779Y78952297D01*
X80774820Y78951660D01*
X80729048Y78934145D01*
X80537580Y78833978D01*
X80511483Y78823168D01*
X80501925Y78815325D01*
X80497096Y78812798D01*
X80492772Y78807813D01*
X80473598Y78792077D01*
X80376193Y78689434D01*
X80357639Y78673341D01*
X80351168Y78663062D01*
X80347270Y78658954D01*
X80344745Y78652860D01*
X80331530Y78631866D01*
X80254938Y78471386D01*
X80252032Y78468479D01*
X80242050Y78444381D01*
X80218777Y78395617D01*
X80218140Y78386658D01*
X80214703Y78378359D01*
X80209899Y78329586D01*
X79771386Y78329586D01*
X79771386Y81930426D01*
X80305137Y81930426D01*
X80309941Y79881653D01*
X80347270Y79791533D01*
X80416244Y79722559D01*
X80506364Y79685230D01*
X80603910Y79685230D01*
X80694030Y79722559D01*
X80763004Y79791533D01*
X80800333Y79881653D01*
X80805137Y79930426D01*
X80800333Y81979199D01*
X80763004Y82069319D01*
X80694030Y82138293D01*
X80603910Y82175622D01*
X80506364Y82175622D01*
X80416244Y82138293D01*
X80347270Y82069319D01*
X80309941Y81979199D01*
X80305137Y81930426D01*
X79771386Y81930426D01*
X79771386Y82425622D01*
X82102756Y82425622D01*
X82102756Y69770762D01*
G37*
D10*
X13761653Y14614088D02*
X13261653Y15328374D01*
X12904510Y14614088D02*
X12904510Y16114088D01*
X12904510Y16114088D02*
X13475939Y16114088D01*
X13475939Y16114088D02*
X13618796Y16042659D01*
X13618796Y16042659D02*
X13690225Y15971231D01*
X13690225Y15971231D02*
X13761653Y15828374D01*
X13761653Y15828374D02*
X13761653Y15614088D01*
X13761653Y15614088D02*
X13690225Y15471231D01*
X13690225Y15471231D02*
X13618796Y15399802D01*
X13618796Y15399802D02*
X13475939Y15328374D01*
X13475939Y15328374D02*
X12904510Y15328374D01*
X14975939Y14685516D02*
X14833082Y14614088D01*
X14833082Y14614088D02*
X14547368Y14614088D01*
X14547368Y14614088D02*
X14404510Y14685516D01*
X14404510Y14685516D02*
X14333082Y14828374D01*
X14333082Y14828374D02*
X14333082Y15399802D01*
X14333082Y15399802D02*
X14404510Y15542659D01*
X14404510Y15542659D02*
X14547368Y15614088D01*
X14547368Y15614088D02*
X14833082Y15614088D01*
X14833082Y15614088D02*
X14975939Y15542659D01*
X14975939Y15542659D02*
X15047368Y15399802D01*
X15047368Y15399802D02*
X15047368Y15256945D01*
X15047368Y15256945D02*
X14333082Y15114088D01*
X15618796Y14685516D02*
X15761653Y14614088D01*
X15761653Y14614088D02*
X16047367Y14614088D01*
X16047367Y14614088D02*
X16190224Y14685516D01*
X16190224Y14685516D02*
X16261653Y14828374D01*
X16261653Y14828374D02*
X16261653Y14899802D01*
X16261653Y14899802D02*
X16190224Y15042659D01*
X16190224Y15042659D02*
X16047367Y15114088D01*
X16047367Y15114088D02*
X15833082Y15114088D01*
X15833082Y15114088D02*
X15690224Y15185516D01*
X15690224Y15185516D02*
X15618796Y15328374D01*
X15618796Y15328374D02*
X15618796Y15399802D01*
X15618796Y15399802D02*
X15690224Y15542659D01*
X15690224Y15542659D02*
X15833082Y15614088D01*
X15833082Y15614088D02*
X16047367Y15614088D01*
X16047367Y15614088D02*
X16190224Y15542659D01*
X17475939Y14685516D02*
X17333082Y14614088D01*
X17333082Y14614088D02*
X17047368Y14614088D01*
X17047368Y14614088D02*
X16904510Y14685516D01*
X16904510Y14685516D02*
X16833082Y14828374D01*
X16833082Y14828374D02*
X16833082Y15399802D01*
X16833082Y15399802D02*
X16904510Y15542659D01*
X16904510Y15542659D02*
X17047368Y15614088D01*
X17047368Y15614088D02*
X17333082Y15614088D01*
X17333082Y15614088D02*
X17475939Y15542659D01*
X17475939Y15542659D02*
X17547368Y15399802D01*
X17547368Y15399802D02*
X17547368Y15256945D01*
X17547368Y15256945D02*
X16833082Y15114088D01*
X17975939Y15614088D02*
X18547367Y15614088D01*
X18190224Y16114088D02*
X18190224Y14828374D01*
X18190224Y14828374D02*
X18261653Y14685516D01*
X18261653Y14685516D02*
X18404510Y14614088D01*
X18404510Y14614088D02*
X18547367Y14614088D01*
X12833082Y12270600D02*
X13047368Y12199172D01*
X13047368Y12199172D02*
X13404510Y12199172D01*
X13404510Y12199172D02*
X13547368Y12270600D01*
X13547368Y12270600D02*
X13618796Y12342029D01*
X13618796Y12342029D02*
X13690225Y12484886D01*
X13690225Y12484886D02*
X13690225Y12627743D01*
X13690225Y12627743D02*
X13618796Y12770600D01*
X13618796Y12770600D02*
X13547368Y12842029D01*
X13547368Y12842029D02*
X13404510Y12913458D01*
X13404510Y12913458D02*
X13118796Y12984886D01*
X13118796Y12984886D02*
X12975939Y13056315D01*
X12975939Y13056315D02*
X12904510Y13127743D01*
X12904510Y13127743D02*
X12833082Y13270600D01*
X12833082Y13270600D02*
X12833082Y13413458D01*
X12833082Y13413458D02*
X12904510Y13556315D01*
X12904510Y13556315D02*
X12975939Y13627743D01*
X12975939Y13627743D02*
X13118796Y13699172D01*
X13118796Y13699172D02*
X13475939Y13699172D01*
X13475939Y13699172D02*
X13690225Y13627743D01*
X14190224Y13199172D02*
X14475939Y12199172D01*
X14475939Y12199172D02*
X14761653Y12913458D01*
X14761653Y12913458D02*
X15047367Y12199172D01*
X15047367Y12199172D02*
X15333081Y13199172D01*
X15904510Y12199172D02*
X15904510Y13199172D01*
X15904510Y13699172D02*
X15833082Y13627743D01*
X15833082Y13627743D02*
X15904510Y13556315D01*
X15904510Y13556315D02*
X15975939Y13627743D01*
X15975939Y13627743D02*
X15904510Y13699172D01*
X15904510Y13699172D02*
X15904510Y13556315D01*
X16404511Y13199172D02*
X16975939Y13199172D01*
X16618796Y13699172D02*
X16618796Y12413458D01*
X16618796Y12413458D02*
X16690225Y12270600D01*
X16690225Y12270600D02*
X16833082Y12199172D01*
X16833082Y12199172D02*
X16975939Y12199172D01*
X18118797Y12270600D02*
X17975939Y12199172D01*
X17975939Y12199172D02*
X17690225Y12199172D01*
X17690225Y12199172D02*
X17547368Y12270600D01*
X17547368Y12270600D02*
X17475939Y12342029D01*
X17475939Y12342029D02*
X17404511Y12484886D01*
X17404511Y12484886D02*
X17404511Y12913458D01*
X17404511Y12913458D02*
X17475939Y13056315D01*
X17475939Y13056315D02*
X17547368Y13127743D01*
X17547368Y13127743D02*
X17690225Y13199172D01*
X17690225Y13199172D02*
X17975939Y13199172D01*
X17975939Y13199172D02*
X18118797Y13127743D01*
X18761653Y12199172D02*
X18761653Y13699172D01*
X19404511Y12199172D02*
X19404511Y12984886D01*
X19404511Y12984886D02*
X19333082Y13127743D01*
X19333082Y13127743D02*
X19190225Y13199172D01*
X19190225Y13199172D02*
X18975939Y13199172D01*
X18975939Y13199172D02*
X18833082Y13127743D01*
X18833082Y13127743D02*
X18761653Y13056315D01*
X26897725Y59627743D02*
X26754868Y59699172D01*
X26754868Y59699172D02*
X26540582Y59699172D01*
X26540582Y59699172D02*
X26326296Y59627743D01*
X26326296Y59627743D02*
X26183439Y59484886D01*
X26183439Y59484886D02*
X26112010Y59342029D01*
X26112010Y59342029D02*
X26040582Y59056315D01*
X26040582Y59056315D02*
X26040582Y58842029D01*
X26040582Y58842029D02*
X26112010Y58556315D01*
X26112010Y58556315D02*
X26183439Y58413458D01*
X26183439Y58413458D02*
X26326296Y58270600D01*
X26326296Y58270600D02*
X26540582Y58199172D01*
X26540582Y58199172D02*
X26683439Y58199172D01*
X26683439Y58199172D02*
X26897725Y58270600D01*
X26897725Y58270600D02*
X26969153Y58342029D01*
X26969153Y58342029D02*
X26969153Y58842029D01*
X26969153Y58842029D02*
X26683439Y58842029D01*
X27540582Y58270600D02*
X27754868Y58199172D01*
X27754868Y58199172D02*
X28112010Y58199172D01*
X28112010Y58199172D02*
X28254868Y58270600D01*
X28254868Y58270600D02*
X28326296Y58342029D01*
X28326296Y58342029D02*
X28397725Y58484886D01*
X28397725Y58484886D02*
X28397725Y58627743D01*
X28397725Y58627743D02*
X28326296Y58770600D01*
X28326296Y58770600D02*
X28254868Y58842029D01*
X28254868Y58842029D02*
X28112010Y58913458D01*
X28112010Y58913458D02*
X27826296Y58984886D01*
X27826296Y58984886D02*
X27683439Y59056315D01*
X27683439Y59056315D02*
X27612010Y59127743D01*
X27612010Y59127743D02*
X27540582Y59270600D01*
X27540582Y59270600D02*
X27540582Y59413458D01*
X27540582Y59413458D02*
X27612010Y59556315D01*
X27612010Y59556315D02*
X27683439Y59627743D01*
X27683439Y59627743D02*
X27826296Y59699172D01*
X27826296Y59699172D02*
X28183439Y59699172D01*
X28183439Y59699172D02*
X28397725Y59627743D01*
X29040581Y58199172D02*
X29040581Y59699172D01*
X29040581Y59699172D02*
X29540581Y58627743D01*
X29540581Y58627743D02*
X30040581Y59699172D01*
X30040581Y59699172D02*
X30040581Y58199172D01*
X31826296Y58627743D02*
X32540582Y58627743D01*
X31683439Y58199172D02*
X32183439Y59699172D01*
X32183439Y59699172D02*
X32683439Y58199172D01*
X34040581Y58342029D02*
X33969153Y58270600D01*
X33969153Y58270600D02*
X33754867Y58199172D01*
X33754867Y58199172D02*
X33612010Y58199172D01*
X33612010Y58199172D02*
X33397724Y58270600D01*
X33397724Y58270600D02*
X33254867Y58413458D01*
X33254867Y58413458D02*
X33183438Y58556315D01*
X33183438Y58556315D02*
X33112010Y58842029D01*
X33112010Y58842029D02*
X33112010Y59056315D01*
X33112010Y59056315D02*
X33183438Y59342029D01*
X33183438Y59342029D02*
X33254867Y59484886D01*
X33254867Y59484886D02*
X33397724Y59627743D01*
X33397724Y59627743D02*
X33612010Y59699172D01*
X33612010Y59699172D02*
X33754867Y59699172D01*
X33754867Y59699172D02*
X33969153Y59627743D01*
X33969153Y59627743D02*
X34040581Y59556315D01*
X34469153Y59699172D02*
X35326296Y59699172D01*
X34897724Y58199172D02*
X34897724Y59699172D01*
X20904510Y91199172D02*
X20904510Y92699172D01*
X20904510Y92699172D02*
X21475939Y92699172D01*
X21475939Y92699172D02*
X21618796Y92627743D01*
X21618796Y92627743D02*
X21690225Y92556315D01*
X21690225Y92556315D02*
X21761653Y92413458D01*
X21761653Y92413458D02*
X21761653Y92199172D01*
X21761653Y92199172D02*
X21690225Y92056315D01*
X21690225Y92056315D02*
X21618796Y91984886D01*
X21618796Y91984886D02*
X21475939Y91913458D01*
X21475939Y91913458D02*
X20904510Y91913458D01*
X22618796Y91199172D02*
X22475939Y91270600D01*
X22475939Y91270600D02*
X22404510Y91342029D01*
X22404510Y91342029D02*
X22333082Y91484886D01*
X22333082Y91484886D02*
X22333082Y91913458D01*
X22333082Y91913458D02*
X22404510Y92056315D01*
X22404510Y92056315D02*
X22475939Y92127743D01*
X22475939Y92127743D02*
X22618796Y92199172D01*
X22618796Y92199172D02*
X22833082Y92199172D01*
X22833082Y92199172D02*
X22975939Y92127743D01*
X22975939Y92127743D02*
X23047368Y92056315D01*
X23047368Y92056315D02*
X23118796Y91913458D01*
X23118796Y91913458D02*
X23118796Y91484886D01*
X23118796Y91484886D02*
X23047368Y91342029D01*
X23047368Y91342029D02*
X22975939Y91270600D01*
X22975939Y91270600D02*
X22833082Y91199172D01*
X22833082Y91199172D02*
X22618796Y91199172D01*
X23618796Y92199172D02*
X23904511Y91199172D01*
X23904511Y91199172D02*
X24190225Y91913458D01*
X24190225Y91913458D02*
X24475939Y91199172D01*
X24475939Y91199172D02*
X24761653Y92199172D01*
X25904511Y91270600D02*
X25761654Y91199172D01*
X25761654Y91199172D02*
X25475940Y91199172D01*
X25475940Y91199172D02*
X25333082Y91270600D01*
X25333082Y91270600D02*
X25261654Y91413458D01*
X25261654Y91413458D02*
X25261654Y91984886D01*
X25261654Y91984886D02*
X25333082Y92127743D01*
X25333082Y92127743D02*
X25475940Y92199172D01*
X25475940Y92199172D02*
X25761654Y92199172D01*
X25761654Y92199172D02*
X25904511Y92127743D01*
X25904511Y92127743D02*
X25975940Y91984886D01*
X25975940Y91984886D02*
X25975940Y91842029D01*
X25975940Y91842029D02*
X25261654Y91699172D01*
X26618796Y91199172D02*
X26618796Y92199172D01*
X26618796Y91913458D02*
X26690225Y92056315D01*
X26690225Y92056315D02*
X26761654Y92127743D01*
X26761654Y92127743D02*
X26904511Y92199172D01*
X26904511Y92199172D02*
X27047368Y92199172D01*
X28690224Y91199172D02*
X28690224Y92699172D01*
X29404510Y92199172D02*
X29404510Y91199172D01*
X29404510Y92056315D02*
X29475939Y92127743D01*
X29475939Y92127743D02*
X29618796Y92199172D01*
X29618796Y92199172D02*
X29833082Y92199172D01*
X29833082Y92199172D02*
X29975939Y92127743D01*
X29975939Y92127743D02*
X30047368Y91984886D01*
X30047368Y91984886D02*
X30047368Y91199172D01*
X31404511Y91199172D02*
X31404511Y92699172D01*
X31404511Y91270600D02*
X31261653Y91199172D01*
X31261653Y91199172D02*
X30975939Y91199172D01*
X30975939Y91199172D02*
X30833082Y91270600D01*
X30833082Y91270600D02*
X30761653Y91342029D01*
X30761653Y91342029D02*
X30690225Y91484886D01*
X30690225Y91484886D02*
X30690225Y91913458D01*
X30690225Y91913458D02*
X30761653Y92056315D01*
X30761653Y92056315D02*
X30833082Y92127743D01*
X30833082Y92127743D02*
X30975939Y92199172D01*
X30975939Y92199172D02*
X31261653Y92199172D01*
X31261653Y92199172D02*
X31404511Y92127743D01*
X32118796Y91199172D02*
X32118796Y92199172D01*
X32118796Y92699172D02*
X32047368Y92627743D01*
X32047368Y92627743D02*
X32118796Y92556315D01*
X32118796Y92556315D02*
X32190225Y92627743D01*
X32190225Y92627743D02*
X32118796Y92699172D01*
X32118796Y92699172D02*
X32118796Y92556315D01*
X33475940Y91270600D02*
X33333082Y91199172D01*
X33333082Y91199172D02*
X33047368Y91199172D01*
X33047368Y91199172D02*
X32904511Y91270600D01*
X32904511Y91270600D02*
X32833082Y91342029D01*
X32833082Y91342029D02*
X32761654Y91484886D01*
X32761654Y91484886D02*
X32761654Y91913458D01*
X32761654Y91913458D02*
X32833082Y92056315D01*
X32833082Y92056315D02*
X32904511Y92127743D01*
X32904511Y92127743D02*
X33047368Y92199172D01*
X33047368Y92199172D02*
X33333082Y92199172D01*
X33333082Y92199172D02*
X33475940Y92127743D01*
X34761654Y91199172D02*
X34761654Y91984886D01*
X34761654Y91984886D02*
X34690225Y92127743D01*
X34690225Y92127743D02*
X34547368Y92199172D01*
X34547368Y92199172D02*
X34261654Y92199172D01*
X34261654Y92199172D02*
X34118796Y92127743D01*
X34761654Y91270600D02*
X34618796Y91199172D01*
X34618796Y91199172D02*
X34261654Y91199172D01*
X34261654Y91199172D02*
X34118796Y91270600D01*
X34118796Y91270600D02*
X34047368Y91413458D01*
X34047368Y91413458D02*
X34047368Y91556315D01*
X34047368Y91556315D02*
X34118796Y91699172D01*
X34118796Y91699172D02*
X34261654Y91770600D01*
X34261654Y91770600D02*
X34618796Y91770600D01*
X34618796Y91770600D02*
X34761654Y91842029D01*
X35261654Y92199172D02*
X35833082Y92199172D01*
X35475939Y92699172D02*
X35475939Y91413458D01*
X35475939Y91413458D02*
X35547368Y91270600D01*
X35547368Y91270600D02*
X35690225Y91199172D01*
X35690225Y91199172D02*
X35833082Y91199172D01*
X36547368Y91199172D02*
X36404511Y91270600D01*
X36404511Y91270600D02*
X36333082Y91342029D01*
X36333082Y91342029D02*
X36261654Y91484886D01*
X36261654Y91484886D02*
X36261654Y91913458D01*
X36261654Y91913458D02*
X36333082Y92056315D01*
X36333082Y92056315D02*
X36404511Y92127743D01*
X36404511Y92127743D02*
X36547368Y92199172D01*
X36547368Y92199172D02*
X36761654Y92199172D01*
X36761654Y92199172D02*
X36904511Y92127743D01*
X36904511Y92127743D02*
X36975940Y92056315D01*
X36975940Y92056315D02*
X37047368Y91913458D01*
X37047368Y91913458D02*
X37047368Y91484886D01*
X37047368Y91484886D02*
X36975940Y91342029D01*
X36975940Y91342029D02*
X36904511Y91270600D01*
X36904511Y91270600D02*
X36761654Y91199172D01*
X36761654Y91199172D02*
X36547368Y91199172D01*
X37690225Y91199172D02*
X37690225Y92199172D01*
X37690225Y91913458D02*
X37761654Y92056315D01*
X37761654Y92056315D02*
X37833083Y92127743D01*
X37833083Y92127743D02*
X37975940Y92199172D01*
X37975940Y92199172D02*
X38118797Y92199172D01*
D12*
X80070331Y67628881D02*
X80070331Y68295548D01*
X80070331Y68105072D02*
X80117950Y68200310D01*
X80117950Y68200310D02*
X80165569Y68247929D01*
X80165569Y68247929D02*
X80260807Y68295548D01*
X80260807Y68295548D02*
X80356045Y68295548D01*
X81070331Y67676500D02*
X80975093Y67628881D01*
X80975093Y67628881D02*
X80784617Y67628881D01*
X80784617Y67628881D02*
X80689379Y67676500D01*
X80689379Y67676500D02*
X80641760Y67771739D01*
X80641760Y67771739D02*
X80641760Y68152691D01*
X80641760Y68152691D02*
X80689379Y68247929D01*
X80689379Y68247929D02*
X80784617Y68295548D01*
X80784617Y68295548D02*
X80975093Y68295548D01*
X80975093Y68295548D02*
X81070331Y68247929D01*
X81070331Y68247929D02*
X81117950Y68152691D01*
X81117950Y68152691D02*
X81117950Y68057453D01*
X81117950Y68057453D02*
X80641760Y67962215D01*
X81451284Y68295548D02*
X81689379Y67628881D01*
X81689379Y67628881D02*
X81927474Y68295548D01*
X83594141Y67628881D02*
X83022713Y67628881D01*
X83308427Y67628881D02*
X83308427Y68628881D01*
X83308427Y68628881D02*
X83213189Y68486024D01*
X83213189Y68486024D02*
X83117951Y68390786D01*
X83117951Y68390786D02*
X83022713Y68343167D01*
X84022713Y67724120D02*
X84070332Y67676500D01*
X84070332Y67676500D02*
X84022713Y67628881D01*
X84022713Y67628881D02*
X83975094Y67676500D01*
X83975094Y67676500D02*
X84022713Y67724120D01*
X84022713Y67724120D02*
X84022713Y67628881D01*
X84689379Y68628881D02*
X84784617Y68628881D01*
X84784617Y68628881D02*
X84879855Y68581262D01*
X84879855Y68581262D02*
X84927474Y68533643D01*
X84927474Y68533643D02*
X84975093Y68438405D01*
X84975093Y68438405D02*
X85022712Y68247929D01*
X85022712Y68247929D02*
X85022712Y68009834D01*
X85022712Y68009834D02*
X84975093Y67819358D01*
X84975093Y67819358D02*
X84927474Y67724120D01*
X84927474Y67724120D02*
X84879855Y67676500D01*
X84879855Y67676500D02*
X84784617Y67628881D01*
X84784617Y67628881D02*
X84689379Y67628881D01*
X84689379Y67628881D02*
X84594141Y67676500D01*
X84594141Y67676500D02*
X84546522Y67724120D01*
X84546522Y67724120D02*
X84498903Y67819358D01*
X84498903Y67819358D02*
X84451284Y68009834D01*
X84451284Y68009834D02*
X84451284Y68247929D01*
X84451284Y68247929D02*
X84498903Y68438405D01*
X84498903Y68438405D02*
X84546522Y68533643D01*
X84546522Y68533643D02*
X84594141Y68581262D01*
X84594141Y68581262D02*
X84689379Y68628881D01*
X86213189Y68009834D02*
X86975094Y68009834D01*
X88403665Y68628881D02*
X88498903Y68628881D01*
X88498903Y68628881D02*
X88594141Y68581262D01*
X88594141Y68581262D02*
X88641760Y68533643D01*
X88641760Y68533643D02*
X88689379Y68438405D01*
X88689379Y68438405D02*
X88736998Y68247929D01*
X88736998Y68247929D02*
X88736998Y68009834D01*
X88736998Y68009834D02*
X88689379Y67819358D01*
X88689379Y67819358D02*
X88641760Y67724120D01*
X88641760Y67724120D02*
X88594141Y67676500D01*
X88594141Y67676500D02*
X88498903Y67628881D01*
X88498903Y67628881D02*
X88403665Y67628881D01*
X88403665Y67628881D02*
X88308427Y67676500D01*
X88308427Y67676500D02*
X88260808Y67724120D01*
X88260808Y67724120D02*
X88213189Y67819358D01*
X88213189Y67819358D02*
X88165570Y68009834D01*
X88165570Y68009834D02*
X88165570Y68247929D01*
X88165570Y68247929D02*
X88213189Y68438405D01*
X88213189Y68438405D02*
X88260808Y68533643D01*
X88260808Y68533643D02*
X88308427Y68581262D01*
X88308427Y68581262D02*
X88403665Y68628881D01*
X89070332Y68628881D02*
X89689379Y68628881D01*
X89689379Y68628881D02*
X89356046Y68247929D01*
X89356046Y68247929D02*
X89498903Y68247929D01*
X89498903Y68247929D02*
X89594141Y68200310D01*
X89594141Y68200310D02*
X89641760Y68152691D01*
X89641760Y68152691D02*
X89689379Y68057453D01*
X89689379Y68057453D02*
X89689379Y67819358D01*
X89689379Y67819358D02*
X89641760Y67724120D01*
X89641760Y67724120D02*
X89594141Y67676500D01*
X89594141Y67676500D02*
X89498903Y67628881D01*
X89498903Y67628881D02*
X89213189Y67628881D01*
X89213189Y67628881D02*
X89117951Y67676500D01*
X89117951Y67676500D02*
X89070332Y67724120D01*
X90832236Y68676500D02*
X89975094Y67390786D01*
X91117951Y68533643D02*
X91165570Y68581262D01*
X91165570Y68581262D02*
X91260808Y68628881D01*
X91260808Y68628881D02*
X91498903Y68628881D01*
X91498903Y68628881D02*
X91594141Y68581262D01*
X91594141Y68581262D02*
X91641760Y68533643D01*
X91641760Y68533643D02*
X91689379Y68438405D01*
X91689379Y68438405D02*
X91689379Y68343167D01*
X91689379Y68343167D02*
X91641760Y68200310D01*
X91641760Y68200310D02*
X91070332Y67628881D01*
X91070332Y67628881D02*
X91689379Y67628881D01*
X92546522Y68295548D02*
X92546522Y67628881D01*
X92308427Y68676500D02*
X92070332Y67962215D01*
X92070332Y67962215D02*
X92689379Y67962215D01*
D11*
X82555137Y81263760D02*
X82555137Y79930426D01*
X82555137Y81073284D02*
X82650375Y81168522D01*
X82650375Y81168522D02*
X82840851Y81263760D01*
X82840851Y81263760D02*
X83126566Y81263760D01*
X83126566Y81263760D02*
X83317042Y81168522D01*
X83317042Y81168522D02*
X83412280Y80978045D01*
X83412280Y80978045D02*
X83412280Y79930426D01*
X84078947Y81263760D02*
X84840851Y81263760D01*
X84364661Y81930426D02*
X84364661Y80216141D01*
X84364661Y80216141D02*
X84459899Y80025664D01*
X84459899Y80025664D02*
X84650375Y79930426D01*
X84650375Y79930426D02*
X84840851Y79930426D01*
X86269423Y80025664D02*
X86078947Y79930426D01*
X86078947Y79930426D02*
X85697994Y79930426D01*
X85697994Y79930426D02*
X85507518Y80025664D01*
X85507518Y80025664D02*
X85412280Y80216141D01*
X85412280Y80216141D02*
X85412280Y80978045D01*
X85412280Y80978045D02*
X85507518Y81168522D01*
X85507518Y81168522D02*
X85697994Y81263760D01*
X85697994Y81263760D02*
X86078947Y81263760D01*
X86078947Y81263760D02*
X86269423Y81168522D01*
X86269423Y81168522D02*
X86364661Y80978045D01*
X86364661Y80978045D02*
X86364661Y80787569D01*
X86364661Y80787569D02*
X85412280Y80597093D01*
X87221804Y79930426D02*
X87221804Y81263760D01*
X87221804Y80882807D02*
X87317042Y81073284D01*
X87317042Y81073284D02*
X87412280Y81168522D01*
X87412280Y81168522D02*
X87602756Y81263760D01*
X87602756Y81263760D02*
X87793233Y81263760D01*
X89317042Y80025664D02*
X89126566Y79930426D01*
X89126566Y79930426D02*
X88745613Y79930426D01*
X88745613Y79930426D02*
X88555137Y80025664D01*
X88555137Y80025664D02*
X88459899Y80120903D01*
X88459899Y80120903D02*
X88364661Y80311379D01*
X88364661Y80311379D02*
X88364661Y80882807D01*
X88364661Y80882807D02*
X88459899Y81073284D01*
X88459899Y81073284D02*
X88555137Y81168522D01*
X88555137Y81168522D02*
X88745613Y81263760D01*
X88745613Y81263760D02*
X89126566Y81263760D01*
X89126566Y81263760D02*
X89317042Y81168522D01*
X90459899Y79930426D02*
X90269423Y80025664D01*
X90269423Y80025664D02*
X90174185Y80120903D01*
X90174185Y80120903D02*
X90078947Y80311379D01*
X90078947Y80311379D02*
X90078947Y80882807D01*
X90078947Y80882807D02*
X90174185Y81073284D01*
X90174185Y81073284D02*
X90269423Y81168522D01*
X90269423Y81168522D02*
X90459899Y81263760D01*
X90459899Y81263760D02*
X90745614Y81263760D01*
X90745614Y81263760D02*
X90936090Y81168522D01*
X90936090Y81168522D02*
X91031328Y81073284D01*
X91031328Y81073284D02*
X91126566Y80882807D01*
X91126566Y80882807D02*
X91126566Y80311379D01*
X91126566Y80311379D02*
X91031328Y80120903D01*
X91031328Y80120903D02*
X90936090Y80025664D01*
X90936090Y80025664D02*
X90745614Y79930426D01*
X90745614Y79930426D02*
X90459899Y79930426D01*
X91983709Y79930426D02*
X91983709Y81263760D01*
X91983709Y81073284D02*
X92078947Y81168522D01*
X92078947Y81168522D02*
X92269423Y81263760D01*
X92269423Y81263760D02*
X92555138Y81263760D01*
X92555138Y81263760D02*
X92745614Y81168522D01*
X92745614Y81168522D02*
X92840852Y80978045D01*
X92840852Y80978045D02*
X92840852Y79930426D01*
X92840852Y80978045D02*
X92936090Y81168522D01*
X92936090Y81168522D02*
X93126566Y81263760D01*
X93126566Y81263760D02*
X93412280Y81263760D01*
X93412280Y81263760D02*
X93602757Y81168522D01*
X93602757Y81168522D02*
X93697995Y80978045D01*
X93697995Y80978045D02*
X93697995Y79930426D01*
X82555137Y76710538D02*
X82555137Y78710538D01*
X82555137Y78710538D02*
X83221804Y77281967D01*
X83221804Y77281967D02*
X83888470Y78710538D01*
X83888470Y78710538D02*
X83888470Y76710538D01*
X84745613Y76805776D02*
X85031327Y76710538D01*
X85031327Y76710538D02*
X85507518Y76710538D01*
X85507518Y76710538D02*
X85697994Y76805776D01*
X85697994Y76805776D02*
X85793232Y76901015D01*
X85793232Y76901015D02*
X85888470Y77091491D01*
X85888470Y77091491D02*
X85888470Y77281967D01*
X85888470Y77281967D02*
X85793232Y77472443D01*
X85793232Y77472443D02*
X85697994Y77567681D01*
X85697994Y77567681D02*
X85507518Y77662919D01*
X85507518Y77662919D02*
X85126565Y77758157D01*
X85126565Y77758157D02*
X84936089Y77853396D01*
X84936089Y77853396D02*
X84840851Y77948634D01*
X84840851Y77948634D02*
X84745613Y78139110D01*
X84745613Y78139110D02*
X84745613Y78329586D01*
X84745613Y78329586D02*
X84840851Y78520062D01*
X84840851Y78520062D02*
X84936089Y78615300D01*
X84936089Y78615300D02*
X85126565Y78710538D01*
X85126565Y78710538D02*
X85602756Y78710538D01*
X85602756Y78710538D02*
X85888470Y78615300D01*
X82840851Y73490650D02*
X82650375Y73585888D01*
X82650375Y73585888D02*
X82555137Y73776365D01*
X82555137Y73776365D02*
X82555137Y75490650D01*
X84364661Y73585888D02*
X84174185Y73490650D01*
X84174185Y73490650D02*
X83793232Y73490650D01*
X83793232Y73490650D02*
X83602756Y73585888D01*
X83602756Y73585888D02*
X83507518Y73776365D01*
X83507518Y73776365D02*
X83507518Y74538269D01*
X83507518Y74538269D02*
X83602756Y74728746D01*
X83602756Y74728746D02*
X83793232Y74823984D01*
X83793232Y74823984D02*
X84174185Y74823984D01*
X84174185Y74823984D02*
X84364661Y74728746D01*
X84364661Y74728746D02*
X84459899Y74538269D01*
X84459899Y74538269D02*
X84459899Y74347793D01*
X84459899Y74347793D02*
X83507518Y74157317D01*
X85317042Y73490650D02*
X85317042Y74823984D01*
X85317042Y74443031D02*
X85412280Y74633508D01*
X85412280Y74633508D02*
X85507518Y74728746D01*
X85507518Y74728746D02*
X85697994Y74823984D01*
X85697994Y74823984D02*
X85888471Y74823984D01*
X86269423Y74823984D02*
X87031327Y74823984D01*
X86555137Y75490650D02*
X86555137Y73776365D01*
X86555137Y73776365D02*
X86650375Y73585888D01*
X86650375Y73585888D02*
X86840851Y73490650D01*
X86840851Y73490650D02*
X87031327Y73490650D01*
X82364661Y71604096D02*
X82840851Y70270762D01*
X83317042Y71604096D02*
X82840851Y70270762D01*
X82840851Y70270762D02*
X82650375Y69794572D01*
X82650375Y69794572D02*
X82555137Y69699334D01*
X82555137Y69699334D02*
X82364661Y69604096D01*
X83983709Y70366000D02*
X84174185Y70270762D01*
X84174185Y70270762D02*
X84555137Y70270762D01*
X84555137Y70270762D02*
X84745614Y70366000D01*
X84745614Y70366000D02*
X84840852Y70556477D01*
X84840852Y70556477D02*
X84840852Y70651715D01*
X84840852Y70651715D02*
X84745614Y70842191D01*
X84745614Y70842191D02*
X84555137Y70937429D01*
X84555137Y70937429D02*
X84269423Y70937429D01*
X84269423Y70937429D02*
X84078947Y71032667D01*
X84078947Y71032667D02*
X83983709Y71223143D01*
X83983709Y71223143D02*
X83983709Y71318381D01*
X83983709Y71318381D02*
X84078947Y71508858D01*
X84078947Y71508858D02*
X84269423Y71604096D01*
X84269423Y71604096D02*
X84555137Y71604096D01*
X84555137Y71604096D02*
X84745614Y71508858D01*
X85412281Y71604096D02*
X86174185Y71604096D01*
X85697995Y72270762D02*
X85697995Y70556477D01*
X85697995Y70556477D02*
X85793233Y70366000D01*
X85793233Y70366000D02*
X85983709Y70270762D01*
X85983709Y70270762D02*
X86174185Y70270762D01*
X87602757Y70366000D02*
X87412281Y70270762D01*
X87412281Y70270762D02*
X87031328Y70270762D01*
X87031328Y70270762D02*
X86840852Y70366000D01*
X86840852Y70366000D02*
X86745614Y70556477D01*
X86745614Y70556477D02*
X86745614Y71318381D01*
X86745614Y71318381D02*
X86840852Y71508858D01*
X86840852Y71508858D02*
X87031328Y71604096D01*
X87031328Y71604096D02*
X87412281Y71604096D01*
X87412281Y71604096D02*
X87602757Y71508858D01*
X87602757Y71508858D02*
X87697995Y71318381D01*
X87697995Y71318381D02*
X87697995Y71127905D01*
X87697995Y71127905D02*
X86745614Y70937429D01*
X88555138Y70270762D02*
X88555138Y71604096D01*
X88555138Y71413620D02*
X88650376Y71508858D01*
X88650376Y71508858D02*
X88840852Y71604096D01*
X88840852Y71604096D02*
X89126567Y71604096D01*
X89126567Y71604096D02*
X89317043Y71508858D01*
X89317043Y71508858D02*
X89412281Y71318381D01*
X89412281Y71318381D02*
X89412281Y70270762D01*
X89412281Y71318381D02*
X89507519Y71508858D01*
X89507519Y71508858D02*
X89697995Y71604096D01*
X89697995Y71604096D02*
X89983709Y71604096D01*
X89983709Y71604096D02*
X90174186Y71508858D01*
X90174186Y71508858D02*
X90269424Y71318381D01*
X90269424Y71318381D02*
X90269424Y70270762D01*
D13*
X2482780Y68344613D02*
X1768495Y68344613D01*
X1768495Y68344613D02*
X1625638Y68392232D01*
X1625638Y68392232D02*
X1530400Y68487470D01*
X1530400Y68487470D02*
X1482780Y68630327D01*
X1482780Y68630327D02*
X1482780Y68725565D01*
X1482780Y67392232D02*
X1482780Y67868422D01*
X1482780Y67868422D02*
X2482780Y67868422D01*
X1578019Y66487470D02*
X1530400Y66535089D01*
X1530400Y66535089D02*
X1482780Y66677946D01*
X1482780Y66677946D02*
X1482780Y66773184D01*
X1482780Y66773184D02*
X1530400Y66916041D01*
X1530400Y66916041D02*
X1625638Y67011279D01*
X1625638Y67011279D02*
X1720876Y67058898D01*
X1720876Y67058898D02*
X1911352Y67106517D01*
X1911352Y67106517D02*
X2054209Y67106517D01*
X2054209Y67106517D02*
X2244685Y67058898D01*
X2244685Y67058898D02*
X2339923Y67011279D01*
X2339923Y67011279D02*
X2435161Y66916041D01*
X2435161Y66916041D02*
X2482780Y66773184D01*
X2482780Y66773184D02*
X2482780Y66677946D01*
X2482780Y66677946D02*
X2435161Y66535089D01*
X2435161Y66535089D02*
X2387542Y66487470D01*
X2482780Y65773184D02*
X1768495Y65773184D01*
X1768495Y65773184D02*
X1625638Y65820803D01*
X1625638Y65820803D02*
X1530400Y65916041D01*
X1530400Y65916041D02*
X1482780Y66058898D01*
X1482780Y66058898D02*
X1482780Y66154136D01*
X1482780Y64820803D02*
X1482780Y65296993D01*
X1482780Y65296993D02*
X2482780Y65296993D01*
X1578019Y63916041D02*
X1530400Y63963660D01*
X1530400Y63963660D02*
X1482780Y64106517D01*
X1482780Y64106517D02*
X1482780Y64201755D01*
X1482780Y64201755D02*
X1530400Y64344612D01*
X1530400Y64344612D02*
X1625638Y64439850D01*
X1625638Y64439850D02*
X1720876Y64487469D01*
X1720876Y64487469D02*
X1911352Y64535088D01*
X1911352Y64535088D02*
X2054209Y64535088D01*
X2054209Y64535088D02*
X2244685Y64487469D01*
X2244685Y64487469D02*
X2339923Y64439850D01*
X2339923Y64439850D02*
X2435161Y64344612D01*
X2435161Y64344612D02*
X2482780Y64201755D01*
X2482780Y64201755D02*
X2482780Y64106517D01*
X2482780Y64106517D02*
X2435161Y63963660D01*
X2435161Y63963660D02*
X2387542Y63916041D01*
X2482780Y63201755D02*
X1768495Y63201755D01*
X1768495Y63201755D02*
X1625638Y63249374D01*
X1625638Y63249374D02*
X1530400Y63344612D01*
X1530400Y63344612D02*
X1482780Y63487469D01*
X1482780Y63487469D02*
X1482780Y63582707D01*
X1482780Y62249374D02*
X1482780Y62725564D01*
X1482780Y62725564D02*
X2482780Y62725564D01*
X1578019Y61344612D02*
X1530400Y61392231D01*
X1530400Y61392231D02*
X1482780Y61535088D01*
X1482780Y61535088D02*
X1482780Y61630326D01*
X1482780Y61630326D02*
X1530400Y61773183D01*
X1530400Y61773183D02*
X1625638Y61868421D01*
X1625638Y61868421D02*
X1720876Y61916040D01*
X1720876Y61916040D02*
X1911352Y61963659D01*
X1911352Y61963659D02*
X2054209Y61963659D01*
X2054209Y61963659D02*
X2244685Y61916040D01*
X2244685Y61916040D02*
X2339923Y61868421D01*
X2339923Y61868421D02*
X2435161Y61773183D01*
X2435161Y61773183D02*
X2482780Y61630326D01*
X2482780Y61630326D02*
X2482780Y61535088D01*
X2482780Y61535088D02*
X2435161Y61392231D01*
X2435161Y61392231D02*
X2387542Y61344612D01*
X2482780Y60630326D02*
X1768495Y60630326D01*
X1768495Y60630326D02*
X1625638Y60677945D01*
X1625638Y60677945D02*
X1530400Y60773183D01*
X1530400Y60773183D02*
X1482780Y60916040D01*
X1482780Y60916040D02*
X1482780Y61011278D01*
X1482780Y59677945D02*
X1482780Y60154135D01*
X1482780Y60154135D02*
X2482780Y60154135D01*
X1578019Y58773183D02*
X1530400Y58820802D01*
X1530400Y58820802D02*
X1482780Y58963659D01*
X1482780Y58963659D02*
X1482780Y59058897D01*
X1482780Y59058897D02*
X1530400Y59201754D01*
X1530400Y59201754D02*
X1625638Y59296992D01*
X1625638Y59296992D02*
X1720876Y59344611D01*
X1720876Y59344611D02*
X1911352Y59392230D01*
X1911352Y59392230D02*
X2054209Y59392230D01*
X2054209Y59392230D02*
X2244685Y59344611D01*
X2244685Y59344611D02*
X2339923Y59296992D01*
X2339923Y59296992D02*
X2435161Y59201754D01*
X2435161Y59201754D02*
X2482780Y59058897D01*
X2482780Y59058897D02*
X2482780Y58963659D01*
X2482780Y58963659D02*
X2435161Y58820802D01*
X2435161Y58820802D02*
X2387542Y58773183D01*
D10*
X3904510Y27199172D02*
X3904510Y28699172D01*
X5475939Y27342029D02*
X5404511Y27270600D01*
X5404511Y27270600D02*
X5190225Y27199172D01*
X5190225Y27199172D02*
X5047368Y27199172D01*
X5047368Y27199172D02*
X4833082Y27270600D01*
X4833082Y27270600D02*
X4690225Y27413458D01*
X4690225Y27413458D02*
X4618796Y27556315D01*
X4618796Y27556315D02*
X4547368Y27842029D01*
X4547368Y27842029D02*
X4547368Y28056315D01*
X4547368Y28056315D02*
X4618796Y28342029D01*
X4618796Y28342029D02*
X4690225Y28484886D01*
X4690225Y28484886D02*
X4833082Y28627743D01*
X4833082Y28627743D02*
X5047368Y28699172D01*
X5047368Y28699172D02*
X5190225Y28699172D01*
X5190225Y28699172D02*
X5404511Y28627743D01*
X5404511Y28627743D02*
X5475939Y28556315D01*
X6047368Y27270600D02*
X6261654Y27199172D01*
X6261654Y27199172D02*
X6618796Y27199172D01*
X6618796Y27199172D02*
X6761654Y27270600D01*
X6761654Y27270600D02*
X6833082Y27342029D01*
X6833082Y27342029D02*
X6904511Y27484886D01*
X6904511Y27484886D02*
X6904511Y27627743D01*
X6904511Y27627743D02*
X6833082Y27770600D01*
X6833082Y27770600D02*
X6761654Y27842029D01*
X6761654Y27842029D02*
X6618796Y27913458D01*
X6618796Y27913458D02*
X6333082Y27984886D01*
X6333082Y27984886D02*
X6190225Y28056315D01*
X6190225Y28056315D02*
X6118796Y28127743D01*
X6118796Y28127743D02*
X6047368Y28270600D01*
X6047368Y28270600D02*
X6047368Y28413458D01*
X6047368Y28413458D02*
X6118796Y28556315D01*
X6118796Y28556315D02*
X6190225Y28627743D01*
X6190225Y28627743D02*
X6333082Y28699172D01*
X6333082Y28699172D02*
X6690225Y28699172D01*
X6690225Y28699172D02*
X6904511Y28627743D01*
X7547367Y27199172D02*
X7547367Y28699172D01*
X7547367Y28699172D02*
X8118796Y28699172D01*
X8118796Y28699172D02*
X8261653Y28627743D01*
X8261653Y28627743D02*
X8333082Y28556315D01*
X8333082Y28556315D02*
X8404510Y28413458D01*
X8404510Y28413458D02*
X8404510Y28199172D01*
X8404510Y28199172D02*
X8333082Y28056315D01*
X8333082Y28056315D02*
X8261653Y27984886D01*
X8261653Y27984886D02*
X8118796Y27913458D01*
X8118796Y27913458D02*
X7547367Y27913458D01*
X25897725Y64627743D02*
X25754868Y64699172D01*
X25754868Y64699172D02*
X25540582Y64699172D01*
X25540582Y64699172D02*
X25326296Y64627743D01*
X25326296Y64627743D02*
X25183439Y64484886D01*
X25183439Y64484886D02*
X25112010Y64342029D01*
X25112010Y64342029D02*
X25040582Y64056315D01*
X25040582Y64056315D02*
X25040582Y63842029D01*
X25040582Y63842029D02*
X25112010Y63556315D01*
X25112010Y63556315D02*
X25183439Y63413458D01*
X25183439Y63413458D02*
X25326296Y63270600D01*
X25326296Y63270600D02*
X25540582Y63199172D01*
X25540582Y63199172D02*
X25683439Y63199172D01*
X25683439Y63199172D02*
X25897725Y63270600D01*
X25897725Y63270600D02*
X25969153Y63342029D01*
X25969153Y63342029D02*
X25969153Y63842029D01*
X25969153Y63842029D02*
X25683439Y63842029D01*
X26540582Y63270600D02*
X26754868Y63199172D01*
X26754868Y63199172D02*
X27112010Y63199172D01*
X27112010Y63199172D02*
X27254868Y63270600D01*
X27254868Y63270600D02*
X27326296Y63342029D01*
X27326296Y63342029D02*
X27397725Y63484886D01*
X27397725Y63484886D02*
X27397725Y63627743D01*
X27397725Y63627743D02*
X27326296Y63770600D01*
X27326296Y63770600D02*
X27254868Y63842029D01*
X27254868Y63842029D02*
X27112010Y63913458D01*
X27112010Y63913458D02*
X26826296Y63984886D01*
X26826296Y63984886D02*
X26683439Y64056315D01*
X26683439Y64056315D02*
X26612010Y64127743D01*
X26612010Y64127743D02*
X26540582Y64270600D01*
X26540582Y64270600D02*
X26540582Y64413458D01*
X26540582Y64413458D02*
X26612010Y64556315D01*
X26612010Y64556315D02*
X26683439Y64627743D01*
X26683439Y64627743D02*
X26826296Y64699172D01*
X26826296Y64699172D02*
X27183439Y64699172D01*
X27183439Y64699172D02*
X27397725Y64627743D01*
X28040581Y63199172D02*
X28040581Y64699172D01*
X28040581Y64699172D02*
X28540581Y63627743D01*
X28540581Y63627743D02*
X29040581Y64699172D01*
X29040581Y64699172D02*
X29040581Y63199172D01*
X30897724Y63199172D02*
X30897724Y64699172D01*
X30897724Y64699172D02*
X31469153Y64699172D01*
X31469153Y64699172D02*
X31612010Y64627743D01*
X31612010Y64627743D02*
X31683439Y64556315D01*
X31683439Y64556315D02*
X31754867Y64413458D01*
X31754867Y64413458D02*
X31754867Y64199172D01*
X31754867Y64199172D02*
X31683439Y64056315D01*
X31683439Y64056315D02*
X31612010Y63984886D01*
X31612010Y63984886D02*
X31469153Y63913458D01*
X31469153Y63913458D02*
X30897724Y63913458D01*
X32254867Y64699172D02*
X32612010Y63199172D01*
X32612010Y63199172D02*
X32897724Y64270600D01*
X32897724Y64270600D02*
X33183439Y63199172D01*
X33183439Y63199172D02*
X33540582Y64699172D01*
X34969153Y63199172D02*
X34469153Y63913458D01*
X34112010Y63199172D02*
X34112010Y64699172D01*
X34112010Y64699172D02*
X34683439Y64699172D01*
X34683439Y64699172D02*
X34826296Y64627743D01*
X34826296Y64627743D02*
X34897725Y64556315D01*
X34897725Y64556315D02*
X34969153Y64413458D01*
X34969153Y64413458D02*
X34969153Y64199172D01*
X34969153Y64199172D02*
X34897725Y64056315D01*
X34897725Y64056315D02*
X34826296Y63984886D01*
X34826296Y63984886D02*
X34683439Y63913458D01*
X34683439Y63913458D02*
X34112010Y63913458D01*
D14*
X82357142Y14640940D02*
X82309523Y14593320D01*
X82309523Y14593320D02*
X82166666Y14545701D01*
X82166666Y14545701D02*
X82071428Y14545701D01*
X82071428Y14545701D02*
X81928571Y14593320D01*
X81928571Y14593320D02*
X81833333Y14688559D01*
X81833333Y14688559D02*
X81785714Y14783797D01*
X81785714Y14783797D02*
X81738095Y14974273D01*
X81738095Y14974273D02*
X81738095Y15117130D01*
X81738095Y15117130D02*
X81785714Y15307606D01*
X81785714Y15307606D02*
X81833333Y15402844D01*
X81833333Y15402844D02*
X81928571Y15498082D01*
X81928571Y15498082D02*
X82071428Y15545701D01*
X82071428Y15545701D02*
X82166666Y15545701D01*
X82166666Y15545701D02*
X82309523Y15498082D01*
X82309523Y15498082D02*
X82357142Y15450463D01*
X83309523Y14545701D02*
X82738095Y14545701D01*
X83023809Y14545701D02*
X83023809Y15545701D01*
X83023809Y15545701D02*
X82928571Y15402844D01*
X82928571Y15402844D02*
X82833333Y15307606D01*
X82833333Y15307606D02*
X82738095Y15259987D01*
X83928571Y15545701D02*
X84023809Y15545701D01*
X84023809Y15545701D02*
X84119047Y15498082D01*
X84119047Y15498082D02*
X84166666Y15450463D01*
X84166666Y15450463D02*
X84214285Y15355225D01*
X84214285Y15355225D02*
X84261904Y15164749D01*
X84261904Y15164749D02*
X84261904Y14926654D01*
X84261904Y14926654D02*
X84214285Y14736178D01*
X84214285Y14736178D02*
X84166666Y14640940D01*
X84166666Y14640940D02*
X84119047Y14593320D01*
X84119047Y14593320D02*
X84023809Y14545701D01*
X84023809Y14545701D02*
X83928571Y14545701D01*
X83928571Y14545701D02*
X83833333Y14593320D01*
X83833333Y14593320D02*
X83785714Y14640940D01*
X83785714Y14640940D02*
X83738095Y14736178D01*
X83738095Y14736178D02*
X83690476Y14926654D01*
X83690476Y14926654D02*
X83690476Y15164749D01*
X83690476Y15164749D02*
X83738095Y15355225D01*
X83738095Y15355225D02*
X83785714Y15450463D01*
X83785714Y15450463D02*
X83833333Y15498082D01*
X83833333Y15498082D02*
X83928571Y15545701D01*
X70583333Y60790940D02*
X70535714Y60743320D01*
X70535714Y60743320D02*
X70392857Y60695701D01*
X70392857Y60695701D02*
X70297619Y60695701D01*
X70297619Y60695701D02*
X70154762Y60743320D01*
X70154762Y60743320D02*
X70059524Y60838559D01*
X70059524Y60838559D02*
X70011905Y60933797D01*
X70011905Y60933797D02*
X69964286Y61124273D01*
X69964286Y61124273D02*
X69964286Y61267130D01*
X69964286Y61267130D02*
X70011905Y61457606D01*
X70011905Y61457606D02*
X70059524Y61552844D01*
X70059524Y61552844D02*
X70154762Y61648082D01*
X70154762Y61648082D02*
X70297619Y61695701D01*
X70297619Y61695701D02*
X70392857Y61695701D01*
X70392857Y61695701D02*
X70535714Y61648082D01*
X70535714Y61648082D02*
X70583333Y61600463D01*
X71488095Y61695701D02*
X71011905Y61695701D01*
X71011905Y61695701D02*
X70964286Y61219511D01*
X70964286Y61219511D02*
X71011905Y61267130D01*
X71011905Y61267130D02*
X71107143Y61314749D01*
X71107143Y61314749D02*
X71345238Y61314749D01*
X71345238Y61314749D02*
X71440476Y61267130D01*
X71440476Y61267130D02*
X71488095Y61219511D01*
X71488095Y61219511D02*
X71535714Y61124273D01*
X71535714Y61124273D02*
X71535714Y60886178D01*
X71535714Y60886178D02*
X71488095Y60790940D01*
X71488095Y60790940D02*
X71440476Y60743320D01*
X71440476Y60743320D02*
X71345238Y60695701D01*
X71345238Y60695701D02*
X71107143Y60695701D01*
X71107143Y60695701D02*
X71011905Y60743320D01*
X71011905Y60743320D02*
X70964286Y60790940D01*
X70583333Y65290940D02*
X70535714Y65243320D01*
X70535714Y65243320D02*
X70392857Y65195701D01*
X70392857Y65195701D02*
X70297619Y65195701D01*
X70297619Y65195701D02*
X70154762Y65243320D01*
X70154762Y65243320D02*
X70059524Y65338559D01*
X70059524Y65338559D02*
X70011905Y65433797D01*
X70011905Y65433797D02*
X69964286Y65624273D01*
X69964286Y65624273D02*
X69964286Y65767130D01*
X69964286Y65767130D02*
X70011905Y65957606D01*
X70011905Y65957606D02*
X70059524Y66052844D01*
X70059524Y66052844D02*
X70154762Y66148082D01*
X70154762Y66148082D02*
X70297619Y66195701D01*
X70297619Y66195701D02*
X70392857Y66195701D01*
X70392857Y66195701D02*
X70535714Y66148082D01*
X70535714Y66148082D02*
X70583333Y66100463D01*
X71440476Y65862368D02*
X71440476Y65195701D01*
X71202381Y66243320D02*
X70964286Y65529035D01*
X70964286Y65529035D02*
X71583333Y65529035D01*
X41742261Y46700463D02*
X41647023Y46748082D01*
X41647023Y46748082D02*
X41551785Y46843320D01*
X41551785Y46843320D02*
X41408928Y46986178D01*
X41408928Y46986178D02*
X41313690Y47033797D01*
X41313690Y47033797D02*
X41218452Y47033797D01*
X41266071Y46795701D02*
X41170833Y46843320D01*
X41170833Y46843320D02*
X41075595Y46938559D01*
X41075595Y46938559D02*
X41027976Y47129035D01*
X41027976Y47129035D02*
X41027976Y47462368D01*
X41027976Y47462368D02*
X41075595Y47652844D01*
X41075595Y47652844D02*
X41170833Y47748082D01*
X41170833Y47748082D02*
X41266071Y47795701D01*
X41266071Y47795701D02*
X41456547Y47795701D01*
X41456547Y47795701D02*
X41551785Y47748082D01*
X41551785Y47748082D02*
X41647023Y47652844D01*
X41647023Y47652844D02*
X41694642Y47462368D01*
X41694642Y47462368D02*
X41694642Y47129035D01*
X41694642Y47129035D02*
X41647023Y46938559D01*
X41647023Y46938559D02*
X41551785Y46843320D01*
X41551785Y46843320D02*
X41456547Y46795701D01*
X41456547Y46795701D02*
X41266071Y46795701D01*
X42075595Y47700463D02*
X42123214Y47748082D01*
X42123214Y47748082D02*
X42218452Y47795701D01*
X42218452Y47795701D02*
X42456547Y47795701D01*
X42456547Y47795701D02*
X42551785Y47748082D01*
X42551785Y47748082D02*
X42599404Y47700463D01*
X42599404Y47700463D02*
X42647023Y47605225D01*
X42647023Y47605225D02*
X42647023Y47509987D01*
X42647023Y47509987D02*
X42599404Y47367130D01*
X42599404Y47367130D02*
X42027976Y46795701D01*
X42027976Y46795701D02*
X42647023Y46795701D01*
X25833333Y53140940D02*
X25785714Y53093320D01*
X25785714Y53093320D02*
X25642857Y53045701D01*
X25642857Y53045701D02*
X25547619Y53045701D01*
X25547619Y53045701D02*
X25404762Y53093320D01*
X25404762Y53093320D02*
X25309524Y53188559D01*
X25309524Y53188559D02*
X25261905Y53283797D01*
X25261905Y53283797D02*
X25214286Y53474273D01*
X25214286Y53474273D02*
X25214286Y53617130D01*
X25214286Y53617130D02*
X25261905Y53807606D01*
X25261905Y53807606D02*
X25309524Y53902844D01*
X25309524Y53902844D02*
X25404762Y53998082D01*
X25404762Y53998082D02*
X25547619Y54045701D01*
X25547619Y54045701D02*
X25642857Y54045701D01*
X25642857Y54045701D02*
X25785714Y53998082D01*
X25785714Y53998082D02*
X25833333Y53950463D01*
X26690476Y54045701D02*
X26500000Y54045701D01*
X26500000Y54045701D02*
X26404762Y53998082D01*
X26404762Y53998082D02*
X26357143Y53950463D01*
X26357143Y53950463D02*
X26261905Y53807606D01*
X26261905Y53807606D02*
X26214286Y53617130D01*
X26214286Y53617130D02*
X26214286Y53236178D01*
X26214286Y53236178D02*
X26261905Y53140940D01*
X26261905Y53140940D02*
X26309524Y53093320D01*
X26309524Y53093320D02*
X26404762Y53045701D01*
X26404762Y53045701D02*
X26595238Y53045701D01*
X26595238Y53045701D02*
X26690476Y53093320D01*
X26690476Y53093320D02*
X26738095Y53140940D01*
X26738095Y53140940D02*
X26785714Y53236178D01*
X26785714Y53236178D02*
X26785714Y53474273D01*
X26785714Y53474273D02*
X26738095Y53569511D01*
X26738095Y53569511D02*
X26690476Y53617130D01*
X26690476Y53617130D02*
X26595238Y53664749D01*
X26595238Y53664749D02*
X26404762Y53664749D01*
X26404762Y53664749D02*
X26309524Y53617130D01*
X26309524Y53617130D02*
X26261905Y53569511D01*
X26261905Y53569511D02*
X26214286Y53474273D01*
X68416666Y11045701D02*
X68416666Y10331416D01*
X68416666Y10331416D02*
X68369047Y10188559D01*
X68369047Y10188559D02*
X68273809Y10093320D01*
X68273809Y10093320D02*
X68130952Y10045701D01*
X68130952Y10045701D02*
X68035714Y10045701D01*
X68797619Y11045701D02*
X69416666Y11045701D01*
X69416666Y11045701D02*
X69083333Y10664749D01*
X69083333Y10664749D02*
X69226190Y10664749D01*
X69226190Y10664749D02*
X69321428Y10617130D01*
X69321428Y10617130D02*
X69369047Y10569511D01*
X69369047Y10569511D02*
X69416666Y10474273D01*
X69416666Y10474273D02*
X69416666Y10236178D01*
X69416666Y10236178D02*
X69369047Y10140940D01*
X69369047Y10140940D02*
X69321428Y10093320D01*
X69321428Y10093320D02*
X69226190Y10045701D01*
X69226190Y10045701D02*
X68940476Y10045701D01*
X68940476Y10045701D02*
X68845238Y10093320D01*
X68845238Y10093320D02*
X68797619Y10140940D01*
X61833333Y86045701D02*
X61500000Y86521892D01*
X61261905Y86045701D02*
X61261905Y87045701D01*
X61261905Y87045701D02*
X61642857Y87045701D01*
X61642857Y87045701D02*
X61738095Y86998082D01*
X61738095Y86998082D02*
X61785714Y86950463D01*
X61785714Y86950463D02*
X61833333Y86855225D01*
X61833333Y86855225D02*
X61833333Y86712368D01*
X61833333Y86712368D02*
X61785714Y86617130D01*
X61785714Y86617130D02*
X61738095Y86569511D01*
X61738095Y86569511D02*
X61642857Y86521892D01*
X61642857Y86521892D02*
X61261905Y86521892D01*
X62785714Y86045701D02*
X62214286Y86045701D01*
X62500000Y86045701D02*
X62500000Y87045701D01*
X62500000Y87045701D02*
X62404762Y86902844D01*
X62404762Y86902844D02*
X62309524Y86807606D01*
X62309524Y86807606D02*
X62214286Y86759987D01*
D15*
X81761905Y18945181D02*
X81761905Y19945181D01*
X81761905Y19945181D02*
X82000000Y19945181D01*
X82000000Y19945181D02*
X82142857Y19897562D01*
X82142857Y19897562D02*
X82238095Y19802324D01*
X82238095Y19802324D02*
X82285714Y19707086D01*
X82285714Y19707086D02*
X82333333Y19516610D01*
X82333333Y19516610D02*
X82333333Y19373753D01*
X82333333Y19373753D02*
X82285714Y19183277D01*
X82285714Y19183277D02*
X82238095Y19088039D01*
X82238095Y19088039D02*
X82142857Y18992800D01*
X82142857Y18992800D02*
X82000000Y18945181D01*
X82000000Y18945181D02*
X81761905Y18945181D01*
X82666667Y19945181D02*
X83333333Y19945181D01*
X83333333Y19945181D02*
X82904762Y18945181D01*
X55361905Y19445181D02*
X55361905Y20445181D01*
X55361905Y20445181D02*
X55600000Y20445181D01*
X55600000Y20445181D02*
X55742857Y20397562D01*
X55742857Y20397562D02*
X55838095Y20302324D01*
X55838095Y20302324D02*
X55885714Y20207086D01*
X55885714Y20207086D02*
X55933333Y20016610D01*
X55933333Y20016610D02*
X55933333Y19873753D01*
X55933333Y19873753D02*
X55885714Y19683277D01*
X55885714Y19683277D02*
X55838095Y19588039D01*
X55838095Y19588039D02*
X55742857Y19492800D01*
X55742857Y19492800D02*
X55600000Y19445181D01*
X55600000Y19445181D02*
X55361905Y19445181D01*
X56409524Y19445181D02*
X56600000Y19445181D01*
X56600000Y19445181D02*
X56695238Y19492800D01*
X56695238Y19492800D02*
X56742857Y19540420D01*
X56742857Y19540420D02*
X56838095Y19683277D01*
X56838095Y19683277D02*
X56885714Y19873753D01*
X56885714Y19873753D02*
X56885714Y20254705D01*
X56885714Y20254705D02*
X56838095Y20349943D01*
X56838095Y20349943D02*
X56790476Y20397562D01*
X56790476Y20397562D02*
X56695238Y20445181D01*
X56695238Y20445181D02*
X56504762Y20445181D01*
X56504762Y20445181D02*
X56409524Y20397562D01*
X56409524Y20397562D02*
X56361905Y20349943D01*
X56361905Y20349943D02*
X56314286Y20254705D01*
X56314286Y20254705D02*
X56314286Y20016610D01*
X56314286Y20016610D02*
X56361905Y19921372D01*
X56361905Y19921372D02*
X56409524Y19873753D01*
X56409524Y19873753D02*
X56504762Y19826134D01*
X56504762Y19826134D02*
X56695238Y19826134D01*
X56695238Y19826134D02*
X56790476Y19873753D01*
X56790476Y19873753D02*
X56838095Y19921372D01*
X56838095Y19921372D02*
X56885714Y20016610D01*
D14*
X55362261Y54950463D02*
X55267023Y54998082D01*
X55267023Y54998082D02*
X55171785Y55093320D01*
X55171785Y55093320D02*
X55028928Y55236178D01*
X55028928Y55236178D02*
X54933690Y55283797D01*
X54933690Y55283797D02*
X54838452Y55283797D01*
X54886071Y55045701D02*
X54790833Y55093320D01*
X54790833Y55093320D02*
X54695595Y55188559D01*
X54695595Y55188559D02*
X54647976Y55379035D01*
X54647976Y55379035D02*
X54647976Y55712368D01*
X54647976Y55712368D02*
X54695595Y55902844D01*
X54695595Y55902844D02*
X54790833Y55998082D01*
X54790833Y55998082D02*
X54886071Y56045701D01*
X54886071Y56045701D02*
X55076547Y56045701D01*
X55076547Y56045701D02*
X55171785Y55998082D01*
X55171785Y55998082D02*
X55267023Y55902844D01*
X55267023Y55902844D02*
X55314642Y55712368D01*
X55314642Y55712368D02*
X55314642Y55379035D01*
X55314642Y55379035D02*
X55267023Y55188559D01*
X55267023Y55188559D02*
X55171785Y55093320D01*
X55171785Y55093320D02*
X55076547Y55045701D01*
X55076547Y55045701D02*
X54886071Y55045701D01*
X56171785Y55712368D02*
X56171785Y55045701D01*
X55933690Y56093320D02*
X55695595Y55379035D01*
X55695595Y55379035D02*
X56314642Y55379035D01*
X82333333Y24390940D02*
X82285714Y24343320D01*
X82285714Y24343320D02*
X82142857Y24295701D01*
X82142857Y24295701D02*
X82047619Y24295701D01*
X82047619Y24295701D02*
X81904762Y24343320D01*
X81904762Y24343320D02*
X81809524Y24438559D01*
X81809524Y24438559D02*
X81761905Y24533797D01*
X81761905Y24533797D02*
X81714286Y24724273D01*
X81714286Y24724273D02*
X81714286Y24867130D01*
X81714286Y24867130D02*
X81761905Y25057606D01*
X81761905Y25057606D02*
X81809524Y25152844D01*
X81809524Y25152844D02*
X81904762Y25248082D01*
X81904762Y25248082D02*
X82047619Y25295701D01*
X82047619Y25295701D02*
X82142857Y25295701D01*
X82142857Y25295701D02*
X82285714Y25248082D01*
X82285714Y25248082D02*
X82333333Y25200463D01*
X82809524Y24295701D02*
X83000000Y24295701D01*
X83000000Y24295701D02*
X83095238Y24343320D01*
X83095238Y24343320D02*
X83142857Y24390940D01*
X83142857Y24390940D02*
X83238095Y24533797D01*
X83238095Y24533797D02*
X83285714Y24724273D01*
X83285714Y24724273D02*
X83285714Y25105225D01*
X83285714Y25105225D02*
X83238095Y25200463D01*
X83238095Y25200463D02*
X83190476Y25248082D01*
X83190476Y25248082D02*
X83095238Y25295701D01*
X83095238Y25295701D02*
X82904762Y25295701D01*
X82904762Y25295701D02*
X82809524Y25248082D01*
X82809524Y25248082D02*
X82761905Y25200463D01*
X82761905Y25200463D02*
X82714286Y25105225D01*
X82714286Y25105225D02*
X82714286Y24867130D01*
X82714286Y24867130D02*
X82761905Y24771892D01*
X82761905Y24771892D02*
X82809524Y24724273D01*
X82809524Y24724273D02*
X82904762Y24676654D01*
X82904762Y24676654D02*
X83095238Y24676654D01*
X83095238Y24676654D02*
X83190476Y24724273D01*
X83190476Y24724273D02*
X83238095Y24771892D01*
X83238095Y24771892D02*
X83285714Y24867130D01*
X55607142Y14640940D02*
X55559523Y14593320D01*
X55559523Y14593320D02*
X55416666Y14545701D01*
X55416666Y14545701D02*
X55321428Y14545701D01*
X55321428Y14545701D02*
X55178571Y14593320D01*
X55178571Y14593320D02*
X55083333Y14688559D01*
X55083333Y14688559D02*
X55035714Y14783797D01*
X55035714Y14783797D02*
X54988095Y14974273D01*
X54988095Y14974273D02*
X54988095Y15117130D01*
X54988095Y15117130D02*
X55035714Y15307606D01*
X55035714Y15307606D02*
X55083333Y15402844D01*
X55083333Y15402844D02*
X55178571Y15498082D01*
X55178571Y15498082D02*
X55321428Y15545701D01*
X55321428Y15545701D02*
X55416666Y15545701D01*
X55416666Y15545701D02*
X55559523Y15498082D01*
X55559523Y15498082D02*
X55607142Y15450463D01*
X56559523Y14545701D02*
X55988095Y14545701D01*
X56273809Y14545701D02*
X56273809Y15545701D01*
X56273809Y15545701D02*
X56178571Y15402844D01*
X56178571Y15402844D02*
X56083333Y15307606D01*
X56083333Y15307606D02*
X55988095Y15259987D01*
X56940476Y15450463D02*
X56988095Y15498082D01*
X56988095Y15498082D02*
X57083333Y15545701D01*
X57083333Y15545701D02*
X57321428Y15545701D01*
X57321428Y15545701D02*
X57416666Y15498082D01*
X57416666Y15498082D02*
X57464285Y15450463D01*
X57464285Y15450463D02*
X57511904Y15355225D01*
X57511904Y15355225D02*
X57511904Y15259987D01*
X57511904Y15259987D02*
X57464285Y15117130D01*
X57464285Y15117130D02*
X56892857Y14545701D01*
X56892857Y14545701D02*
X57511904Y14545701D01*
X20183333Y63640940D02*
X20135714Y63593320D01*
X20135714Y63593320D02*
X19992857Y63545701D01*
X19992857Y63545701D02*
X19897619Y63545701D01*
X19897619Y63545701D02*
X19754762Y63593320D01*
X19754762Y63593320D02*
X19659524Y63688559D01*
X19659524Y63688559D02*
X19611905Y63783797D01*
X19611905Y63783797D02*
X19564286Y63974273D01*
X19564286Y63974273D02*
X19564286Y64117130D01*
X19564286Y64117130D02*
X19611905Y64307606D01*
X19611905Y64307606D02*
X19659524Y64402844D01*
X19659524Y64402844D02*
X19754762Y64498082D01*
X19754762Y64498082D02*
X19897619Y64545701D01*
X19897619Y64545701D02*
X19992857Y64545701D01*
X19992857Y64545701D02*
X20135714Y64498082D01*
X20135714Y64498082D02*
X20183333Y64450463D01*
X20754762Y64117130D02*
X20659524Y64164749D01*
X20659524Y64164749D02*
X20611905Y64212368D01*
X20611905Y64212368D02*
X20564286Y64307606D01*
X20564286Y64307606D02*
X20564286Y64355225D01*
X20564286Y64355225D02*
X20611905Y64450463D01*
X20611905Y64450463D02*
X20659524Y64498082D01*
X20659524Y64498082D02*
X20754762Y64545701D01*
X20754762Y64545701D02*
X20945238Y64545701D01*
X20945238Y64545701D02*
X21040476Y64498082D01*
X21040476Y64498082D02*
X21088095Y64450463D01*
X21088095Y64450463D02*
X21135714Y64355225D01*
X21135714Y64355225D02*
X21135714Y64307606D01*
X21135714Y64307606D02*
X21088095Y64212368D01*
X21088095Y64212368D02*
X21040476Y64164749D01*
X21040476Y64164749D02*
X20945238Y64117130D01*
X20945238Y64117130D02*
X20754762Y64117130D01*
X20754762Y64117130D02*
X20659524Y64069511D01*
X20659524Y64069511D02*
X20611905Y64021892D01*
X20611905Y64021892D02*
X20564286Y63926654D01*
X20564286Y63926654D02*
X20564286Y63736178D01*
X20564286Y63736178D02*
X20611905Y63640940D01*
X20611905Y63640940D02*
X20659524Y63593320D01*
X20659524Y63593320D02*
X20754762Y63545701D01*
X20754762Y63545701D02*
X20945238Y63545701D01*
X20945238Y63545701D02*
X21040476Y63593320D01*
X21040476Y63593320D02*
X21088095Y63640940D01*
X21088095Y63640940D02*
X21135714Y63736178D01*
X21135714Y63736178D02*
X21135714Y63926654D01*
X21135714Y63926654D02*
X21088095Y64021892D01*
X21088095Y64021892D02*
X21040476Y64069511D01*
X21040476Y64069511D02*
X20945238Y64117130D01*
X32107142Y49795701D02*
X31773809Y50271892D01*
X31535714Y49795701D02*
X31535714Y50795701D01*
X31535714Y50795701D02*
X31916666Y50795701D01*
X31916666Y50795701D02*
X32011904Y50748082D01*
X32011904Y50748082D02*
X32059523Y50700463D01*
X32059523Y50700463D02*
X32107142Y50605225D01*
X32107142Y50605225D02*
X32107142Y50462368D01*
X32107142Y50462368D02*
X32059523Y50367130D01*
X32059523Y50367130D02*
X32011904Y50319511D01*
X32011904Y50319511D02*
X31916666Y50271892D01*
X31916666Y50271892D02*
X31535714Y50271892D01*
X33059523Y49795701D02*
X32488095Y49795701D01*
X32773809Y49795701D02*
X32773809Y50795701D01*
X32773809Y50795701D02*
X32678571Y50652844D01*
X32678571Y50652844D02*
X32583333Y50557606D01*
X32583333Y50557606D02*
X32488095Y50509987D01*
X34011904Y49795701D02*
X33440476Y49795701D01*
X33726190Y49795701D02*
X33726190Y50795701D01*
X33726190Y50795701D02*
X33630952Y50652844D01*
X33630952Y50652844D02*
X33535714Y50557606D01*
X33535714Y50557606D02*
X33440476Y50509987D01*
X25433334Y76140941D02*
X25385715Y76093321D01*
X25385715Y76093321D02*
X25242858Y76045702D01*
X25242858Y76045702D02*
X25147620Y76045702D01*
X25147620Y76045702D02*
X25004763Y76093321D01*
X25004763Y76093321D02*
X24909525Y76188560D01*
X24909525Y76188560D02*
X24861906Y76283798D01*
X24861906Y76283798D02*
X24814287Y76474274D01*
X24814287Y76474274D02*
X24814287Y76617131D01*
X24814287Y76617131D02*
X24861906Y76807607D01*
X24861906Y76807607D02*
X24909525Y76902845D01*
X24909525Y76902845D02*
X25004763Y76998083D01*
X25004763Y76998083D02*
X25147620Y77045702D01*
X25147620Y77045702D02*
X25242858Y77045702D01*
X25242858Y77045702D02*
X25385715Y76998083D01*
X25385715Y76998083D02*
X25433334Y76950464D01*
X26385715Y76045702D02*
X25814287Y76045702D01*
X26100001Y76045702D02*
X26100001Y77045702D01*
X26100001Y77045702D02*
X26004763Y76902845D01*
X26004763Y76902845D02*
X25909525Y76807607D01*
X25909525Y76807607D02*
X25814287Y76759988D01*
X52833333Y48245701D02*
X52500000Y48721892D01*
X52261905Y48245701D02*
X52261905Y49245701D01*
X52261905Y49245701D02*
X52642857Y49245701D01*
X52642857Y49245701D02*
X52738095Y49198082D01*
X52738095Y49198082D02*
X52785714Y49150463D01*
X52785714Y49150463D02*
X52833333Y49055225D01*
X52833333Y49055225D02*
X52833333Y48912368D01*
X52833333Y48912368D02*
X52785714Y48817130D01*
X52785714Y48817130D02*
X52738095Y48769511D01*
X52738095Y48769511D02*
X52642857Y48721892D01*
X52642857Y48721892D02*
X52261905Y48721892D01*
X53166667Y49245701D02*
X53833333Y49245701D01*
X53833333Y49245701D02*
X53404762Y48245701D01*
X36738095Y21095701D02*
X36738095Y20286178D01*
X36738095Y20286178D02*
X36785714Y20190940D01*
X36785714Y20190940D02*
X36833333Y20143320D01*
X36833333Y20143320D02*
X36928571Y20095701D01*
X36928571Y20095701D02*
X37119047Y20095701D01*
X37119047Y20095701D02*
X37214285Y20143320D01*
X37214285Y20143320D02*
X37261904Y20190940D01*
X37261904Y20190940D02*
X37309523Y20286178D01*
X37309523Y20286178D02*
X37309523Y21095701D01*
X37690476Y21095701D02*
X38309523Y21095701D01*
X38309523Y21095701D02*
X37976190Y20714749D01*
X37976190Y20714749D02*
X38119047Y20714749D01*
X38119047Y20714749D02*
X38214285Y20667130D01*
X38214285Y20667130D02*
X38261904Y20619511D01*
X38261904Y20619511D02*
X38309523Y20524273D01*
X38309523Y20524273D02*
X38309523Y20286178D01*
X38309523Y20286178D02*
X38261904Y20190940D01*
X38261904Y20190940D02*
X38214285Y20143320D01*
X38214285Y20143320D02*
X38119047Y20095701D01*
X38119047Y20095701D02*
X37833333Y20095701D01*
X37833333Y20095701D02*
X37738095Y20143320D01*
X37738095Y20143320D02*
X37690476Y20190940D01*
X82607142Y5140940D02*
X82559523Y5093320D01*
X82559523Y5093320D02*
X82416666Y5045701D01*
X82416666Y5045701D02*
X82321428Y5045701D01*
X82321428Y5045701D02*
X82178571Y5093320D01*
X82178571Y5093320D02*
X82083333Y5188559D01*
X82083333Y5188559D02*
X82035714Y5283797D01*
X82035714Y5283797D02*
X81988095Y5474273D01*
X81988095Y5474273D02*
X81988095Y5617130D01*
X81988095Y5617130D02*
X82035714Y5807606D01*
X82035714Y5807606D02*
X82083333Y5902844D01*
X82083333Y5902844D02*
X82178571Y5998082D01*
X82178571Y5998082D02*
X82321428Y6045701D01*
X82321428Y6045701D02*
X82416666Y6045701D01*
X82416666Y6045701D02*
X82559523Y5998082D01*
X82559523Y5998082D02*
X82607142Y5950463D01*
X83559523Y5045701D02*
X82988095Y5045701D01*
X83273809Y5045701D02*
X83273809Y6045701D01*
X83273809Y6045701D02*
X83178571Y5902844D01*
X83178571Y5902844D02*
X83083333Y5807606D01*
X83083333Y5807606D02*
X82988095Y5759987D01*
X84511904Y5045701D02*
X83940476Y5045701D01*
X84226190Y5045701D02*
X84226190Y6045701D01*
X84226190Y6045701D02*
X84130952Y5902844D01*
X84130952Y5902844D02*
X84035714Y5807606D01*
X84035714Y5807606D02*
X83940476Y5759987D01*
X55312261Y65450463D02*
X55217023Y65498082D01*
X55217023Y65498082D02*
X55121785Y65593320D01*
X55121785Y65593320D02*
X54978928Y65736178D01*
X54978928Y65736178D02*
X54883690Y65783797D01*
X54883690Y65783797D02*
X54788452Y65783797D01*
X54836071Y65545701D02*
X54740833Y65593320D01*
X54740833Y65593320D02*
X54645595Y65688559D01*
X54645595Y65688559D02*
X54597976Y65879035D01*
X54597976Y65879035D02*
X54597976Y66212368D01*
X54597976Y66212368D02*
X54645595Y66402844D01*
X54645595Y66402844D02*
X54740833Y66498082D01*
X54740833Y66498082D02*
X54836071Y66545701D01*
X54836071Y66545701D02*
X55026547Y66545701D01*
X55026547Y66545701D02*
X55121785Y66498082D01*
X55121785Y66498082D02*
X55217023Y66402844D01*
X55217023Y66402844D02*
X55264642Y66212368D01*
X55264642Y66212368D02*
X55264642Y65879035D01*
X55264642Y65879035D02*
X55217023Y65688559D01*
X55217023Y65688559D02*
X55121785Y65593320D01*
X55121785Y65593320D02*
X55026547Y65545701D01*
X55026547Y65545701D02*
X54836071Y65545701D01*
X55597976Y66545701D02*
X56217023Y66545701D01*
X56217023Y66545701D02*
X55883690Y66164749D01*
X55883690Y66164749D02*
X56026547Y66164749D01*
X56026547Y66164749D02*
X56121785Y66117130D01*
X56121785Y66117130D02*
X56169404Y66069511D01*
X56169404Y66069511D02*
X56217023Y65974273D01*
X56217023Y65974273D02*
X56217023Y65736178D01*
X56217023Y65736178D02*
X56169404Y65640940D01*
X56169404Y65640940D02*
X56121785Y65593320D01*
X56121785Y65593320D02*
X56026547Y65545701D01*
X56026547Y65545701D02*
X55740833Y65545701D01*
X55740833Y65545701D02*
X55645595Y65593320D01*
X55645595Y65593320D02*
X55597976Y65640940D01*
X5786666Y39090701D02*
X5786666Y38376416D01*
X5786666Y38376416D02*
X5739047Y38233559D01*
X5739047Y38233559D02*
X5643809Y38138320D01*
X5643809Y38138320D02*
X5500952Y38090701D01*
X5500952Y38090701D02*
X5405714Y38090701D01*
X6739047Y39090701D02*
X6262857Y39090701D01*
X6262857Y39090701D02*
X6215238Y38614511D01*
X6215238Y38614511D02*
X6262857Y38662130D01*
X6262857Y38662130D02*
X6358095Y38709749D01*
X6358095Y38709749D02*
X6596190Y38709749D01*
X6596190Y38709749D02*
X6691428Y38662130D01*
X6691428Y38662130D02*
X6739047Y38614511D01*
X6739047Y38614511D02*
X6786666Y38519273D01*
X6786666Y38519273D02*
X6786666Y38281178D01*
X6786666Y38281178D02*
X6739047Y38185940D01*
X6739047Y38185940D02*
X6691428Y38138320D01*
X6691428Y38138320D02*
X6596190Y38090701D01*
X6596190Y38090701D02*
X6358095Y38090701D01*
X6358095Y38090701D02*
X6262857Y38138320D01*
X6262857Y38138320D02*
X6215238Y38185940D01*
X46238095Y70295701D02*
X46238095Y69486178D01*
X46238095Y69486178D02*
X46285714Y69390940D01*
X46285714Y69390940D02*
X46333333Y69343320D01*
X46333333Y69343320D02*
X46428571Y69295701D01*
X46428571Y69295701D02*
X46619047Y69295701D01*
X46619047Y69295701D02*
X46714285Y69343320D01*
X46714285Y69343320D02*
X46761904Y69390940D01*
X46761904Y69390940D02*
X46809523Y69486178D01*
X46809523Y69486178D02*
X46809523Y70295701D01*
X47809523Y69295701D02*
X47238095Y69295701D01*
X47523809Y69295701D02*
X47523809Y70295701D01*
X47523809Y70295701D02*
X47428571Y70152844D01*
X47428571Y70152844D02*
X47333333Y70057606D01*
X47333333Y70057606D02*
X47238095Y70009987D01*
X41916666Y8665701D02*
X41916666Y7951416D01*
X41916666Y7951416D02*
X41869047Y7808559D01*
X41869047Y7808559D02*
X41773809Y7713320D01*
X41773809Y7713320D02*
X41630952Y7665701D01*
X41630952Y7665701D02*
X41535714Y7665701D01*
X42345238Y8570463D02*
X42392857Y8618082D01*
X42392857Y8618082D02*
X42488095Y8665701D01*
X42488095Y8665701D02*
X42726190Y8665701D01*
X42726190Y8665701D02*
X42821428Y8618082D01*
X42821428Y8618082D02*
X42869047Y8570463D01*
X42869047Y8570463D02*
X42916666Y8475225D01*
X42916666Y8475225D02*
X42916666Y8379987D01*
X42916666Y8379987D02*
X42869047Y8237130D01*
X42869047Y8237130D02*
X42297619Y7665701D01*
X42297619Y7665701D02*
X42916666Y7665701D01*
X26588095Y40795701D02*
X26588095Y39986178D01*
X26588095Y39986178D02*
X26635714Y39890940D01*
X26635714Y39890940D02*
X26683333Y39843320D01*
X26683333Y39843320D02*
X26778571Y39795701D01*
X26778571Y39795701D02*
X26969047Y39795701D01*
X26969047Y39795701D02*
X27064285Y39843320D01*
X27064285Y39843320D02*
X27111904Y39890940D01*
X27111904Y39890940D02*
X27159523Y39986178D01*
X27159523Y39986178D02*
X27159523Y40795701D01*
X27588095Y40700463D02*
X27635714Y40748082D01*
X27635714Y40748082D02*
X27730952Y40795701D01*
X27730952Y40795701D02*
X27969047Y40795701D01*
X27969047Y40795701D02*
X28064285Y40748082D01*
X28064285Y40748082D02*
X28111904Y40700463D01*
X28111904Y40700463D02*
X28159523Y40605225D01*
X28159523Y40605225D02*
X28159523Y40509987D01*
X28159523Y40509987D02*
X28111904Y40367130D01*
X28111904Y40367130D02*
X27540476Y39795701D01*
X27540476Y39795701D02*
X28159523Y39795701D01*
D15*
X70066905Y55545181D02*
X70066905Y56545181D01*
X70066905Y56545181D02*
X70305000Y56545181D01*
X70305000Y56545181D02*
X70447857Y56497562D01*
X70447857Y56497562D02*
X70543095Y56402324D01*
X70543095Y56402324D02*
X70590714Y56307086D01*
X70590714Y56307086D02*
X70638333Y56116610D01*
X70638333Y56116610D02*
X70638333Y55973753D01*
X70638333Y55973753D02*
X70590714Y55783277D01*
X70590714Y55783277D02*
X70543095Y55688039D01*
X70543095Y55688039D02*
X70447857Y55592800D01*
X70447857Y55592800D02*
X70305000Y55545181D01*
X70305000Y55545181D02*
X70066905Y55545181D01*
X71019286Y56449943D02*
X71066905Y56497562D01*
X71066905Y56497562D02*
X71162143Y56545181D01*
X71162143Y56545181D02*
X71400238Y56545181D01*
X71400238Y56545181D02*
X71495476Y56497562D01*
X71495476Y56497562D02*
X71543095Y56449943D01*
X71543095Y56449943D02*
X71590714Y56354705D01*
X71590714Y56354705D02*
X71590714Y56259467D01*
X71590714Y56259467D02*
X71543095Y56116610D01*
X71543095Y56116610D02*
X70971667Y55545181D01*
X70971667Y55545181D02*
X71590714Y55545181D01*
D14*
X76738095Y55045701D02*
X76738095Y54236178D01*
X76738095Y54236178D02*
X76785714Y54140940D01*
X76785714Y54140940D02*
X76833333Y54093320D01*
X76833333Y54093320D02*
X76928571Y54045701D01*
X76928571Y54045701D02*
X77119047Y54045701D01*
X77119047Y54045701D02*
X77214285Y54093320D01*
X77214285Y54093320D02*
X77261904Y54140940D01*
X77261904Y54140940D02*
X77309523Y54236178D01*
X77309523Y54236178D02*
X77309523Y55045701D01*
X78214285Y54712368D02*
X78214285Y54045701D01*
X77976190Y55093320D02*
X77738095Y54379035D01*
X77738095Y54379035D02*
X78357142Y54379035D01*
X16633333Y21295701D02*
X16300000Y21771892D01*
X16061905Y21295701D02*
X16061905Y22295701D01*
X16061905Y22295701D02*
X16442857Y22295701D01*
X16442857Y22295701D02*
X16538095Y22248082D01*
X16538095Y22248082D02*
X16585714Y22200463D01*
X16585714Y22200463D02*
X16633333Y22105225D01*
X16633333Y22105225D02*
X16633333Y21962368D01*
X16633333Y21962368D02*
X16585714Y21867130D01*
X16585714Y21867130D02*
X16538095Y21819511D01*
X16538095Y21819511D02*
X16442857Y21771892D01*
X16442857Y21771892D02*
X16061905Y21771892D01*
X17490476Y21962368D02*
X17490476Y21295701D01*
X17252381Y22343320D02*
X17014286Y21629035D01*
X17014286Y21629035D02*
X17633333Y21629035D01*
X36333333Y41045701D02*
X36000000Y41521892D01*
X35761905Y41045701D02*
X35761905Y42045701D01*
X35761905Y42045701D02*
X36142857Y42045701D01*
X36142857Y42045701D02*
X36238095Y41998082D01*
X36238095Y41998082D02*
X36285714Y41950463D01*
X36285714Y41950463D02*
X36333333Y41855225D01*
X36333333Y41855225D02*
X36333333Y41712368D01*
X36333333Y41712368D02*
X36285714Y41617130D01*
X36285714Y41617130D02*
X36238095Y41569511D01*
X36238095Y41569511D02*
X36142857Y41521892D01*
X36142857Y41521892D02*
X35761905Y41521892D01*
X37190476Y42045701D02*
X37000000Y42045701D01*
X37000000Y42045701D02*
X36904762Y41998082D01*
X36904762Y41998082D02*
X36857143Y41950463D01*
X36857143Y41950463D02*
X36761905Y41807606D01*
X36761905Y41807606D02*
X36714286Y41617130D01*
X36714286Y41617130D02*
X36714286Y41236178D01*
X36714286Y41236178D02*
X36761905Y41140940D01*
X36761905Y41140940D02*
X36809524Y41093320D01*
X36809524Y41093320D02*
X36904762Y41045701D01*
X36904762Y41045701D02*
X37095238Y41045701D01*
X37095238Y41045701D02*
X37190476Y41093320D01*
X37190476Y41093320D02*
X37238095Y41140940D01*
X37238095Y41140940D02*
X37285714Y41236178D01*
X37285714Y41236178D02*
X37285714Y41474273D01*
X37285714Y41474273D02*
X37238095Y41569511D01*
X37238095Y41569511D02*
X37190476Y41617130D01*
X37190476Y41617130D02*
X37095238Y41664749D01*
X37095238Y41664749D02*
X36904762Y41664749D01*
X36904762Y41664749D02*
X36809524Y41617130D01*
X36809524Y41617130D02*
X36761905Y41569511D01*
X36761905Y41569511D02*
X36714286Y41474273D01*
D15*
X32661905Y76845181D02*
X32661905Y77845181D01*
X32661905Y77845181D02*
X32900000Y77845181D01*
X32900000Y77845181D02*
X33042857Y77797562D01*
X33042857Y77797562D02*
X33138095Y77702324D01*
X33138095Y77702324D02*
X33185714Y77607086D01*
X33185714Y77607086D02*
X33233333Y77416610D01*
X33233333Y77416610D02*
X33233333Y77273753D01*
X33233333Y77273753D02*
X33185714Y77083277D01*
X33185714Y77083277D02*
X33138095Y76988039D01*
X33138095Y76988039D02*
X33042857Y76892800D01*
X33042857Y76892800D02*
X32900000Y76845181D01*
X32900000Y76845181D02*
X32661905Y76845181D01*
X34185714Y76845181D02*
X33614286Y76845181D01*
X33900000Y76845181D02*
X33900000Y77845181D01*
X33900000Y77845181D02*
X33804762Y77702324D01*
X33804762Y77702324D02*
X33709524Y77607086D01*
X33709524Y77607086D02*
X33614286Y77559467D01*
D14*
X70583333Y70090940D02*
X70535714Y70043320D01*
X70535714Y70043320D02*
X70392857Y69995701D01*
X70392857Y69995701D02*
X70297619Y69995701D01*
X70297619Y69995701D02*
X70154762Y70043320D01*
X70154762Y70043320D02*
X70059524Y70138559D01*
X70059524Y70138559D02*
X70011905Y70233797D01*
X70011905Y70233797D02*
X69964286Y70424273D01*
X69964286Y70424273D02*
X69964286Y70567130D01*
X69964286Y70567130D02*
X70011905Y70757606D01*
X70011905Y70757606D02*
X70059524Y70852844D01*
X70059524Y70852844D02*
X70154762Y70948082D01*
X70154762Y70948082D02*
X70297619Y70995701D01*
X70297619Y70995701D02*
X70392857Y70995701D01*
X70392857Y70995701D02*
X70535714Y70948082D01*
X70535714Y70948082D02*
X70583333Y70900463D01*
X70916667Y70995701D02*
X71535714Y70995701D01*
X71535714Y70995701D02*
X71202381Y70614749D01*
X71202381Y70614749D02*
X71345238Y70614749D01*
X71345238Y70614749D02*
X71440476Y70567130D01*
X71440476Y70567130D02*
X71488095Y70519511D01*
X71488095Y70519511D02*
X71535714Y70424273D01*
X71535714Y70424273D02*
X71535714Y70186178D01*
X71535714Y70186178D02*
X71488095Y70090940D01*
X71488095Y70090940D02*
X71440476Y70043320D01*
X71440476Y70043320D02*
X71345238Y69995701D01*
X71345238Y69995701D02*
X71059524Y69995701D01*
X71059524Y69995701D02*
X70964286Y70043320D01*
X70964286Y70043320D02*
X70916667Y70090940D01*
X37833333Y30795701D02*
X37500000Y31271892D01*
X37261905Y30795701D02*
X37261905Y31795701D01*
X37261905Y31795701D02*
X37642857Y31795701D01*
X37642857Y31795701D02*
X37738095Y31748082D01*
X37738095Y31748082D02*
X37785714Y31700463D01*
X37785714Y31700463D02*
X37833333Y31605225D01*
X37833333Y31605225D02*
X37833333Y31462368D01*
X37833333Y31462368D02*
X37785714Y31367130D01*
X37785714Y31367130D02*
X37738095Y31319511D01*
X37738095Y31319511D02*
X37642857Y31271892D01*
X37642857Y31271892D02*
X37261905Y31271892D01*
X38166667Y31795701D02*
X38785714Y31795701D01*
X38785714Y31795701D02*
X38452381Y31414749D01*
X38452381Y31414749D02*
X38595238Y31414749D01*
X38595238Y31414749D02*
X38690476Y31367130D01*
X38690476Y31367130D02*
X38738095Y31319511D01*
X38738095Y31319511D02*
X38785714Y31224273D01*
X38785714Y31224273D02*
X38785714Y30986178D01*
X38785714Y30986178D02*
X38738095Y30890940D01*
X38738095Y30890940D02*
X38690476Y30843320D01*
X38690476Y30843320D02*
X38595238Y30795701D01*
X38595238Y30795701D02*
X38309524Y30795701D01*
X38309524Y30795701D02*
X38214286Y30843320D01*
X38214286Y30843320D02*
X38166667Y30890940D01*
X70583333Y76090940D02*
X70535714Y76043320D01*
X70535714Y76043320D02*
X70392857Y75995701D01*
X70392857Y75995701D02*
X70297619Y75995701D01*
X70297619Y75995701D02*
X70154762Y76043320D01*
X70154762Y76043320D02*
X70059524Y76138559D01*
X70059524Y76138559D02*
X70011905Y76233797D01*
X70011905Y76233797D02*
X69964286Y76424273D01*
X69964286Y76424273D02*
X69964286Y76567130D01*
X69964286Y76567130D02*
X70011905Y76757606D01*
X70011905Y76757606D02*
X70059524Y76852844D01*
X70059524Y76852844D02*
X70154762Y76948082D01*
X70154762Y76948082D02*
X70297619Y76995701D01*
X70297619Y76995701D02*
X70392857Y76995701D01*
X70392857Y76995701D02*
X70535714Y76948082D01*
X70535714Y76948082D02*
X70583333Y76900463D01*
X70964286Y76900463D02*
X71011905Y76948082D01*
X71011905Y76948082D02*
X71107143Y76995701D01*
X71107143Y76995701D02*
X71345238Y76995701D01*
X71345238Y76995701D02*
X71440476Y76948082D01*
X71440476Y76948082D02*
X71488095Y76900463D01*
X71488095Y76900463D02*
X71535714Y76805225D01*
X71535714Y76805225D02*
X71535714Y76709987D01*
X71535714Y76709987D02*
X71488095Y76567130D01*
X71488095Y76567130D02*
X70916667Y75995701D01*
X70916667Y75995701D02*
X71535714Y75995701D01*
X94466666Y53745701D02*
X94466666Y53031416D01*
X94466666Y53031416D02*
X94419047Y52888559D01*
X94419047Y52888559D02*
X94323809Y52793320D01*
X94323809Y52793320D02*
X94180952Y52745701D01*
X94180952Y52745701D02*
X94085714Y52745701D01*
X95371428Y53412368D02*
X95371428Y52745701D01*
X95133333Y53793320D02*
X94895238Y53079035D01*
X94895238Y53079035D02*
X95514285Y53079035D01*
X9183333Y63640940D02*
X9135714Y63593320D01*
X9135714Y63593320D02*
X8992857Y63545701D01*
X8992857Y63545701D02*
X8897619Y63545701D01*
X8897619Y63545701D02*
X8754762Y63593320D01*
X8754762Y63593320D02*
X8659524Y63688559D01*
X8659524Y63688559D02*
X8611905Y63783797D01*
X8611905Y63783797D02*
X8564286Y63974273D01*
X8564286Y63974273D02*
X8564286Y64117130D01*
X8564286Y64117130D02*
X8611905Y64307606D01*
X8611905Y64307606D02*
X8659524Y64402844D01*
X8659524Y64402844D02*
X8754762Y64498082D01*
X8754762Y64498082D02*
X8897619Y64545701D01*
X8897619Y64545701D02*
X8992857Y64545701D01*
X8992857Y64545701D02*
X9135714Y64498082D01*
X9135714Y64498082D02*
X9183333Y64450463D01*
X9516667Y64545701D02*
X10183333Y64545701D01*
X10183333Y64545701D02*
X9754762Y63545701D01*
X41904761Y41450463D02*
X41809523Y41498082D01*
X41809523Y41498082D02*
X41714285Y41593320D01*
X41714285Y41593320D02*
X41571428Y41736178D01*
X41571428Y41736178D02*
X41476190Y41783797D01*
X41476190Y41783797D02*
X41380952Y41783797D01*
X41428571Y41545701D02*
X41333333Y41593320D01*
X41333333Y41593320D02*
X41238095Y41688559D01*
X41238095Y41688559D02*
X41190476Y41879035D01*
X41190476Y41879035D02*
X41190476Y42212368D01*
X41190476Y42212368D02*
X41238095Y42402844D01*
X41238095Y42402844D02*
X41333333Y42498082D01*
X41333333Y42498082D02*
X41428571Y42545701D01*
X41428571Y42545701D02*
X41619047Y42545701D01*
X41619047Y42545701D02*
X41714285Y42498082D01*
X41714285Y42498082D02*
X41809523Y42402844D01*
X41809523Y42402844D02*
X41857142Y42212368D01*
X41857142Y42212368D02*
X41857142Y41879035D01*
X41857142Y41879035D02*
X41809523Y41688559D01*
X41809523Y41688559D02*
X41714285Y41593320D01*
X41714285Y41593320D02*
X41619047Y41545701D01*
X41619047Y41545701D02*
X41428571Y41545701D01*
X42809523Y41545701D02*
X42238095Y41545701D01*
X42523809Y41545701D02*
X42523809Y42545701D01*
X42523809Y42545701D02*
X42428571Y42402844D01*
X42428571Y42402844D02*
X42333333Y42307606D01*
X42333333Y42307606D02*
X42238095Y42259987D01*
X52933333Y86045701D02*
X52600000Y86521892D01*
X52361905Y86045701D02*
X52361905Y87045701D01*
X52361905Y87045701D02*
X52742857Y87045701D01*
X52742857Y87045701D02*
X52838095Y86998082D01*
X52838095Y86998082D02*
X52885714Y86950463D01*
X52885714Y86950463D02*
X52933333Y86855225D01*
X52933333Y86855225D02*
X52933333Y86712368D01*
X52933333Y86712368D02*
X52885714Y86617130D01*
X52885714Y86617130D02*
X52838095Y86569511D01*
X52838095Y86569511D02*
X52742857Y86521892D01*
X52742857Y86521892D02*
X52361905Y86521892D01*
X53314286Y86950463D02*
X53361905Y86998082D01*
X53361905Y86998082D02*
X53457143Y87045701D01*
X53457143Y87045701D02*
X53695238Y87045701D01*
X53695238Y87045701D02*
X53790476Y86998082D01*
X53790476Y86998082D02*
X53838095Y86950463D01*
X53838095Y86950463D02*
X53885714Y86855225D01*
X53885714Y86855225D02*
X53885714Y86759987D01*
X53885714Y86759987D02*
X53838095Y86617130D01*
X53838095Y86617130D02*
X53266667Y86045701D01*
X53266667Y86045701D02*
X53885714Y86045701D01*
X46440833Y64665701D02*
X46107500Y65141892D01*
X45869405Y64665701D02*
X45869405Y65665701D01*
X45869405Y65665701D02*
X46250357Y65665701D01*
X46250357Y65665701D02*
X46345595Y65618082D01*
X46345595Y65618082D02*
X46393214Y65570463D01*
X46393214Y65570463D02*
X46440833Y65475225D01*
X46440833Y65475225D02*
X46440833Y65332368D01*
X46440833Y65332368D02*
X46393214Y65237130D01*
X46393214Y65237130D02*
X46345595Y65189511D01*
X46345595Y65189511D02*
X46250357Y65141892D01*
X46250357Y65141892D02*
X45869405Y65141892D01*
X47012262Y65237130D02*
X46917024Y65284749D01*
X46917024Y65284749D02*
X46869405Y65332368D01*
X46869405Y65332368D02*
X46821786Y65427606D01*
X46821786Y65427606D02*
X46821786Y65475225D01*
X46821786Y65475225D02*
X46869405Y65570463D01*
X46869405Y65570463D02*
X46917024Y65618082D01*
X46917024Y65618082D02*
X47012262Y65665701D01*
X47012262Y65665701D02*
X47202738Y65665701D01*
X47202738Y65665701D02*
X47297976Y65618082D01*
X47297976Y65618082D02*
X47345595Y65570463D01*
X47345595Y65570463D02*
X47393214Y65475225D01*
X47393214Y65475225D02*
X47393214Y65427606D01*
X47393214Y65427606D02*
X47345595Y65332368D01*
X47345595Y65332368D02*
X47297976Y65284749D01*
X47297976Y65284749D02*
X47202738Y65237130D01*
X47202738Y65237130D02*
X47012262Y65237130D01*
X47012262Y65237130D02*
X46917024Y65189511D01*
X46917024Y65189511D02*
X46869405Y65141892D01*
X46869405Y65141892D02*
X46821786Y65046654D01*
X46821786Y65046654D02*
X46821786Y64856178D01*
X46821786Y64856178D02*
X46869405Y64760940D01*
X46869405Y64760940D02*
X46917024Y64713320D01*
X46917024Y64713320D02*
X47012262Y64665701D01*
X47012262Y64665701D02*
X47202738Y64665701D01*
X47202738Y64665701D02*
X47297976Y64713320D01*
X47297976Y64713320D02*
X47345595Y64760940D01*
X47345595Y64760940D02*
X47393214Y64856178D01*
X47393214Y64856178D02*
X47393214Y65046654D01*
X47393214Y65046654D02*
X47345595Y65141892D01*
X47345595Y65141892D02*
X47297976Y65189511D01*
X47297976Y65189511D02*
X47202738Y65237130D01*
X32107142Y40445701D02*
X31773809Y40921892D01*
X31535714Y40445701D02*
X31535714Y41445701D01*
X31535714Y41445701D02*
X31916666Y41445701D01*
X31916666Y41445701D02*
X32011904Y41398082D01*
X32011904Y41398082D02*
X32059523Y41350463D01*
X32059523Y41350463D02*
X32107142Y41255225D01*
X32107142Y41255225D02*
X32107142Y41112368D01*
X32107142Y41112368D02*
X32059523Y41017130D01*
X32059523Y41017130D02*
X32011904Y40969511D01*
X32011904Y40969511D02*
X31916666Y40921892D01*
X31916666Y40921892D02*
X31535714Y40921892D01*
X33059523Y40445701D02*
X32488095Y40445701D01*
X32773809Y40445701D02*
X32773809Y41445701D01*
X32773809Y41445701D02*
X32678571Y41302844D01*
X32678571Y41302844D02*
X32583333Y41207606D01*
X32583333Y41207606D02*
X32488095Y41159987D01*
X33678571Y41445701D02*
X33773809Y41445701D01*
X33773809Y41445701D02*
X33869047Y41398082D01*
X33869047Y41398082D02*
X33916666Y41350463D01*
X33916666Y41350463D02*
X33964285Y41255225D01*
X33964285Y41255225D02*
X34011904Y41064749D01*
X34011904Y41064749D02*
X34011904Y40826654D01*
X34011904Y40826654D02*
X33964285Y40636178D01*
X33964285Y40636178D02*
X33916666Y40540940D01*
X33916666Y40540940D02*
X33869047Y40493320D01*
X33869047Y40493320D02*
X33773809Y40445701D01*
X33773809Y40445701D02*
X33678571Y40445701D01*
X33678571Y40445701D02*
X33583333Y40493320D01*
X33583333Y40493320D02*
X33535714Y40540940D01*
X33535714Y40540940D02*
X33488095Y40636178D01*
X33488095Y40636178D02*
X33440476Y40826654D01*
X33440476Y40826654D02*
X33440476Y41064749D01*
X33440476Y41064749D02*
X33488095Y41255225D01*
X33488095Y41255225D02*
X33535714Y41350463D01*
X33535714Y41350463D02*
X33583333Y41398082D01*
X33583333Y41398082D02*
X33678571Y41445701D01*
D15*
X81861905Y28645181D02*
X81861905Y29645181D01*
X81861905Y29645181D02*
X82100000Y29645181D01*
X82100000Y29645181D02*
X82242857Y29597562D01*
X82242857Y29597562D02*
X82338095Y29502324D01*
X82338095Y29502324D02*
X82385714Y29407086D01*
X82385714Y29407086D02*
X82433333Y29216610D01*
X82433333Y29216610D02*
X82433333Y29073753D01*
X82433333Y29073753D02*
X82385714Y28883277D01*
X82385714Y28883277D02*
X82338095Y28788039D01*
X82338095Y28788039D02*
X82242857Y28692800D01*
X82242857Y28692800D02*
X82100000Y28645181D01*
X82100000Y28645181D02*
X81861905Y28645181D01*
X83290476Y29645181D02*
X83100000Y29645181D01*
X83100000Y29645181D02*
X83004762Y29597562D01*
X83004762Y29597562D02*
X82957143Y29549943D01*
X82957143Y29549943D02*
X82861905Y29407086D01*
X82861905Y29407086D02*
X82814286Y29216610D01*
X82814286Y29216610D02*
X82814286Y28835658D01*
X82814286Y28835658D02*
X82861905Y28740420D01*
X82861905Y28740420D02*
X82909524Y28692800D01*
X82909524Y28692800D02*
X83004762Y28645181D01*
X83004762Y28645181D02*
X83195238Y28645181D01*
X83195238Y28645181D02*
X83290476Y28692800D01*
X83290476Y28692800D02*
X83338095Y28740420D01*
X83338095Y28740420D02*
X83385714Y28835658D01*
X83385714Y28835658D02*
X83385714Y29073753D01*
X83385714Y29073753D02*
X83338095Y29168991D01*
X83338095Y29168991D02*
X83290476Y29216610D01*
X83290476Y29216610D02*
X83195238Y29264229D01*
X83195238Y29264229D02*
X83004762Y29264229D01*
X83004762Y29264229D02*
X82909524Y29216610D01*
X82909524Y29216610D02*
X82861905Y29168991D01*
X82861905Y29168991D02*
X82814286Y29073753D01*
D14*
X33785714Y25365701D02*
X33785714Y26365701D01*
X33785714Y26365701D02*
X34023809Y26365701D01*
X34023809Y26365701D02*
X34166666Y26318082D01*
X34166666Y26318082D02*
X34261904Y26222844D01*
X34261904Y26222844D02*
X34309523Y26127606D01*
X34309523Y26127606D02*
X34357142Y25937130D01*
X34357142Y25937130D02*
X34357142Y25794273D01*
X34357142Y25794273D02*
X34309523Y25603797D01*
X34309523Y25603797D02*
X34261904Y25508559D01*
X34261904Y25508559D02*
X34166666Y25413320D01*
X34166666Y25413320D02*
X34023809Y25365701D01*
X34023809Y25365701D02*
X33785714Y25365701D01*
X35309523Y25365701D02*
X34738095Y25365701D01*
X35023809Y25365701D02*
X35023809Y26365701D01*
X35023809Y26365701D02*
X34928571Y26222844D01*
X34928571Y26222844D02*
X34833333Y26127606D01*
X34833333Y26127606D02*
X34738095Y26079987D01*
X35928571Y26365701D02*
X36023809Y26365701D01*
X36023809Y26365701D02*
X36119047Y26318082D01*
X36119047Y26318082D02*
X36166666Y26270463D01*
X36166666Y26270463D02*
X36214285Y26175225D01*
X36214285Y26175225D02*
X36261904Y25984749D01*
X36261904Y25984749D02*
X36261904Y25746654D01*
X36261904Y25746654D02*
X36214285Y25556178D01*
X36214285Y25556178D02*
X36166666Y25460940D01*
X36166666Y25460940D02*
X36119047Y25413320D01*
X36119047Y25413320D02*
X36023809Y25365701D01*
X36023809Y25365701D02*
X35928571Y25365701D01*
X35928571Y25365701D02*
X35833333Y25413320D01*
X35833333Y25413320D02*
X35785714Y25460940D01*
X35785714Y25460940D02*
X35738095Y25556178D01*
X35738095Y25556178D02*
X35690476Y25746654D01*
X35690476Y25746654D02*
X35690476Y25984749D01*
X35690476Y25984749D02*
X35738095Y26175225D01*
X35738095Y26175225D02*
X35785714Y26270463D01*
X35785714Y26270463D02*
X35833333Y26318082D01*
X35833333Y26318082D02*
X35928571Y26365701D01*
X30183334Y85295702D02*
X29850001Y85771893D01*
X29611906Y85295702D02*
X29611906Y86295702D01*
X29611906Y86295702D02*
X29992858Y86295702D01*
X29992858Y86295702D02*
X30088096Y86248083D01*
X30088096Y86248083D02*
X30135715Y86200464D01*
X30135715Y86200464D02*
X30183334Y86105226D01*
X30183334Y86105226D02*
X30183334Y85962369D01*
X30183334Y85962369D02*
X30135715Y85867131D01*
X30135715Y85867131D02*
X30088096Y85819512D01*
X30088096Y85819512D02*
X29992858Y85771893D01*
X29992858Y85771893D02*
X29611906Y85771893D01*
X31088096Y86295702D02*
X30611906Y86295702D01*
X30611906Y86295702D02*
X30564287Y85819512D01*
X30564287Y85819512D02*
X30611906Y85867131D01*
X30611906Y85867131D02*
X30707144Y85914750D01*
X30707144Y85914750D02*
X30945239Y85914750D01*
X30945239Y85914750D02*
X31040477Y85867131D01*
X31040477Y85867131D02*
X31088096Y85819512D01*
X31088096Y85819512D02*
X31135715Y85724274D01*
X31135715Y85724274D02*
X31135715Y85486179D01*
X31135715Y85486179D02*
X31088096Y85390941D01*
X31088096Y85390941D02*
X31040477Y85343321D01*
X31040477Y85343321D02*
X30945239Y85295702D01*
X30945239Y85295702D02*
X30707144Y85295702D01*
X30707144Y85295702D02*
X30611906Y85343321D01*
X30611906Y85343321D02*
X30564287Y85390941D01*
X14373809Y60546892D02*
X14373809Y60070701D01*
X14040476Y61070701D02*
X14373809Y60546892D01*
X14373809Y60546892D02*
X14707142Y61070701D01*
X15564285Y60070701D02*
X14992857Y60070701D01*
X15278571Y60070701D02*
X15278571Y61070701D01*
X15278571Y61070701D02*
X15183333Y60927844D01*
X15183333Y60927844D02*
X15088095Y60832606D01*
X15088095Y60832606D02*
X14992857Y60784987D01*
X37319405Y64795701D02*
X37319405Y65795701D01*
X37319405Y65795701D02*
X37557500Y65795701D01*
X37557500Y65795701D02*
X37700357Y65748082D01*
X37700357Y65748082D02*
X37795595Y65652844D01*
X37795595Y65652844D02*
X37843214Y65557606D01*
X37843214Y65557606D02*
X37890833Y65367130D01*
X37890833Y65367130D02*
X37890833Y65224273D01*
X37890833Y65224273D02*
X37843214Y65033797D01*
X37843214Y65033797D02*
X37795595Y64938559D01*
X37795595Y64938559D02*
X37700357Y64843320D01*
X37700357Y64843320D02*
X37557500Y64795701D01*
X37557500Y64795701D02*
X37319405Y64795701D01*
X38747976Y65462368D02*
X38747976Y64795701D01*
X38509881Y65843320D02*
X38271786Y65129035D01*
X38271786Y65129035D02*
X38890833Y65129035D01*
X46440833Y55545701D02*
X46107500Y56021892D01*
X45869405Y55545701D02*
X45869405Y56545701D01*
X45869405Y56545701D02*
X46250357Y56545701D01*
X46250357Y56545701D02*
X46345595Y56498082D01*
X46345595Y56498082D02*
X46393214Y56450463D01*
X46393214Y56450463D02*
X46440833Y56355225D01*
X46440833Y56355225D02*
X46440833Y56212368D01*
X46440833Y56212368D02*
X46393214Y56117130D01*
X46393214Y56117130D02*
X46345595Y56069511D01*
X46345595Y56069511D02*
X46250357Y56021892D01*
X46250357Y56021892D02*
X45869405Y56021892D01*
X46917024Y55545701D02*
X47107500Y55545701D01*
X47107500Y55545701D02*
X47202738Y55593320D01*
X47202738Y55593320D02*
X47250357Y55640940D01*
X47250357Y55640940D02*
X47345595Y55783797D01*
X47345595Y55783797D02*
X47393214Y55974273D01*
X47393214Y55974273D02*
X47393214Y56355225D01*
X47393214Y56355225D02*
X47345595Y56450463D01*
X47345595Y56450463D02*
X47297976Y56498082D01*
X47297976Y56498082D02*
X47202738Y56545701D01*
X47202738Y56545701D02*
X47012262Y56545701D01*
X47012262Y56545701D02*
X46917024Y56498082D01*
X46917024Y56498082D02*
X46869405Y56450463D01*
X46869405Y56450463D02*
X46821786Y56355225D01*
X46821786Y56355225D02*
X46821786Y56117130D01*
X46821786Y56117130D02*
X46869405Y56021892D01*
X46869405Y56021892D02*
X46917024Y55974273D01*
X46917024Y55974273D02*
X47012262Y55926654D01*
X47012262Y55926654D02*
X47202738Y55926654D01*
X47202738Y55926654D02*
X47297976Y55974273D01*
X47297976Y55974273D02*
X47345595Y56021892D01*
X47345595Y56021892D02*
X47393214Y56117130D01*
X5266667Y21843320D02*
X5409524Y21795701D01*
X5409524Y21795701D02*
X5647619Y21795701D01*
X5647619Y21795701D02*
X5742857Y21843320D01*
X5742857Y21843320D02*
X5790476Y21890940D01*
X5790476Y21890940D02*
X5838095Y21986178D01*
X5838095Y21986178D02*
X5838095Y22081416D01*
X5838095Y22081416D02*
X5790476Y22176654D01*
X5790476Y22176654D02*
X5742857Y22224273D01*
X5742857Y22224273D02*
X5647619Y22271892D01*
X5647619Y22271892D02*
X5457143Y22319511D01*
X5457143Y22319511D02*
X5361905Y22367130D01*
X5361905Y22367130D02*
X5314286Y22414749D01*
X5314286Y22414749D02*
X5266667Y22509987D01*
X5266667Y22509987D02*
X5266667Y22605225D01*
X5266667Y22605225D02*
X5314286Y22700463D01*
X5314286Y22700463D02*
X5361905Y22748082D01*
X5361905Y22748082D02*
X5457143Y22795701D01*
X5457143Y22795701D02*
X5695238Y22795701D01*
X5695238Y22795701D02*
X5838095Y22748082D01*
X6171429Y22795701D02*
X6409524Y21795701D01*
X6409524Y21795701D02*
X6600000Y22509987D01*
X6600000Y22509987D02*
X6790476Y21795701D01*
X6790476Y21795701D02*
X7028572Y22795701D01*
X7933333Y21795701D02*
X7361905Y21795701D01*
X7647619Y21795701D02*
X7647619Y22795701D01*
X7647619Y22795701D02*
X7552381Y22652844D01*
X7552381Y22652844D02*
X7457143Y22557606D01*
X7457143Y22557606D02*
X7361905Y22509987D01*
D15*
X81961905Y9545181D02*
X81961905Y10545181D01*
X81961905Y10545181D02*
X82200000Y10545181D01*
X82200000Y10545181D02*
X82342857Y10497562D01*
X82342857Y10497562D02*
X82438095Y10402324D01*
X82438095Y10402324D02*
X82485714Y10307086D01*
X82485714Y10307086D02*
X82533333Y10116610D01*
X82533333Y10116610D02*
X82533333Y9973753D01*
X82533333Y9973753D02*
X82485714Y9783277D01*
X82485714Y9783277D02*
X82438095Y9688039D01*
X82438095Y9688039D02*
X82342857Y9592800D01*
X82342857Y9592800D02*
X82200000Y9545181D01*
X82200000Y9545181D02*
X81961905Y9545181D01*
X83104762Y10116610D02*
X83009524Y10164229D01*
X83009524Y10164229D02*
X82961905Y10211848D01*
X82961905Y10211848D02*
X82914286Y10307086D01*
X82914286Y10307086D02*
X82914286Y10354705D01*
X82914286Y10354705D02*
X82961905Y10449943D01*
X82961905Y10449943D02*
X83009524Y10497562D01*
X83009524Y10497562D02*
X83104762Y10545181D01*
X83104762Y10545181D02*
X83295238Y10545181D01*
X83295238Y10545181D02*
X83390476Y10497562D01*
X83390476Y10497562D02*
X83438095Y10449943D01*
X83438095Y10449943D02*
X83485714Y10354705D01*
X83485714Y10354705D02*
X83485714Y10307086D01*
X83485714Y10307086D02*
X83438095Y10211848D01*
X83438095Y10211848D02*
X83390476Y10164229D01*
X83390476Y10164229D02*
X83295238Y10116610D01*
X83295238Y10116610D02*
X83104762Y10116610D01*
X83104762Y10116610D02*
X83009524Y10068991D01*
X83009524Y10068991D02*
X82961905Y10021372D01*
X82961905Y10021372D02*
X82914286Y9926134D01*
X82914286Y9926134D02*
X82914286Y9735658D01*
X82914286Y9735658D02*
X82961905Y9640420D01*
X82961905Y9640420D02*
X83009524Y9592800D01*
X83009524Y9592800D02*
X83104762Y9545181D01*
X83104762Y9545181D02*
X83295238Y9545181D01*
X83295238Y9545181D02*
X83390476Y9592800D01*
X83390476Y9592800D02*
X83438095Y9640420D01*
X83438095Y9640420D02*
X83485714Y9735658D01*
X83485714Y9735658D02*
X83485714Y9926134D01*
X83485714Y9926134D02*
X83438095Y10021372D01*
X83438095Y10021372D02*
X83390476Y10068991D01*
X83390476Y10068991D02*
X83295238Y10116610D01*
D14*
X37319405Y55545701D02*
X37319405Y56545701D01*
X37319405Y56545701D02*
X37557500Y56545701D01*
X37557500Y56545701D02*
X37700357Y56498082D01*
X37700357Y56498082D02*
X37795595Y56402844D01*
X37795595Y56402844D02*
X37843214Y56307606D01*
X37843214Y56307606D02*
X37890833Y56117130D01*
X37890833Y56117130D02*
X37890833Y55974273D01*
X37890833Y55974273D02*
X37843214Y55783797D01*
X37843214Y55783797D02*
X37795595Y55688559D01*
X37795595Y55688559D02*
X37700357Y55593320D01*
X37700357Y55593320D02*
X37557500Y55545701D01*
X37557500Y55545701D02*
X37319405Y55545701D01*
X38795595Y56545701D02*
X38319405Y56545701D01*
X38319405Y56545701D02*
X38271786Y56069511D01*
X38271786Y56069511D02*
X38319405Y56117130D01*
X38319405Y56117130D02*
X38414643Y56164749D01*
X38414643Y56164749D02*
X38652738Y56164749D01*
X38652738Y56164749D02*
X38747976Y56117130D01*
X38747976Y56117130D02*
X38795595Y56069511D01*
X38795595Y56069511D02*
X38843214Y55974273D01*
X38843214Y55974273D02*
X38843214Y55736178D01*
X38843214Y55736178D02*
X38795595Y55640940D01*
X38795595Y55640940D02*
X38747976Y55593320D01*
X38747976Y55593320D02*
X38652738Y55545701D01*
X38652738Y55545701D02*
X38414643Y55545701D01*
X38414643Y55545701D02*
X38319405Y55593320D01*
X38319405Y55593320D02*
X38271786Y55640940D01*
X5516666Y72795701D02*
X5516666Y72081416D01*
X5516666Y72081416D02*
X5469047Y71938559D01*
X5469047Y71938559D02*
X5373809Y71843320D01*
X5373809Y71843320D02*
X5230952Y71795701D01*
X5230952Y71795701D02*
X5135714Y71795701D01*
X6516666Y71795701D02*
X5945238Y71795701D01*
X6230952Y71795701D02*
X6230952Y72795701D01*
X6230952Y72795701D02*
X6135714Y72652844D01*
X6135714Y72652844D02*
X6040476Y72557606D01*
X6040476Y72557606D02*
X5945238Y72509987D01*
X40857142Y25295701D02*
X40523809Y25771892D01*
X40285714Y25295701D02*
X40285714Y26295701D01*
X40285714Y26295701D02*
X40666666Y26295701D01*
X40666666Y26295701D02*
X40761904Y26248082D01*
X40761904Y26248082D02*
X40809523Y26200463D01*
X40809523Y26200463D02*
X40857142Y26105225D01*
X40857142Y26105225D02*
X40857142Y25962368D01*
X40857142Y25962368D02*
X40809523Y25867130D01*
X40809523Y25867130D02*
X40761904Y25819511D01*
X40761904Y25819511D02*
X40666666Y25771892D01*
X40666666Y25771892D02*
X40285714Y25771892D01*
X41809523Y25295701D02*
X41238095Y25295701D01*
X41523809Y25295701D02*
X41523809Y26295701D01*
X41523809Y26295701D02*
X41428571Y26152844D01*
X41428571Y26152844D02*
X41333333Y26057606D01*
X41333333Y26057606D02*
X41238095Y26009987D01*
X42190476Y26200463D02*
X42238095Y26248082D01*
X42238095Y26248082D02*
X42333333Y26295701D01*
X42333333Y26295701D02*
X42571428Y26295701D01*
X42571428Y26295701D02*
X42666666Y26248082D01*
X42666666Y26248082D02*
X42714285Y26200463D01*
X42714285Y26200463D02*
X42761904Y26105225D01*
X42761904Y26105225D02*
X42761904Y26009987D01*
X42761904Y26009987D02*
X42714285Y25867130D01*
X42714285Y25867130D02*
X42142857Y25295701D01*
X42142857Y25295701D02*
X42761904Y25295701D01*
X22861905Y85545701D02*
X22861905Y86545701D01*
X22861905Y86545701D02*
X23100000Y86545701D01*
X23100000Y86545701D02*
X23242857Y86498082D01*
X23242857Y86498082D02*
X23338095Y86402844D01*
X23338095Y86402844D02*
X23385714Y86307606D01*
X23385714Y86307606D02*
X23433333Y86117130D01*
X23433333Y86117130D02*
X23433333Y85974273D01*
X23433333Y85974273D02*
X23385714Y85783797D01*
X23385714Y85783797D02*
X23338095Y85688559D01*
X23338095Y85688559D02*
X23242857Y85593320D01*
X23242857Y85593320D02*
X23100000Y85545701D01*
X23100000Y85545701D02*
X22861905Y85545701D01*
X23766667Y86545701D02*
X24385714Y86545701D01*
X24385714Y86545701D02*
X24052381Y86164749D01*
X24052381Y86164749D02*
X24195238Y86164749D01*
X24195238Y86164749D02*
X24290476Y86117130D01*
X24290476Y86117130D02*
X24338095Y86069511D01*
X24338095Y86069511D02*
X24385714Y85974273D01*
X24385714Y85974273D02*
X24385714Y85736178D01*
X24385714Y85736178D02*
X24338095Y85640940D01*
X24338095Y85640940D02*
X24290476Y85593320D01*
X24290476Y85593320D02*
X24195238Y85545701D01*
X24195238Y85545701D02*
X23909524Y85545701D01*
X23909524Y85545701D02*
X23814286Y85593320D01*
X23814286Y85593320D02*
X23766667Y85640940D01*
D16*
%TO.C,C10*%
X86838748Y16010000D02*
X88261252Y16010000D01*
X86838748Y14190000D02*
X88261252Y14190000D01*
%TO.C,C5*%
X71461252Y63910000D02*
X70038748Y63910000D01*
X71461252Y62090000D02*
X70038748Y62090000D01*
%TO.C,C4*%
X71461252Y68410000D02*
X70038748Y68410000D01*
X71461252Y66590000D02*
X70038748Y66590000D01*
%TO.C,Q2*%
X43440000Y48087500D02*
X43440000Y48737500D01*
X43440000Y48087500D02*
X43440000Y47437500D01*
X46560000Y48087500D02*
X46560000Y48737500D01*
X46560000Y48087500D02*
X46560000Y47437500D01*
X46840000Y49010000D02*
X46510000Y49250000D01*
X46840000Y49490000D01*
X46840000Y49010000D01*
G36*
X46840000Y49010000D02*
G01*
X46510000Y49250000D01*
X46840000Y49490000D01*
X46840000Y49010000D01*
G37*
%TO.C,C6*%
X25138748Y56410000D02*
X26561252Y56410000D01*
X25138748Y54590000D02*
X26561252Y54590000D01*
D17*
%TO.C,J3*%
X62650000Y24270000D02*
X62650000Y23000000D01*
X62650000Y14730000D02*
X62650000Y16000000D01*
X63250000Y24270000D02*
X62650000Y24270000D01*
X66750000Y14730000D02*
X62650000Y14730000D01*
X70750000Y24270000D02*
X74850000Y24270000D01*
X74850000Y24270000D02*
X74850000Y23000000D01*
X74850000Y16000000D02*
X74850000Y14730000D01*
X74850000Y14730000D02*
X74250000Y14730000D01*
D13*
X75650000Y22200000D02*
X75650000Y22200000D01*
X75650000Y22000000D02*
X75650000Y22000000D01*
X75650000Y22200000D02*
G75*
G02*
X75650000Y22000000I0J-100000D01*
G01*
X75650000Y22000000D02*
G75*
G02*
X75650000Y22200000I0J100000D01*
G01*
D16*
%TO.C,R1*%
X62727064Y89410000D02*
X61272936Y89410000D01*
X62727064Y87590000D02*
X61272936Y87590000D01*
%TO.C,D7*%
X85140000Y20510000D02*
X85140000Y18290000D01*
X85140000Y18290000D02*
X89550000Y18290000D01*
X89550000Y20510000D02*
X85140000Y20510000D01*
%TO.C,D9*%
X54350000Y20790000D02*
X58760000Y20790000D01*
X58760000Y23010000D02*
X54350000Y23010000D01*
X58760000Y20790000D02*
X58760000Y23010000D01*
%TO.C,Q4*%
X55457500Y59660000D02*
X54807500Y59660000D01*
X55457500Y59660000D02*
X56107500Y59660000D01*
X55457500Y56540000D02*
X54807500Y56540000D01*
X55457500Y56540000D02*
X56107500Y56540000D01*
X56860000Y56260000D02*
X56380000Y56260000D01*
X56620000Y56590000D01*
X56860000Y56260000D01*
G36*
X56860000Y56260000D02*
G01*
X56380000Y56260000D01*
X56620000Y56590000D01*
X56860000Y56260000D01*
G37*
%TO.C,C9*%
X86838748Y25510000D02*
X88261252Y25510000D01*
X86838748Y23690000D02*
X88261252Y23690000D01*
%TO.C,C12*%
X56961252Y17910000D02*
X55538748Y17910000D01*
X56961252Y16090000D02*
X55538748Y16090000D01*
%TO.C,C8*%
X16940000Y64711252D02*
X16940000Y63288748D01*
X18760000Y64711252D02*
X18760000Y63288748D01*
%TO.C,R11*%
X33477064Y48910000D02*
X32022936Y48910000D01*
X33477064Y47090000D02*
X32022936Y47090000D01*
%TO.C,C1*%
X20390000Y80360000D02*
X20390000Y73600000D01*
X23810000Y80360000D02*
X20390000Y80360000D01*
X23810000Y73600000D02*
X23810000Y80360000D01*
%TO.C,R7*%
X49840000Y47972936D02*
X49840000Y49427064D01*
X51660000Y47972936D02*
X51660000Y49427064D01*
%TO.C,U3*%
X34740000Y19710000D02*
X34740000Y18965000D01*
X34740000Y13290000D02*
X34740000Y14035000D01*
X37500000Y19710000D02*
X34740000Y19710000D01*
X37500000Y19710000D02*
X40260000Y19710000D01*
X37500000Y13290000D02*
X34740000Y13290000D01*
X37500000Y13290000D02*
X40260000Y13290000D01*
X40260000Y19710000D02*
X40260000Y18965000D01*
X40260000Y13290000D02*
X40260000Y14035000D01*
X33950000Y18965000D02*
X33710000Y19295000D01*
X34190000Y19295000D01*
X33950000Y18965000D01*
G36*
X33950000Y18965000D02*
G01*
X33710000Y19295000D01*
X34190000Y19295000D01*
X33950000Y18965000D01*
G37*
%TO.C,C11*%
X86788748Y6510000D02*
X88211252Y6510000D01*
X86788748Y4690000D02*
X88211252Y4690000D01*
%TO.C,Q3*%
X55407500Y64847500D02*
X54757500Y64847500D01*
X55407500Y64847500D02*
X56057500Y64847500D01*
X55407500Y61727500D02*
X54757500Y61727500D01*
X55407500Y61727500D02*
X56057500Y61727500D01*
X56810000Y61447500D02*
X56330000Y61447500D01*
X56570000Y61777500D01*
X56810000Y61447500D01*
G36*
X56810000Y61447500D02*
G01*
X56330000Y61447500D01*
X56570000Y61777500D01*
X56810000Y61447500D01*
G37*
%TO.C,J5*%
X3520000Y37105000D02*
X3520000Y29365000D01*
X3520000Y37105000D02*
X6120000Y37105000D01*
X3520000Y29365000D02*
X8720000Y29365000D01*
X6120000Y37105000D02*
X6120000Y34505000D01*
X6120000Y34505000D02*
X8720000Y34505000D01*
X7390000Y37105000D02*
X8720000Y37105000D01*
X8720000Y37105000D02*
X8720000Y35775000D01*
X8720000Y34505000D02*
X8720000Y29365000D01*
D13*
X9490000Y37775000D02*
G75*
G02*
X9290000Y37775000I-100000J0D01*
G01*
X9290000Y37775000D02*
G75*
G02*
X9490000Y37775000I100000J0D01*
G01*
D16*
%TO.C,U1*%
X50325000Y82700000D02*
X51825000Y82700000D01*
X50325000Y72300000D02*
X51825000Y72300000D01*
X51825000Y82700000D02*
X51825000Y81750000D01*
X51825000Y72300000D02*
X51825000Y73250000D01*
X54627500Y72920000D02*
X54147500Y72920000D01*
X54387500Y73250000D01*
X54627500Y72920000D01*
G36*
X54627500Y72920000D02*
G01*
X54147500Y72920000D01*
X54387500Y73250000D01*
X54627500Y72920000D01*
G37*
%TO.C,J2*%
X34920000Y9450000D02*
X36250000Y9450000D01*
X34920000Y8120000D02*
X34920000Y9450000D01*
X37520000Y9450000D02*
X40120000Y9450000D01*
X37520000Y6790000D02*
X37520000Y9450000D01*
X37520000Y6790000D02*
X40120000Y6790000D01*
X40120000Y6790000D02*
X40120000Y9450000D01*
D15*
%TO.C,U2*%
X17225000Y48625000D02*
X17225000Y48300000D01*
X17225000Y48625000D02*
X17550000Y48625000D01*
X17225000Y41375000D02*
X17225000Y41700000D01*
X17225000Y41375000D02*
X17550000Y41375000D01*
X24475000Y48625000D02*
X24250000Y48625000D01*
X24475000Y48625000D02*
X24475000Y48300000D01*
X24475000Y41375000D02*
X24150000Y41375000D01*
X24475000Y41375000D02*
X24475000Y41700000D01*
D16*
X24660000Y49050000D02*
X24190000Y49390000D01*
X24660000Y49730000D01*
X24660000Y49050000D01*
G36*
X24660000Y49050000D02*
G01*
X24190000Y49390000D01*
X24660000Y49730000D01*
X24660000Y49050000D01*
G37*
%TO.C,D2*%
X69055000Y56890000D02*
X73465000Y56890000D01*
X73465000Y59110000D02*
X69055000Y59110000D01*
X73465000Y56890000D02*
X73465000Y59110000D01*
D18*
%TO.C,U4*%
X58450000Y52800000D02*
X58450000Y33200000D01*
X58450000Y33200000D02*
X78050000Y33200000D01*
X78050000Y52800000D02*
X58450000Y52800000D01*
X78050000Y33200000D02*
X78050000Y52800000D01*
D11*
X57950000Y49050000D02*
G75*
G02*
X57450000Y49050000I-250000J0D01*
G01*
X57450000Y49050000D02*
G75*
G02*
X57950000Y49050000I250000J0D01*
G01*
D16*
%TO.C,R4*%
X17527064Y20410000D02*
X16072936Y20410000D01*
X17527064Y18590000D02*
X16072936Y18590000D01*
%TO.C,R6*%
X37840000Y40772936D02*
X37840000Y42227064D01*
X39660000Y40772936D02*
X39660000Y42227064D01*
%TO.C,D1*%
X29590000Y79960000D02*
X29590000Y75550000D01*
X31810000Y79960000D02*
X29590000Y79960000D01*
X31810000Y75550000D02*
X31810000Y79960000D01*
%TO.C,C3*%
X67750000Y71290000D02*
X74510000Y71290000D01*
X74510000Y74710000D02*
X67750000Y74710000D01*
X74510000Y71290000D02*
X74510000Y74710000D01*
%TO.C,R3*%
X38727064Y29910000D02*
X37272936Y29910000D01*
X38727064Y28090000D02*
X37272936Y28090000D01*
%TO.C,C2*%
X67750000Y77290000D02*
X74510000Y77290000D01*
X74510000Y80710000D02*
X67750000Y80710000D01*
X74510000Y77290000D02*
X74510000Y80710000D01*
%TO.C,J4*%
X90700000Y52100000D02*
X90700000Y43900000D01*
X94300000Y52100000D02*
X94800000Y51600000D01*
X94800000Y51600000D02*
X95300000Y52100000D01*
X98900000Y52100000D02*
X90700000Y52100000D01*
X98900000Y52100000D02*
X98900000Y43900000D01*
X98900000Y43900000D02*
X90700000Y43900000D01*
%TO.C,C7*%
X10940000Y63288748D02*
X10940000Y64711252D01*
X12760000Y63288748D02*
X12760000Y64711252D01*
%TO.C,Q1*%
X43527500Y42000000D02*
X43527500Y42650000D01*
X43527500Y42000000D02*
X43527500Y41350000D01*
X46647500Y42000000D02*
X46647500Y42650000D01*
X46647500Y42000000D02*
X46647500Y41350000D01*
X43577500Y40837500D02*
X43247500Y40597500D01*
X43247500Y41077500D01*
X43577500Y40837500D01*
G36*
X43577500Y40837500D02*
G01*
X43247500Y40597500D01*
X43247500Y41077500D01*
X43577500Y40837500D01*
G37*
%TO.C,R2*%
X53827064Y89410000D02*
X52372936Y89410000D01*
X53827064Y87590000D02*
X52372936Y87590000D01*
%TO.C,R8*%
X45880436Y64210000D02*
X47334564Y64210000D01*
X45880436Y62390000D02*
X47334564Y62390000D01*
%TO.C,R10*%
X33477064Y43910000D02*
X32022936Y43910000D01*
X33477064Y42090000D02*
X32022936Y42090000D01*
%TO.C,D6*%
X85140000Y30110000D02*
X85140000Y27890000D01*
X85140000Y27890000D02*
X89550000Y27890000D01*
X89550000Y30110000D02*
X85140000Y30110000D01*
%TO.C,D10*%
X32540000Y25135000D02*
X32540000Y22865000D01*
X32540000Y22865000D02*
X36600000Y22865000D01*
X36600000Y25135000D02*
X32540000Y25135000D01*
%TO.C,R5*%
X29872936Y89410000D02*
X31327064Y89410000D01*
X29872936Y87590000D02*
X31327064Y87590000D01*
%TO.C,Y1*%
X11725000Y59525000D02*
X17975000Y59525000D01*
X11725000Y54475000D02*
X17975000Y54475000D01*
X11725000Y54475000D02*
G75*
G02*
X11725000Y59525000I0J2525000D01*
G01*
X17975000Y59525000D02*
G75*
G02*
X17975000Y54475000I0J-2525000D01*
G01*
%TO.C,D4*%
X36412500Y62165000D02*
X40472500Y62165000D01*
X40472500Y64435000D02*
X36412500Y64435000D01*
X40472500Y62165000D02*
X40472500Y64435000D01*
%TO.C,R9*%
X45880436Y59060000D02*
X47334564Y59060000D01*
X45880436Y57240000D02*
X47334564Y57240000D01*
%TO.C,SW1*%
X3350000Y18500000D02*
X3350000Y14000000D01*
X5850000Y12750000D02*
X7350000Y12750000D01*
X7350000Y19750000D02*
X5850000Y19750000D01*
X9850000Y14000000D02*
X9850000Y18500000D01*
%TO.C,D8*%
X85040000Y11110000D02*
X85040000Y8890000D01*
X85040000Y8890000D02*
X89450000Y8890000D01*
X89450000Y11110000D02*
X85040000Y11110000D01*
%TO.C,D5*%
X36412500Y56975000D02*
X40472500Y56975000D01*
X40472500Y59245000D02*
X36412500Y59245000D01*
X40472500Y56975000D02*
X40472500Y59245000D01*
%TO.C,J1*%
X500000Y83600000D02*
X15100000Y83600000D01*
X500000Y74400000D02*
X500000Y83600000D01*
X9500000Y74400000D02*
X500000Y74400000D01*
X13600000Y83840000D02*
X15340000Y83840000D01*
X15100000Y83600000D02*
X15100000Y80800000D01*
X15100000Y77200000D02*
X15100000Y74400000D01*
X15100000Y74400000D02*
X13100000Y74400000D01*
X15340000Y83840000D02*
X15340000Y82100000D01*
%TO.C,R12*%
X42227064Y24910000D02*
X40772936Y24910000D01*
X42227064Y23090000D02*
X40772936Y23090000D01*
%TO.C,D3*%
X22000000Y87365000D02*
X26060000Y87365000D01*
X26060000Y89635000D02*
X22000000Y89635000D01*
X26060000Y87365000D02*
X26060000Y89635000D01*
%TD*%
M02*
