%TF.GenerationSoftware,KiCad,Pcbnew,8.0.0*%
%TF.CreationDate,2024-03-04T22:35:08+02:00*%
%TF.ProjectId,Intercom_SMS_Sender,496e7465-7263-46f6-9d5f-534d535f5365,rev?*%
%TF.SameCoordinates,PX77ecaf0PY7735940*%
%TF.FileFunction,Paste,Top*%
%TF.FilePolarity,Positive*%
%FSLAX46Y46*%
G04 Gerber Fmt 4.6, Leading zero omitted, Abs format (unit mm)*
G04 Created by KiCad (PCBNEW 8.0.0) date 2024-03-04 22:35:08*
%MOMM*%
%LPD*%
G01*
G04 APERTURE LIST*
G04 Aperture macros list*
%AMRoundRect*
0 Rectangle with rounded corners*
0 $1 Rounding radius*
0 $2 $3 $4 $5 $6 $7 $8 $9 X,Y pos of 4 corners*
0 Add a 4 corners polygon primitive as box body*
4,1,4,$2,$3,$4,$5,$6,$7,$8,$9,$2,$3,0*
0 Add four circle primitives for the rounded corners*
1,1,$1+$1,$2,$3*
1,1,$1+$1,$4,$5*
1,1,$1+$1,$6,$7*
1,1,$1+$1,$8,$9*
0 Add four rect primitives between the rounded corners*
20,1,$1+$1,$2,$3,$4,$5,0*
20,1,$1+$1,$4,$5,$6,$7,0*
20,1,$1+$1,$6,$7,$8,$9,0*
20,1,$1+$1,$8,$9,$2,$3,0*%
G04 Aperture macros list end*
%ADD10C,0.010000*%
%ADD11RoundRect,0.250000X-0.412500X-0.650000X0.412500X-0.650000X0.412500X0.650000X-0.412500X0.650000X0*%
%ADD12RoundRect,0.250000X0.412500X0.650000X-0.412500X0.650000X-0.412500X-0.650000X0.412500X-0.650000X0*%
%ADD13RoundRect,0.150000X-0.150000X0.587500X-0.150000X-0.587500X0.150000X-0.587500X0.150000X0.587500X0*%
%ADD14R,1.100000X1.000000*%
%ADD15R,3.000000X1.000000*%
%ADD16RoundRect,0.250000X0.400000X0.625000X-0.400000X0.625000X-0.400000X-0.625000X0.400000X-0.625000X0*%
%ADD17RoundRect,0.250000X-0.400000X-0.600000X0.400000X-0.600000X0.400000X0.600000X-0.400000X0.600000X0*%
%ADD18RoundRect,0.250000X0.400000X0.600000X-0.400000X0.600000X-0.400000X-0.600000X0.400000X-0.600000X0*%
%ADD19RoundRect,0.150000X0.587500X0.150000X-0.587500X0.150000X-0.587500X-0.150000X0.587500X-0.150000X0*%
%ADD20RoundRect,0.250000X-0.650000X0.412500X-0.650000X-0.412500X0.650000X-0.412500X0.650000X0.412500X0*%
%ADD21RoundRect,0.250000X-0.925000X0.787500X-0.925000X-0.787500X0.925000X-0.787500X0.925000X0.787500X0*%
%ADD22RoundRect,0.250000X0.625000X-0.400000X0.625000X0.400000X-0.625000X0.400000X-0.625000X-0.400000X0*%
%ADD23RoundRect,0.150000X-0.800000X-0.150000X0.800000X-0.150000X0.800000X0.150000X-0.800000X0.150000X0*%
%ADD24RoundRect,0.250000X2.050000X0.300000X-2.050000X0.300000X-2.050000X-0.300000X2.050000X-0.300000X0*%
%ADD25RoundRect,0.250000X2.025000X2.375000X-2.025000X2.375000X-2.025000X-2.375000X2.025000X-2.375000X0*%
%ADD26R,0.550000X1.600000*%
%ADD27R,1.600000X0.550000*%
%ADD28RoundRect,0.250000X-0.600000X0.400000X-0.600000X-0.400000X0.600000X-0.400000X0.600000X0.400000X0*%
%ADD29RoundRect,0.250000X0.787500X0.925000X-0.787500X0.925000X-0.787500X-0.925000X0.787500X-0.925000X0*%
%ADD30RoundRect,0.250000X0.650000X-0.412500X0.650000X0.412500X-0.650000X0.412500X-0.650000X-0.412500X0*%
%ADD31RoundRect,0.150000X0.150000X-0.587500X0.150000X0.587500X-0.150000X0.587500X-0.150000X-0.587500X0*%
%ADD32RoundRect,0.250000X-0.400000X-0.625000X0.400000X-0.625000X0.400000X0.625000X-0.400000X0.625000X0*%
%ADD33RoundRect,0.250001X-0.462499X-0.624999X0.462499X-0.624999X0.462499X0.624999X-0.462499X0.624999X0*%
%ADD34RoundRect,0.250001X0.462499X0.624999X-0.462499X0.624999X-0.462499X-0.624999X0.462499X-0.624999X0*%
G04 APERTURE END LIST*
D10*
%TO.C,U4*%
X60350000Y48780000D02*
X60030000Y48780000D01*
X60030000Y49320000D01*
X60350000Y49320000D01*
X60350000Y48780000D01*
G36*
X60350000Y48780000D02*
G01*
X60030000Y48780000D01*
X60030000Y49320000D01*
X60350000Y49320000D01*
X60350000Y48780000D01*
G37*
X60350000Y47680000D02*
X60030000Y47680000D01*
X60030000Y48220000D01*
X60350000Y48220000D01*
X60350000Y47680000D01*
G36*
X60350000Y47680000D02*
G01*
X60030000Y47680000D01*
X60030000Y48220000D01*
X60350000Y48220000D01*
X60350000Y47680000D01*
G37*
X60350000Y46580000D02*
X60030000Y46580000D01*
X60030000Y47120000D01*
X60350000Y47120000D01*
X60350000Y46580000D01*
G36*
X60350000Y46580000D02*
G01*
X60030000Y46580000D01*
X60030000Y47120000D01*
X60350000Y47120000D01*
X60350000Y46580000D01*
G37*
X60350000Y45480000D02*
X60030000Y45480000D01*
X60030000Y46020000D01*
X60350000Y46020000D01*
X60350000Y45480000D01*
G36*
X60350000Y45480000D02*
G01*
X60030000Y45480000D01*
X60030000Y46020000D01*
X60350000Y46020000D01*
X60350000Y45480000D01*
G37*
X60350000Y44380000D02*
X60030000Y44380000D01*
X60030000Y44920000D01*
X60350000Y44920000D01*
X60350000Y44380000D01*
G36*
X60350000Y44380000D02*
G01*
X60030000Y44380000D01*
X60030000Y44920000D01*
X60350000Y44920000D01*
X60350000Y44380000D01*
G37*
X60350000Y43280000D02*
X60030000Y43280000D01*
X60030000Y43820000D01*
X60350000Y43820000D01*
X60350000Y43280000D01*
G36*
X60350000Y43280000D02*
G01*
X60030000Y43280000D01*
X60030000Y43820000D01*
X60350000Y43820000D01*
X60350000Y43280000D01*
G37*
X60350000Y42180000D02*
X60030000Y42180000D01*
X60030000Y42720000D01*
X60350000Y42720000D01*
X60350000Y42180000D01*
G36*
X60350000Y42180000D02*
G01*
X60030000Y42180000D01*
X60030000Y42720000D01*
X60350000Y42720000D01*
X60350000Y42180000D01*
G37*
X60350000Y41080000D02*
X60030000Y41080000D01*
X60030000Y41620000D01*
X60350000Y41620000D01*
X60350000Y41080000D01*
G36*
X60350000Y41080000D02*
G01*
X60030000Y41080000D01*
X60030000Y41620000D01*
X60350000Y41620000D01*
X60350000Y41080000D01*
G37*
X60350000Y39980000D02*
X60030000Y39980000D01*
X60030000Y40520000D01*
X60350000Y40520000D01*
X60350000Y39980000D01*
G36*
X60350000Y39980000D02*
G01*
X60030000Y39980000D01*
X60030000Y40520000D01*
X60350000Y40520000D01*
X60350000Y39980000D01*
G37*
X60350000Y38880000D02*
X60030000Y38880000D01*
X60030000Y39420000D01*
X60350000Y39420000D01*
X60350000Y38880000D01*
G36*
X60350000Y38880000D02*
G01*
X60030000Y38880000D01*
X60030000Y39420000D01*
X60350000Y39420000D01*
X60350000Y38880000D01*
G37*
X60350000Y37780000D02*
X60030000Y37780000D01*
X60030000Y38320000D01*
X60350000Y38320000D01*
X60350000Y37780000D01*
G36*
X60350000Y37780000D02*
G01*
X60030000Y37780000D01*
X60030000Y38320000D01*
X60350000Y38320000D01*
X60350000Y37780000D01*
G37*
X60350000Y36680000D02*
X60030000Y36680000D01*
X60030000Y37220000D01*
X60350000Y37220000D01*
X60350000Y36680000D01*
G36*
X60350000Y36680000D02*
G01*
X60030000Y36680000D01*
X60030000Y37220000D01*
X60350000Y37220000D01*
X60350000Y36680000D01*
G37*
X60770000Y48780000D02*
X60450000Y48780000D01*
X60450000Y49320000D01*
X60770000Y49320000D01*
X60770000Y48780000D01*
G36*
X60770000Y48780000D02*
G01*
X60450000Y48780000D01*
X60450000Y49320000D01*
X60770000Y49320000D01*
X60770000Y48780000D01*
G37*
X60770000Y47680000D02*
X60450000Y47680000D01*
X60450000Y48220000D01*
X60770000Y48220000D01*
X60770000Y47680000D01*
G36*
X60770000Y47680000D02*
G01*
X60450000Y47680000D01*
X60450000Y48220000D01*
X60770000Y48220000D01*
X60770000Y47680000D01*
G37*
X60770000Y46580000D02*
X60450000Y46580000D01*
X60450000Y47120000D01*
X60770000Y47120000D01*
X60770000Y46580000D01*
G36*
X60770000Y46580000D02*
G01*
X60450000Y46580000D01*
X60450000Y47120000D01*
X60770000Y47120000D01*
X60770000Y46580000D01*
G37*
X60770000Y45480000D02*
X60450000Y45480000D01*
X60450000Y46020000D01*
X60770000Y46020000D01*
X60770000Y45480000D01*
G36*
X60770000Y45480000D02*
G01*
X60450000Y45480000D01*
X60450000Y46020000D01*
X60770000Y46020000D01*
X60770000Y45480000D01*
G37*
X60770000Y44380000D02*
X60450000Y44380000D01*
X60450000Y44920000D01*
X60770000Y44920000D01*
X60770000Y44380000D01*
G36*
X60770000Y44380000D02*
G01*
X60450000Y44380000D01*
X60450000Y44920000D01*
X60770000Y44920000D01*
X60770000Y44380000D01*
G37*
X60770000Y43280000D02*
X60450000Y43280000D01*
X60450000Y43820000D01*
X60770000Y43820000D01*
X60770000Y43280000D01*
G36*
X60770000Y43280000D02*
G01*
X60450000Y43280000D01*
X60450000Y43820000D01*
X60770000Y43820000D01*
X60770000Y43280000D01*
G37*
X60770000Y42180000D02*
X60450000Y42180000D01*
X60450000Y42720000D01*
X60770000Y42720000D01*
X60770000Y42180000D01*
G36*
X60770000Y42180000D02*
G01*
X60450000Y42180000D01*
X60450000Y42720000D01*
X60770000Y42720000D01*
X60770000Y42180000D01*
G37*
X60770000Y41080000D02*
X60450000Y41080000D01*
X60450000Y41620000D01*
X60770000Y41620000D01*
X60770000Y41080000D01*
G36*
X60770000Y41080000D02*
G01*
X60450000Y41080000D01*
X60450000Y41620000D01*
X60770000Y41620000D01*
X60770000Y41080000D01*
G37*
X60770000Y39980000D02*
X60450000Y39980000D01*
X60450000Y40520000D01*
X60770000Y40520000D01*
X60770000Y39980000D01*
G36*
X60770000Y39980000D02*
G01*
X60450000Y39980000D01*
X60450000Y40520000D01*
X60770000Y40520000D01*
X60770000Y39980000D01*
G37*
X60770000Y38880000D02*
X60450000Y38880000D01*
X60450000Y39420000D01*
X60770000Y39420000D01*
X60770000Y38880000D01*
G36*
X60770000Y38880000D02*
G01*
X60450000Y38880000D01*
X60450000Y39420000D01*
X60770000Y39420000D01*
X60770000Y38880000D01*
G37*
X60770000Y37780000D02*
X60450000Y37780000D01*
X60450000Y38320000D01*
X60770000Y38320000D01*
X60770000Y37780000D01*
G36*
X60770000Y37780000D02*
G01*
X60450000Y37780000D01*
X60450000Y38320000D01*
X60770000Y38320000D01*
X60770000Y37780000D01*
G37*
X60770000Y36680000D02*
X60450000Y36680000D01*
X60450000Y37220000D01*
X60770000Y37220000D01*
X60770000Y36680000D01*
G36*
X60770000Y36680000D02*
G01*
X60450000Y36680000D01*
X60450000Y37220000D01*
X60770000Y37220000D01*
X60770000Y36680000D01*
G37*
X61920000Y51850000D02*
X61380000Y51850000D01*
X61380000Y52170000D01*
X61920000Y52170000D01*
X61920000Y51850000D01*
G36*
X61920000Y51850000D02*
G01*
X61380000Y51850000D01*
X61380000Y52170000D01*
X61920000Y52170000D01*
X61920000Y51850000D01*
G37*
X61920000Y51430000D02*
X61380000Y51430000D01*
X61380000Y51750000D01*
X61920000Y51750000D01*
X61920000Y51430000D01*
G36*
X61920000Y51430000D02*
G01*
X61380000Y51430000D01*
X61380000Y51750000D01*
X61920000Y51750000D01*
X61920000Y51430000D01*
G37*
X61920000Y34250000D02*
X61380000Y34250000D01*
X61380000Y34570000D01*
X61920000Y34570000D01*
X61920000Y34250000D01*
G36*
X61920000Y34250000D02*
G01*
X61380000Y34250000D01*
X61380000Y34570000D01*
X61920000Y34570000D01*
X61920000Y34250000D01*
G37*
X61920000Y33830000D02*
X61380000Y33830000D01*
X61380000Y34150000D01*
X61920000Y34150000D01*
X61920000Y33830000D01*
G36*
X61920000Y33830000D02*
G01*
X61380000Y33830000D01*
X61380000Y34150000D01*
X61920000Y34150000D01*
X61920000Y33830000D01*
G37*
X62850000Y47950000D02*
X62420000Y47950000D01*
X62420000Y48250000D01*
X62850000Y48250000D01*
X62850000Y47950000D01*
G36*
X62850000Y47950000D02*
G01*
X62420000Y47950000D01*
X62420000Y48250000D01*
X62850000Y48250000D01*
X62850000Y47950000D01*
G37*
X62850000Y47550000D02*
X62420000Y47550000D01*
X62420000Y47850000D01*
X62850000Y47850000D01*
X62850000Y47550000D01*
G36*
X62850000Y47550000D02*
G01*
X62420000Y47550000D01*
X62420000Y47850000D01*
X62850000Y47850000D01*
X62850000Y47550000D01*
G37*
X62850000Y46550000D02*
X62420000Y46550000D01*
X62420000Y46850000D01*
X62850000Y46850000D01*
X62850000Y46550000D01*
G36*
X62850000Y46550000D02*
G01*
X62420000Y46550000D01*
X62420000Y46850000D01*
X62850000Y46850000D01*
X62850000Y46550000D01*
G37*
X62850000Y46150000D02*
X62420000Y46150000D01*
X62420000Y46450000D01*
X62850000Y46450000D01*
X62850000Y46150000D01*
G36*
X62850000Y46150000D02*
G01*
X62420000Y46150000D01*
X62420000Y46450000D01*
X62850000Y46450000D01*
X62850000Y46150000D01*
G37*
X62850000Y45150000D02*
X62420000Y45150000D01*
X62420000Y45450000D01*
X62850000Y45450000D01*
X62850000Y45150000D01*
G36*
X62850000Y45150000D02*
G01*
X62420000Y45150000D01*
X62420000Y45450000D01*
X62850000Y45450000D01*
X62850000Y45150000D01*
G37*
X62850000Y44750000D02*
X62420000Y44750000D01*
X62420000Y45050000D01*
X62850000Y45050000D01*
X62850000Y44750000D01*
G36*
X62850000Y44750000D02*
G01*
X62420000Y44750000D01*
X62420000Y45050000D01*
X62850000Y45050000D01*
X62850000Y44750000D01*
G37*
X62850000Y43750000D02*
X62420000Y43750000D01*
X62420000Y44050000D01*
X62850000Y44050000D01*
X62850000Y43750000D01*
G36*
X62850000Y43750000D02*
G01*
X62420000Y43750000D01*
X62420000Y44050000D01*
X62850000Y44050000D01*
X62850000Y43750000D01*
G37*
X62850000Y43350000D02*
X62420000Y43350000D01*
X62420000Y43650000D01*
X62850000Y43650000D01*
X62850000Y43350000D01*
G36*
X62850000Y43350000D02*
G01*
X62420000Y43350000D01*
X62420000Y43650000D01*
X62850000Y43650000D01*
X62850000Y43350000D01*
G37*
X62850000Y42350000D02*
X62420000Y42350000D01*
X62420000Y42650000D01*
X62850000Y42650000D01*
X62850000Y42350000D01*
G36*
X62850000Y42350000D02*
G01*
X62420000Y42350000D01*
X62420000Y42650000D01*
X62850000Y42650000D01*
X62850000Y42350000D01*
G37*
X62850000Y41950000D02*
X62420000Y41950000D01*
X62420000Y42250000D01*
X62850000Y42250000D01*
X62850000Y41950000D01*
G36*
X62850000Y41950000D02*
G01*
X62420000Y41950000D01*
X62420000Y42250000D01*
X62850000Y42250000D01*
X62850000Y41950000D01*
G37*
X62850000Y40950000D02*
X62420000Y40950000D01*
X62420000Y41250000D01*
X62850000Y41250000D01*
X62850000Y40950000D01*
G36*
X62850000Y40950000D02*
G01*
X62420000Y40950000D01*
X62420000Y41250000D01*
X62850000Y41250000D01*
X62850000Y40950000D01*
G37*
X62850000Y40550000D02*
X62420000Y40550000D01*
X62420000Y40850000D01*
X62850000Y40850000D01*
X62850000Y40550000D01*
G36*
X62850000Y40550000D02*
G01*
X62420000Y40550000D01*
X62420000Y40850000D01*
X62850000Y40850000D01*
X62850000Y40550000D01*
G37*
X62850000Y39550000D02*
X62420000Y39550000D01*
X62420000Y39850000D01*
X62850000Y39850000D01*
X62850000Y39550000D01*
G36*
X62850000Y39550000D02*
G01*
X62420000Y39550000D01*
X62420000Y39850000D01*
X62850000Y39850000D01*
X62850000Y39550000D01*
G37*
X62850000Y39150000D02*
X62420000Y39150000D01*
X62420000Y39450000D01*
X62850000Y39450000D01*
X62850000Y39150000D01*
G36*
X62850000Y39150000D02*
G01*
X62420000Y39150000D01*
X62420000Y39450000D01*
X62850000Y39450000D01*
X62850000Y39150000D01*
G37*
X62850000Y38150000D02*
X62420000Y38150000D01*
X62420000Y38450000D01*
X62850000Y38450000D01*
X62850000Y38150000D01*
G36*
X62850000Y38150000D02*
G01*
X62420000Y38150000D01*
X62420000Y38450000D01*
X62850000Y38450000D01*
X62850000Y38150000D01*
G37*
X62850000Y37750000D02*
X62420000Y37750000D01*
X62420000Y38050000D01*
X62850000Y38050000D01*
X62850000Y37750000D01*
G36*
X62850000Y37750000D02*
G01*
X62420000Y37750000D01*
X62420000Y38050000D01*
X62850000Y38050000D01*
X62850000Y37750000D01*
G37*
X63020000Y51850000D02*
X62480000Y51850000D01*
X62480000Y52170000D01*
X63020000Y52170000D01*
X63020000Y51850000D01*
G36*
X63020000Y51850000D02*
G01*
X62480000Y51850000D01*
X62480000Y52170000D01*
X63020000Y52170000D01*
X63020000Y51850000D01*
G37*
X63020000Y51430000D02*
X62480000Y51430000D01*
X62480000Y51750000D01*
X63020000Y51750000D01*
X63020000Y51430000D01*
G36*
X63020000Y51430000D02*
G01*
X62480000Y51430000D01*
X62480000Y51750000D01*
X63020000Y51750000D01*
X63020000Y51430000D01*
G37*
X63020000Y34250000D02*
X62480000Y34250000D01*
X62480000Y34570000D01*
X63020000Y34570000D01*
X63020000Y34250000D01*
G36*
X63020000Y34250000D02*
G01*
X62480000Y34250000D01*
X62480000Y34570000D01*
X63020000Y34570000D01*
X63020000Y34250000D01*
G37*
X63020000Y33830000D02*
X62480000Y33830000D01*
X62480000Y34150000D01*
X63020000Y34150000D01*
X63020000Y33830000D01*
G36*
X63020000Y33830000D02*
G01*
X62480000Y33830000D01*
X62480000Y34150000D01*
X63020000Y34150000D01*
X63020000Y33830000D01*
G37*
X63380000Y47950000D02*
X62950000Y47950000D01*
X62950000Y48250000D01*
X63380000Y48250000D01*
X63380000Y47950000D01*
G36*
X63380000Y47950000D02*
G01*
X62950000Y47950000D01*
X62950000Y48250000D01*
X63380000Y48250000D01*
X63380000Y47950000D01*
G37*
X63380000Y47550000D02*
X62950000Y47550000D01*
X62950000Y47850000D01*
X63380000Y47850000D01*
X63380000Y47550000D01*
G36*
X63380000Y47550000D02*
G01*
X62950000Y47550000D01*
X62950000Y47850000D01*
X63380000Y47850000D01*
X63380000Y47550000D01*
G37*
X63380000Y46550000D02*
X62950000Y46550000D01*
X62950000Y46850000D01*
X63380000Y46850000D01*
X63380000Y46550000D01*
G36*
X63380000Y46550000D02*
G01*
X62950000Y46550000D01*
X62950000Y46850000D01*
X63380000Y46850000D01*
X63380000Y46550000D01*
G37*
X63380000Y46150000D02*
X62950000Y46150000D01*
X62950000Y46450000D01*
X63380000Y46450000D01*
X63380000Y46150000D01*
G36*
X63380000Y46150000D02*
G01*
X62950000Y46150000D01*
X62950000Y46450000D01*
X63380000Y46450000D01*
X63380000Y46150000D01*
G37*
X63380000Y45150000D02*
X62950000Y45150000D01*
X62950000Y45450000D01*
X63380000Y45450000D01*
X63380000Y45150000D01*
G36*
X63380000Y45150000D02*
G01*
X62950000Y45150000D01*
X62950000Y45450000D01*
X63380000Y45450000D01*
X63380000Y45150000D01*
G37*
X63380000Y44750000D02*
X62950000Y44750000D01*
X62950000Y45050000D01*
X63380000Y45050000D01*
X63380000Y44750000D01*
G36*
X63380000Y44750000D02*
G01*
X62950000Y44750000D01*
X62950000Y45050000D01*
X63380000Y45050000D01*
X63380000Y44750000D01*
G37*
X63380000Y43750000D02*
X62950000Y43750000D01*
X62950000Y44050000D01*
X63380000Y44050000D01*
X63380000Y43750000D01*
G36*
X63380000Y43750000D02*
G01*
X62950000Y43750000D01*
X62950000Y44050000D01*
X63380000Y44050000D01*
X63380000Y43750000D01*
G37*
X63380000Y43350000D02*
X62950000Y43350000D01*
X62950000Y43650000D01*
X63380000Y43650000D01*
X63380000Y43350000D01*
G36*
X63380000Y43350000D02*
G01*
X62950000Y43350000D01*
X62950000Y43650000D01*
X63380000Y43650000D01*
X63380000Y43350000D01*
G37*
X63380000Y42350000D02*
X62950000Y42350000D01*
X62950000Y42650000D01*
X63380000Y42650000D01*
X63380000Y42350000D01*
G36*
X63380000Y42350000D02*
G01*
X62950000Y42350000D01*
X62950000Y42650000D01*
X63380000Y42650000D01*
X63380000Y42350000D01*
G37*
X63380000Y41950000D02*
X62950000Y41950000D01*
X62950000Y42250000D01*
X63380000Y42250000D01*
X63380000Y41950000D01*
G36*
X63380000Y41950000D02*
G01*
X62950000Y41950000D01*
X62950000Y42250000D01*
X63380000Y42250000D01*
X63380000Y41950000D01*
G37*
X63380000Y40950000D02*
X62950000Y40950000D01*
X62950000Y41250000D01*
X63380000Y41250000D01*
X63380000Y40950000D01*
G36*
X63380000Y40950000D02*
G01*
X62950000Y40950000D01*
X62950000Y41250000D01*
X63380000Y41250000D01*
X63380000Y40950000D01*
G37*
X63380000Y40550000D02*
X62950000Y40550000D01*
X62950000Y40850000D01*
X63380000Y40850000D01*
X63380000Y40550000D01*
G36*
X63380000Y40550000D02*
G01*
X62950000Y40550000D01*
X62950000Y40850000D01*
X63380000Y40850000D01*
X63380000Y40550000D01*
G37*
X63380000Y39550000D02*
X62950000Y39550000D01*
X62950000Y39850000D01*
X63380000Y39850000D01*
X63380000Y39550000D01*
G36*
X63380000Y39550000D02*
G01*
X62950000Y39550000D01*
X62950000Y39850000D01*
X63380000Y39850000D01*
X63380000Y39550000D01*
G37*
X63380000Y39150000D02*
X62950000Y39150000D01*
X62950000Y39450000D01*
X63380000Y39450000D01*
X63380000Y39150000D01*
G36*
X63380000Y39150000D02*
G01*
X62950000Y39150000D01*
X62950000Y39450000D01*
X63380000Y39450000D01*
X63380000Y39150000D01*
G37*
X63380000Y38150000D02*
X62950000Y38150000D01*
X62950000Y38450000D01*
X63380000Y38450000D01*
X63380000Y38150000D01*
G36*
X63380000Y38150000D02*
G01*
X62950000Y38150000D01*
X62950000Y38450000D01*
X63380000Y38450000D01*
X63380000Y38150000D01*
G37*
X63380000Y37750000D02*
X62950000Y37750000D01*
X62950000Y38050000D01*
X63380000Y38050000D01*
X63380000Y37750000D01*
G36*
X63380000Y37750000D02*
G01*
X62950000Y37750000D01*
X62950000Y38050000D01*
X63380000Y38050000D01*
X63380000Y37750000D01*
G37*
X64120000Y51850000D02*
X63580000Y51850000D01*
X63580000Y52170000D01*
X64120000Y52170000D01*
X64120000Y51850000D01*
G36*
X64120000Y51850000D02*
G01*
X63580000Y51850000D01*
X63580000Y52170000D01*
X64120000Y52170000D01*
X64120000Y51850000D01*
G37*
X64120000Y51430000D02*
X63580000Y51430000D01*
X63580000Y51750000D01*
X64120000Y51750000D01*
X64120000Y51430000D01*
G36*
X64120000Y51430000D02*
G01*
X63580000Y51430000D01*
X63580000Y51750000D01*
X64120000Y51750000D01*
X64120000Y51430000D01*
G37*
X64120000Y34250000D02*
X63580000Y34250000D01*
X63580000Y34570000D01*
X64120000Y34570000D01*
X64120000Y34250000D01*
G36*
X64120000Y34250000D02*
G01*
X63580000Y34250000D01*
X63580000Y34570000D01*
X64120000Y34570000D01*
X64120000Y34250000D01*
G37*
X64120000Y33830000D02*
X63580000Y33830000D01*
X63580000Y34150000D01*
X64120000Y34150000D01*
X64120000Y33830000D01*
G36*
X64120000Y33830000D02*
G01*
X63580000Y33830000D01*
X63580000Y34150000D01*
X64120000Y34150000D01*
X64120000Y33830000D01*
G37*
X64000000Y49350000D02*
X63700000Y49350000D01*
X63700000Y49780000D01*
X64000000Y49780000D01*
X64000000Y49350000D01*
G36*
X64000000Y49350000D02*
G01*
X63700000Y49350000D01*
X63700000Y49780000D01*
X64000000Y49780000D01*
X64000000Y49350000D01*
G37*
X64000000Y48820000D02*
X63700000Y48820000D01*
X63700000Y49250000D01*
X64000000Y49250000D01*
X64000000Y48820000D01*
G36*
X64000000Y48820000D02*
G01*
X63700000Y48820000D01*
X63700000Y49250000D01*
X64000000Y49250000D01*
X64000000Y48820000D01*
G37*
X64000000Y36750000D02*
X63700000Y36750000D01*
X63700000Y37180000D01*
X64000000Y37180000D01*
X64000000Y36750000D01*
G36*
X64000000Y36750000D02*
G01*
X63700000Y36750000D01*
X63700000Y37180000D01*
X64000000Y37180000D01*
X64000000Y36750000D01*
G37*
X64000000Y36220000D02*
X63700000Y36220000D01*
X63700000Y36650000D01*
X64000000Y36650000D01*
X64000000Y36220000D01*
G36*
X64000000Y36220000D02*
G01*
X63700000Y36220000D01*
X63700000Y36650000D01*
X64000000Y36650000D01*
X64000000Y36220000D01*
G37*
X64400000Y49350000D02*
X64100000Y49350000D01*
X64100000Y49780000D01*
X64400000Y49780000D01*
X64400000Y49350000D01*
G36*
X64400000Y49350000D02*
G01*
X64100000Y49350000D01*
X64100000Y49780000D01*
X64400000Y49780000D01*
X64400000Y49350000D01*
G37*
X64400000Y48820000D02*
X64100000Y48820000D01*
X64100000Y49250000D01*
X64400000Y49250000D01*
X64400000Y48820000D01*
G36*
X64400000Y48820000D02*
G01*
X64100000Y48820000D01*
X64100000Y49250000D01*
X64400000Y49250000D01*
X64400000Y48820000D01*
G37*
X64400000Y36750000D02*
X64100000Y36750000D01*
X64100000Y37180000D01*
X64400000Y37180000D01*
X64400000Y36750000D01*
G36*
X64400000Y36750000D02*
G01*
X64100000Y36750000D01*
X64100000Y37180000D01*
X64400000Y37180000D01*
X64400000Y36750000D01*
G37*
X64400000Y36220000D02*
X64100000Y36220000D01*
X64100000Y36650000D01*
X64400000Y36650000D01*
X64400000Y36220000D01*
G36*
X64400000Y36220000D02*
G01*
X64100000Y36220000D01*
X64100000Y36650000D01*
X64400000Y36650000D01*
X64400000Y36220000D01*
G37*
X65050000Y43300000D02*
X64350000Y43300000D01*
X64350000Y44250000D01*
X65050000Y44250000D01*
X65050000Y43300000D01*
G36*
X65050000Y43300000D02*
G01*
X64350000Y43300000D01*
X64350000Y44250000D01*
X65050000Y44250000D01*
X65050000Y43300000D01*
G37*
X65050000Y41750000D02*
X64350000Y41750000D01*
X64350000Y42700000D01*
X65050000Y42700000D01*
X65050000Y41750000D01*
G36*
X65050000Y41750000D02*
G01*
X64350000Y41750000D01*
X64350000Y42700000D01*
X65050000Y42700000D01*
X65050000Y41750000D01*
G37*
X65050000Y39900000D02*
X64350000Y39900000D01*
X64350000Y40850000D01*
X65050000Y40850000D01*
X65050000Y39900000D01*
G36*
X65050000Y39900000D02*
G01*
X64350000Y39900000D01*
X64350000Y40850000D01*
X65050000Y40850000D01*
X65050000Y39900000D01*
G37*
X65050000Y38350000D02*
X64350000Y38350000D01*
X64350000Y39300000D01*
X65050000Y39300000D01*
X65050000Y38350000D01*
G36*
X65050000Y38350000D02*
G01*
X64350000Y38350000D01*
X64350000Y39300000D01*
X65050000Y39300000D01*
X65050000Y38350000D01*
G37*
X65100000Y46700000D02*
X64400000Y46700000D01*
X64400000Y46950000D01*
X65100000Y47650000D01*
X65100000Y46700000D01*
G36*
X65100000Y46700000D02*
G01*
X64400000Y46700000D01*
X64400000Y46950000D01*
X65100000Y47650000D01*
X65100000Y46700000D01*
G37*
X65100000Y45150000D02*
X64400000Y45150000D01*
X64400000Y46100000D01*
X65100000Y46100000D01*
X65100000Y45150000D01*
G36*
X65100000Y45150000D02*
G01*
X64400000Y45150000D01*
X64400000Y46100000D01*
X65100000Y46100000D01*
X65100000Y45150000D01*
G37*
X65220000Y51850000D02*
X64680000Y51850000D01*
X64680000Y52170000D01*
X65220000Y52170000D01*
X65220000Y51850000D01*
G36*
X65220000Y51850000D02*
G01*
X64680000Y51850000D01*
X64680000Y52170000D01*
X65220000Y52170000D01*
X65220000Y51850000D01*
G37*
X65220000Y51430000D02*
X64680000Y51430000D01*
X64680000Y51750000D01*
X65220000Y51750000D01*
X65220000Y51430000D01*
G36*
X65220000Y51430000D02*
G01*
X64680000Y51430000D01*
X64680000Y51750000D01*
X65220000Y51750000D01*
X65220000Y51430000D01*
G37*
X65220000Y34250000D02*
X64680000Y34250000D01*
X64680000Y34570000D01*
X65220000Y34570000D01*
X65220000Y34250000D01*
G36*
X65220000Y34250000D02*
G01*
X64680000Y34250000D01*
X64680000Y34570000D01*
X65220000Y34570000D01*
X65220000Y34250000D01*
G37*
X65220000Y33830000D02*
X64680000Y33830000D01*
X64680000Y34150000D01*
X65220000Y34150000D01*
X65220000Y33830000D01*
G36*
X65220000Y33830000D02*
G01*
X64680000Y33830000D01*
X64680000Y34150000D01*
X65220000Y34150000D01*
X65220000Y33830000D01*
G37*
X65400000Y49350000D02*
X65100000Y49350000D01*
X65100000Y49780000D01*
X65400000Y49780000D01*
X65400000Y49350000D01*
G36*
X65400000Y49350000D02*
G01*
X65100000Y49350000D01*
X65100000Y49780000D01*
X65400000Y49780000D01*
X65400000Y49350000D01*
G37*
X65400000Y48820000D02*
X65100000Y48820000D01*
X65100000Y49250000D01*
X65400000Y49250000D01*
X65400000Y48820000D01*
G36*
X65400000Y48820000D02*
G01*
X65100000Y48820000D01*
X65100000Y49250000D01*
X65400000Y49250000D01*
X65400000Y48820000D01*
G37*
X65400000Y36750000D02*
X65100000Y36750000D01*
X65100000Y37180000D01*
X65400000Y37180000D01*
X65400000Y36750000D01*
G36*
X65400000Y36750000D02*
G01*
X65100000Y36750000D01*
X65100000Y37180000D01*
X65400000Y37180000D01*
X65400000Y36750000D01*
G37*
X65400000Y36220000D02*
X65100000Y36220000D01*
X65100000Y36650000D01*
X65400000Y36650000D01*
X65400000Y36220000D01*
G36*
X65400000Y36220000D02*
G01*
X65100000Y36220000D01*
X65100000Y36650000D01*
X65400000Y36650000D01*
X65400000Y36220000D01*
G37*
X65800000Y49350000D02*
X65500000Y49350000D01*
X65500000Y49780000D01*
X65800000Y49780000D01*
X65800000Y49350000D01*
G36*
X65800000Y49350000D02*
G01*
X65500000Y49350000D01*
X65500000Y49780000D01*
X65800000Y49780000D01*
X65800000Y49350000D01*
G37*
X65800000Y48820000D02*
X65500000Y48820000D01*
X65500000Y49250000D01*
X65800000Y49250000D01*
X65800000Y48820000D01*
G36*
X65800000Y48820000D02*
G01*
X65500000Y48820000D01*
X65500000Y49250000D01*
X65800000Y49250000D01*
X65800000Y48820000D01*
G37*
X65800000Y36750000D02*
X65500000Y36750000D01*
X65500000Y37180000D01*
X65800000Y37180000D01*
X65800000Y36750000D01*
G36*
X65800000Y36750000D02*
G01*
X65500000Y36750000D01*
X65500000Y37180000D01*
X65800000Y37180000D01*
X65800000Y36750000D01*
G37*
X65800000Y36220000D02*
X65500000Y36220000D01*
X65500000Y36650000D01*
X65800000Y36650000D01*
X65800000Y36220000D01*
G36*
X65800000Y36220000D02*
G01*
X65500000Y36220000D01*
X65500000Y36650000D01*
X65800000Y36650000D01*
X65800000Y36220000D01*
G37*
X66350000Y43300000D02*
X65650000Y43300000D01*
X65650000Y44250000D01*
X66350000Y44250000D01*
X66350000Y43300000D01*
G36*
X66350000Y43300000D02*
G01*
X65650000Y43300000D01*
X65650000Y44250000D01*
X66350000Y44250000D01*
X66350000Y43300000D01*
G37*
X66350000Y41750000D02*
X65650000Y41750000D01*
X65650000Y42700000D01*
X66350000Y42700000D01*
X66350000Y41750000D01*
G36*
X66350000Y41750000D02*
G01*
X65650000Y41750000D01*
X65650000Y42700000D01*
X66350000Y42700000D01*
X66350000Y41750000D01*
G37*
X66350000Y39900000D02*
X65650000Y39900000D01*
X65650000Y40850000D01*
X66350000Y40850000D01*
X66350000Y39900000D01*
G36*
X66350000Y39900000D02*
G01*
X65650000Y39900000D01*
X65650000Y40850000D01*
X66350000Y40850000D01*
X66350000Y39900000D01*
G37*
X66350000Y38350000D02*
X65650000Y38350000D01*
X65650000Y39300000D01*
X66350000Y39300000D01*
X66350000Y38350000D01*
G36*
X66350000Y38350000D02*
G01*
X65650000Y38350000D01*
X65650000Y39300000D01*
X66350000Y39300000D01*
X66350000Y38350000D01*
G37*
X66400000Y46700000D02*
X65700000Y46700000D01*
X65700000Y47650000D01*
X66400000Y47650000D01*
X66400000Y46700000D01*
G36*
X66400000Y46700000D02*
G01*
X65700000Y46700000D01*
X65700000Y47650000D01*
X66400000Y47650000D01*
X66400000Y46700000D01*
G37*
X66400000Y45150000D02*
X65700000Y45150000D01*
X65700000Y46100000D01*
X66400000Y46100000D01*
X66400000Y45150000D01*
G36*
X66400000Y45150000D02*
G01*
X65700000Y45150000D01*
X65700000Y46100000D01*
X66400000Y46100000D01*
X66400000Y45150000D01*
G37*
X66320000Y51850000D02*
X65780000Y51850000D01*
X65780000Y52170000D01*
X66320000Y52170000D01*
X66320000Y51850000D01*
G36*
X66320000Y51850000D02*
G01*
X65780000Y51850000D01*
X65780000Y52170000D01*
X66320000Y52170000D01*
X66320000Y51850000D01*
G37*
X66320000Y51430000D02*
X65780000Y51430000D01*
X65780000Y51750000D01*
X66320000Y51750000D01*
X66320000Y51430000D01*
G36*
X66320000Y51430000D02*
G01*
X65780000Y51430000D01*
X65780000Y51750000D01*
X66320000Y51750000D01*
X66320000Y51430000D01*
G37*
X66320000Y34250000D02*
X65780000Y34250000D01*
X65780000Y34570000D01*
X66320000Y34570000D01*
X66320000Y34250000D01*
G36*
X66320000Y34250000D02*
G01*
X65780000Y34250000D01*
X65780000Y34570000D01*
X66320000Y34570000D01*
X66320000Y34250000D01*
G37*
X66320000Y33830000D02*
X65780000Y33830000D01*
X65780000Y34150000D01*
X66320000Y34150000D01*
X66320000Y33830000D01*
G36*
X66320000Y33830000D02*
G01*
X65780000Y33830000D01*
X65780000Y34150000D01*
X66320000Y34150000D01*
X66320000Y33830000D01*
G37*
X66800000Y49350000D02*
X66500000Y49350000D01*
X66500000Y49780000D01*
X66800000Y49780000D01*
X66800000Y49350000D01*
G36*
X66800000Y49350000D02*
G01*
X66500000Y49350000D01*
X66500000Y49780000D01*
X66800000Y49780000D01*
X66800000Y49350000D01*
G37*
X66800000Y48820000D02*
X66500000Y48820000D01*
X66500000Y49250000D01*
X66800000Y49250000D01*
X66800000Y48820000D01*
G36*
X66800000Y48820000D02*
G01*
X66500000Y48820000D01*
X66500000Y49250000D01*
X66800000Y49250000D01*
X66800000Y48820000D01*
G37*
X66800000Y36750000D02*
X66500000Y36750000D01*
X66500000Y37180000D01*
X66800000Y37180000D01*
X66800000Y36750000D01*
G36*
X66800000Y36750000D02*
G01*
X66500000Y36750000D01*
X66500000Y37180000D01*
X66800000Y37180000D01*
X66800000Y36750000D01*
G37*
X66800000Y36220000D02*
X66500000Y36220000D01*
X66500000Y36650000D01*
X66800000Y36650000D01*
X66800000Y36220000D01*
G36*
X66800000Y36220000D02*
G01*
X66500000Y36220000D01*
X66500000Y36650000D01*
X66800000Y36650000D01*
X66800000Y36220000D01*
G37*
X67420000Y51850000D02*
X66880000Y51850000D01*
X66880000Y52170000D01*
X67420000Y52170000D01*
X67420000Y51850000D01*
G36*
X67420000Y51850000D02*
G01*
X66880000Y51850000D01*
X66880000Y52170000D01*
X67420000Y52170000D01*
X67420000Y51850000D01*
G37*
X67420000Y51430000D02*
X66880000Y51430000D01*
X66880000Y51750000D01*
X67420000Y51750000D01*
X67420000Y51430000D01*
G36*
X67420000Y51430000D02*
G01*
X66880000Y51430000D01*
X66880000Y51750000D01*
X67420000Y51750000D01*
X67420000Y51430000D01*
G37*
X67420000Y34250000D02*
X66880000Y34250000D01*
X66880000Y34570000D01*
X67420000Y34570000D01*
X67420000Y34250000D01*
G36*
X67420000Y34250000D02*
G01*
X66880000Y34250000D01*
X66880000Y34570000D01*
X67420000Y34570000D01*
X67420000Y34250000D01*
G37*
X67420000Y33830000D02*
X66880000Y33830000D01*
X66880000Y34150000D01*
X67420000Y34150000D01*
X67420000Y33830000D01*
G36*
X67420000Y33830000D02*
G01*
X66880000Y33830000D01*
X66880000Y34150000D01*
X67420000Y34150000D01*
X67420000Y33830000D01*
G37*
X67200000Y49350000D02*
X66900000Y49350000D01*
X66900000Y49780000D01*
X67200000Y49780000D01*
X67200000Y49350000D01*
G36*
X67200000Y49350000D02*
G01*
X66900000Y49350000D01*
X66900000Y49780000D01*
X67200000Y49780000D01*
X67200000Y49350000D01*
G37*
X67200000Y48820000D02*
X66900000Y48820000D01*
X66900000Y49250000D01*
X67200000Y49250000D01*
X67200000Y48820000D01*
G36*
X67200000Y48820000D02*
G01*
X66900000Y48820000D01*
X66900000Y49250000D01*
X67200000Y49250000D01*
X67200000Y48820000D01*
G37*
X67200000Y36750000D02*
X66900000Y36750000D01*
X66900000Y37180000D01*
X67200000Y37180000D01*
X67200000Y36750000D01*
G36*
X67200000Y36750000D02*
G01*
X66900000Y36750000D01*
X66900000Y37180000D01*
X67200000Y37180000D01*
X67200000Y36750000D01*
G37*
X67200000Y36220000D02*
X66900000Y36220000D01*
X66900000Y36650000D01*
X67200000Y36650000D01*
X67200000Y36220000D01*
G36*
X67200000Y36220000D02*
G01*
X66900000Y36220000D01*
X66900000Y36650000D01*
X67200000Y36650000D01*
X67200000Y36220000D01*
G37*
X67950000Y46700000D02*
X67250000Y46700000D01*
X67250000Y47650000D01*
X67950000Y47650000D01*
X67950000Y46700000D01*
G36*
X67950000Y46700000D02*
G01*
X67250000Y46700000D01*
X67250000Y47650000D01*
X67950000Y47650000D01*
X67950000Y46700000D01*
G37*
X67950000Y45150000D02*
X67250000Y45150000D01*
X67250000Y46100000D01*
X67950000Y46100000D01*
X67950000Y45150000D01*
G36*
X67950000Y45150000D02*
G01*
X67250000Y45150000D01*
X67250000Y46100000D01*
X67950000Y46100000D01*
X67950000Y45150000D01*
G37*
X67950000Y43300000D02*
X67250000Y43300000D01*
X67250000Y44250000D01*
X67950000Y44250000D01*
X67950000Y43300000D01*
G36*
X67950000Y43300000D02*
G01*
X67250000Y43300000D01*
X67250000Y44250000D01*
X67950000Y44250000D01*
X67950000Y43300000D01*
G37*
X67950000Y41750000D02*
X67250000Y41750000D01*
X67250000Y42700000D01*
X67950000Y42700000D01*
X67950000Y41750000D01*
G36*
X67950000Y41750000D02*
G01*
X67250000Y41750000D01*
X67250000Y42700000D01*
X67950000Y42700000D01*
X67950000Y41750000D01*
G37*
X67950000Y39900000D02*
X67250000Y39900000D01*
X67250000Y40850000D01*
X67950000Y40850000D01*
X67950000Y39900000D01*
G36*
X67950000Y39900000D02*
G01*
X67250000Y39900000D01*
X67250000Y40850000D01*
X67950000Y40850000D01*
X67950000Y39900000D01*
G37*
X67950000Y38350000D02*
X67250000Y38350000D01*
X67250000Y39300000D01*
X67950000Y39300000D01*
X67950000Y38350000D01*
G36*
X67950000Y38350000D02*
G01*
X67250000Y38350000D01*
X67250000Y39300000D01*
X67950000Y39300000D01*
X67950000Y38350000D01*
G37*
X68200000Y49350000D02*
X67900000Y49350000D01*
X67900000Y49780000D01*
X68200000Y49780000D01*
X68200000Y49350000D01*
G36*
X68200000Y49350000D02*
G01*
X67900000Y49350000D01*
X67900000Y49780000D01*
X68200000Y49780000D01*
X68200000Y49350000D01*
G37*
X68200000Y48820000D02*
X67900000Y48820000D01*
X67900000Y49250000D01*
X68200000Y49250000D01*
X68200000Y48820000D01*
G36*
X68200000Y48820000D02*
G01*
X67900000Y48820000D01*
X67900000Y49250000D01*
X68200000Y49250000D01*
X68200000Y48820000D01*
G37*
X68200000Y36750000D02*
X67900000Y36750000D01*
X67900000Y37180000D01*
X68200000Y37180000D01*
X68200000Y36750000D01*
G36*
X68200000Y36750000D02*
G01*
X67900000Y36750000D01*
X67900000Y37180000D01*
X68200000Y37180000D01*
X68200000Y36750000D01*
G37*
X68200000Y36220000D02*
X67900000Y36220000D01*
X67900000Y36650000D01*
X68200000Y36650000D01*
X68200000Y36220000D01*
G36*
X68200000Y36220000D02*
G01*
X67900000Y36220000D01*
X67900000Y36650000D01*
X68200000Y36650000D01*
X68200000Y36220000D01*
G37*
X68520000Y51850000D02*
X67980000Y51850000D01*
X67980000Y52170000D01*
X68520000Y52170000D01*
X68520000Y51850000D01*
G36*
X68520000Y51850000D02*
G01*
X67980000Y51850000D01*
X67980000Y52170000D01*
X68520000Y52170000D01*
X68520000Y51850000D01*
G37*
X68520000Y51430000D02*
X67980000Y51430000D01*
X67980000Y51750000D01*
X68520000Y51750000D01*
X68520000Y51430000D01*
G36*
X68520000Y51430000D02*
G01*
X67980000Y51430000D01*
X67980000Y51750000D01*
X68520000Y51750000D01*
X68520000Y51430000D01*
G37*
X68520000Y34250000D02*
X67980000Y34250000D01*
X67980000Y34570000D01*
X68520000Y34570000D01*
X68520000Y34250000D01*
G36*
X68520000Y34250000D02*
G01*
X67980000Y34250000D01*
X67980000Y34570000D01*
X68520000Y34570000D01*
X68520000Y34250000D01*
G37*
X68520000Y33830000D02*
X67980000Y33830000D01*
X67980000Y34150000D01*
X68520000Y34150000D01*
X68520000Y33830000D01*
G36*
X68520000Y33830000D02*
G01*
X67980000Y33830000D01*
X67980000Y34150000D01*
X68520000Y34150000D01*
X68520000Y33830000D01*
G37*
X68600000Y49350000D02*
X68300000Y49350000D01*
X68300000Y49780000D01*
X68600000Y49780000D01*
X68600000Y49350000D01*
G36*
X68600000Y49350000D02*
G01*
X68300000Y49350000D01*
X68300000Y49780000D01*
X68600000Y49780000D01*
X68600000Y49350000D01*
G37*
X68600000Y48820000D02*
X68300000Y48820000D01*
X68300000Y49250000D01*
X68600000Y49250000D01*
X68600000Y48820000D01*
G36*
X68600000Y48820000D02*
G01*
X68300000Y48820000D01*
X68300000Y49250000D01*
X68600000Y49250000D01*
X68600000Y48820000D01*
G37*
X68600000Y36750000D02*
X68300000Y36750000D01*
X68300000Y37180000D01*
X68600000Y37180000D01*
X68600000Y36750000D01*
G36*
X68600000Y36750000D02*
G01*
X68300000Y36750000D01*
X68300000Y37180000D01*
X68600000Y37180000D01*
X68600000Y36750000D01*
G37*
X68600000Y36220000D02*
X68300000Y36220000D01*
X68300000Y36650000D01*
X68600000Y36650000D01*
X68600000Y36220000D01*
G36*
X68600000Y36220000D02*
G01*
X68300000Y36220000D01*
X68300000Y36650000D01*
X68600000Y36650000D01*
X68600000Y36220000D01*
G37*
X69250000Y46700000D02*
X68550000Y46700000D01*
X68550000Y47650000D01*
X69250000Y47650000D01*
X69250000Y46700000D01*
G36*
X69250000Y46700000D02*
G01*
X68550000Y46700000D01*
X68550000Y47650000D01*
X69250000Y47650000D01*
X69250000Y46700000D01*
G37*
X69250000Y45150000D02*
X68550000Y45150000D01*
X68550000Y46100000D01*
X69250000Y46100000D01*
X69250000Y45150000D01*
G36*
X69250000Y45150000D02*
G01*
X68550000Y45150000D01*
X68550000Y46100000D01*
X69250000Y46100000D01*
X69250000Y45150000D01*
G37*
X69250000Y43300000D02*
X68550000Y43300000D01*
X68550000Y44250000D01*
X69250000Y44250000D01*
X69250000Y43300000D01*
G36*
X69250000Y43300000D02*
G01*
X68550000Y43300000D01*
X68550000Y44250000D01*
X69250000Y44250000D01*
X69250000Y43300000D01*
G37*
X69250000Y41750000D02*
X68550000Y41750000D01*
X68550000Y42700000D01*
X69250000Y42700000D01*
X69250000Y41750000D01*
G36*
X69250000Y41750000D02*
G01*
X68550000Y41750000D01*
X68550000Y42700000D01*
X69250000Y42700000D01*
X69250000Y41750000D01*
G37*
X69250000Y39900000D02*
X68550000Y39900000D01*
X68550000Y40850000D01*
X69250000Y40850000D01*
X69250000Y39900000D01*
G36*
X69250000Y39900000D02*
G01*
X68550000Y39900000D01*
X68550000Y40850000D01*
X69250000Y40850000D01*
X69250000Y39900000D01*
G37*
X69250000Y38350000D02*
X68550000Y38350000D01*
X68550000Y39300000D01*
X69250000Y39300000D01*
X69250000Y38350000D01*
G36*
X69250000Y38350000D02*
G01*
X68550000Y38350000D01*
X68550000Y39300000D01*
X69250000Y39300000D01*
X69250000Y38350000D01*
G37*
X69620000Y51850000D02*
X69080000Y51850000D01*
X69080000Y52170000D01*
X69620000Y52170000D01*
X69620000Y51850000D01*
G36*
X69620000Y51850000D02*
G01*
X69080000Y51850000D01*
X69080000Y52170000D01*
X69620000Y52170000D01*
X69620000Y51850000D01*
G37*
X69620000Y51430000D02*
X69080000Y51430000D01*
X69080000Y51750000D01*
X69620000Y51750000D01*
X69620000Y51430000D01*
G36*
X69620000Y51430000D02*
G01*
X69080000Y51430000D01*
X69080000Y51750000D01*
X69620000Y51750000D01*
X69620000Y51430000D01*
G37*
X69620000Y34250000D02*
X69080000Y34250000D01*
X69080000Y34570000D01*
X69620000Y34570000D01*
X69620000Y34250000D01*
G36*
X69620000Y34250000D02*
G01*
X69080000Y34250000D01*
X69080000Y34570000D01*
X69620000Y34570000D01*
X69620000Y34250000D01*
G37*
X69620000Y33830000D02*
X69080000Y33830000D01*
X69080000Y34150000D01*
X69620000Y34150000D01*
X69620000Y33830000D01*
G36*
X69620000Y33830000D02*
G01*
X69080000Y33830000D01*
X69080000Y34150000D01*
X69620000Y34150000D01*
X69620000Y33830000D01*
G37*
X69600000Y49350000D02*
X69300000Y49350000D01*
X69300000Y49780000D01*
X69600000Y49780000D01*
X69600000Y49350000D01*
G36*
X69600000Y49350000D02*
G01*
X69300000Y49350000D01*
X69300000Y49780000D01*
X69600000Y49780000D01*
X69600000Y49350000D01*
G37*
X69600000Y48820000D02*
X69300000Y48820000D01*
X69300000Y49250000D01*
X69600000Y49250000D01*
X69600000Y48820000D01*
G36*
X69600000Y48820000D02*
G01*
X69300000Y48820000D01*
X69300000Y49250000D01*
X69600000Y49250000D01*
X69600000Y48820000D01*
G37*
X69600000Y36750000D02*
X69300000Y36750000D01*
X69300000Y37180000D01*
X69600000Y37180000D01*
X69600000Y36750000D01*
G36*
X69600000Y36750000D02*
G01*
X69300000Y36750000D01*
X69300000Y37180000D01*
X69600000Y37180000D01*
X69600000Y36750000D01*
G37*
X69600000Y36220000D02*
X69300000Y36220000D01*
X69300000Y36650000D01*
X69600000Y36650000D01*
X69600000Y36220000D01*
G36*
X69600000Y36220000D02*
G01*
X69300000Y36220000D01*
X69300000Y36650000D01*
X69600000Y36650000D01*
X69600000Y36220000D01*
G37*
X70000000Y49350000D02*
X69700000Y49350000D01*
X69700000Y49780000D01*
X70000000Y49780000D01*
X70000000Y49350000D01*
G36*
X70000000Y49350000D02*
G01*
X69700000Y49350000D01*
X69700000Y49780000D01*
X70000000Y49780000D01*
X70000000Y49350000D01*
G37*
X70000000Y48820000D02*
X69700000Y48820000D01*
X69700000Y49250000D01*
X70000000Y49250000D01*
X70000000Y48820000D01*
G36*
X70000000Y48820000D02*
G01*
X69700000Y48820000D01*
X69700000Y49250000D01*
X70000000Y49250000D01*
X70000000Y48820000D01*
G37*
X70000000Y36750000D02*
X69700000Y36750000D01*
X69700000Y37180000D01*
X70000000Y37180000D01*
X70000000Y36750000D01*
G36*
X70000000Y36750000D02*
G01*
X69700000Y36750000D01*
X69700000Y37180000D01*
X70000000Y37180000D01*
X70000000Y36750000D01*
G37*
X70000000Y36220000D02*
X69700000Y36220000D01*
X69700000Y36650000D01*
X70000000Y36650000D01*
X70000000Y36220000D01*
G36*
X70000000Y36220000D02*
G01*
X69700000Y36220000D01*
X69700000Y36650000D01*
X70000000Y36650000D01*
X70000000Y36220000D01*
G37*
X70850000Y46700000D02*
X70150000Y46700000D01*
X70150000Y47650000D01*
X70850000Y47650000D01*
X70850000Y46700000D01*
G36*
X70850000Y46700000D02*
G01*
X70150000Y46700000D01*
X70150000Y47650000D01*
X70850000Y47650000D01*
X70850000Y46700000D01*
G37*
X70850000Y45150000D02*
X70150000Y45150000D01*
X70150000Y46100000D01*
X70850000Y46100000D01*
X70850000Y45150000D01*
G36*
X70850000Y45150000D02*
G01*
X70150000Y45150000D01*
X70150000Y46100000D01*
X70850000Y46100000D01*
X70850000Y45150000D01*
G37*
X70850000Y43300000D02*
X70150000Y43300000D01*
X70150000Y44250000D01*
X70850000Y44250000D01*
X70850000Y43300000D01*
G36*
X70850000Y43300000D02*
G01*
X70150000Y43300000D01*
X70150000Y44250000D01*
X70850000Y44250000D01*
X70850000Y43300000D01*
G37*
X70850000Y41750000D02*
X70150000Y41750000D01*
X70150000Y42700000D01*
X70850000Y42700000D01*
X70850000Y41750000D01*
G36*
X70850000Y41750000D02*
G01*
X70150000Y41750000D01*
X70150000Y42700000D01*
X70850000Y42700000D01*
X70850000Y41750000D01*
G37*
X70850000Y39900000D02*
X70150000Y39900000D01*
X70150000Y40850000D01*
X70850000Y40850000D01*
X70850000Y39900000D01*
G36*
X70850000Y39900000D02*
G01*
X70150000Y39900000D01*
X70150000Y40850000D01*
X70850000Y40850000D01*
X70850000Y39900000D01*
G37*
X70850000Y38350000D02*
X70150000Y38350000D01*
X70150000Y39300000D01*
X70850000Y39300000D01*
X70850000Y38350000D01*
G36*
X70850000Y38350000D02*
G01*
X70150000Y38350000D01*
X70150000Y39300000D01*
X70850000Y39300000D01*
X70850000Y38350000D01*
G37*
X70720000Y51850000D02*
X70180000Y51850000D01*
X70180000Y52170000D01*
X70720000Y52170000D01*
X70720000Y51850000D01*
G36*
X70720000Y51850000D02*
G01*
X70180000Y51850000D01*
X70180000Y52170000D01*
X70720000Y52170000D01*
X70720000Y51850000D01*
G37*
X70720000Y51430000D02*
X70180000Y51430000D01*
X70180000Y51750000D01*
X70720000Y51750000D01*
X70720000Y51430000D01*
G36*
X70720000Y51430000D02*
G01*
X70180000Y51430000D01*
X70180000Y51750000D01*
X70720000Y51750000D01*
X70720000Y51430000D01*
G37*
X70720000Y34250000D02*
X70180000Y34250000D01*
X70180000Y34570000D01*
X70720000Y34570000D01*
X70720000Y34250000D01*
G36*
X70720000Y34250000D02*
G01*
X70180000Y34250000D01*
X70180000Y34570000D01*
X70720000Y34570000D01*
X70720000Y34250000D01*
G37*
X70720000Y33830000D02*
X70180000Y33830000D01*
X70180000Y34150000D01*
X70720000Y34150000D01*
X70720000Y33830000D01*
G36*
X70720000Y33830000D02*
G01*
X70180000Y33830000D01*
X70180000Y34150000D01*
X70720000Y34150000D01*
X70720000Y33830000D01*
G37*
X71000000Y49350000D02*
X70700000Y49350000D01*
X70700000Y49780000D01*
X71000000Y49780000D01*
X71000000Y49350000D01*
G36*
X71000000Y49350000D02*
G01*
X70700000Y49350000D01*
X70700000Y49780000D01*
X71000000Y49780000D01*
X71000000Y49350000D01*
G37*
X71000000Y48820000D02*
X70700000Y48820000D01*
X70700000Y49250000D01*
X71000000Y49250000D01*
X71000000Y48820000D01*
G36*
X71000000Y48820000D02*
G01*
X70700000Y48820000D01*
X70700000Y49250000D01*
X71000000Y49250000D01*
X71000000Y48820000D01*
G37*
X71000000Y36750000D02*
X70700000Y36750000D01*
X70700000Y37180000D01*
X71000000Y37180000D01*
X71000000Y36750000D01*
G36*
X71000000Y36750000D02*
G01*
X70700000Y36750000D01*
X70700000Y37180000D01*
X71000000Y37180000D01*
X71000000Y36750000D01*
G37*
X71000000Y36220000D02*
X70700000Y36220000D01*
X70700000Y36650000D01*
X71000000Y36650000D01*
X71000000Y36220000D01*
G36*
X71000000Y36220000D02*
G01*
X70700000Y36220000D01*
X70700000Y36650000D01*
X71000000Y36650000D01*
X71000000Y36220000D01*
G37*
X71400000Y49350000D02*
X71100000Y49350000D01*
X71100000Y49780000D01*
X71400000Y49780000D01*
X71400000Y49350000D01*
G36*
X71400000Y49350000D02*
G01*
X71100000Y49350000D01*
X71100000Y49780000D01*
X71400000Y49780000D01*
X71400000Y49350000D01*
G37*
X71400000Y48820000D02*
X71100000Y48820000D01*
X71100000Y49250000D01*
X71400000Y49250000D01*
X71400000Y48820000D01*
G36*
X71400000Y48820000D02*
G01*
X71100000Y48820000D01*
X71100000Y49250000D01*
X71400000Y49250000D01*
X71400000Y48820000D01*
G37*
X71400000Y36750000D02*
X71100000Y36750000D01*
X71100000Y37180000D01*
X71400000Y37180000D01*
X71400000Y36750000D01*
G36*
X71400000Y36750000D02*
G01*
X71100000Y36750000D01*
X71100000Y37180000D01*
X71400000Y37180000D01*
X71400000Y36750000D01*
G37*
X71400000Y36220000D02*
X71100000Y36220000D01*
X71100000Y36650000D01*
X71400000Y36650000D01*
X71400000Y36220000D01*
G36*
X71400000Y36220000D02*
G01*
X71100000Y36220000D01*
X71100000Y36650000D01*
X71400000Y36650000D01*
X71400000Y36220000D01*
G37*
X71820000Y51850000D02*
X71280000Y51850000D01*
X71280000Y52170000D01*
X71820000Y52170000D01*
X71820000Y51850000D01*
G36*
X71820000Y51850000D02*
G01*
X71280000Y51850000D01*
X71280000Y52170000D01*
X71820000Y52170000D01*
X71820000Y51850000D01*
G37*
X71820000Y51430000D02*
X71280000Y51430000D01*
X71280000Y51750000D01*
X71820000Y51750000D01*
X71820000Y51430000D01*
G36*
X71820000Y51430000D02*
G01*
X71280000Y51430000D01*
X71280000Y51750000D01*
X71820000Y51750000D01*
X71820000Y51430000D01*
G37*
X71820000Y34250000D02*
X71280000Y34250000D01*
X71280000Y34570000D01*
X71820000Y34570000D01*
X71820000Y34250000D01*
G36*
X71820000Y34250000D02*
G01*
X71280000Y34250000D01*
X71280000Y34570000D01*
X71820000Y34570000D01*
X71820000Y34250000D01*
G37*
X71820000Y33830000D02*
X71280000Y33830000D01*
X71280000Y34150000D01*
X71820000Y34150000D01*
X71820000Y33830000D01*
G36*
X71820000Y33830000D02*
G01*
X71280000Y33830000D01*
X71280000Y34150000D01*
X71820000Y34150000D01*
X71820000Y33830000D01*
G37*
X72150000Y46700000D02*
X71450000Y46700000D01*
X71450000Y47650000D01*
X72150000Y47650000D01*
X72150000Y46700000D01*
G36*
X72150000Y46700000D02*
G01*
X71450000Y46700000D01*
X71450000Y47650000D01*
X72150000Y47650000D01*
X72150000Y46700000D01*
G37*
X72150000Y45150000D02*
X71450000Y45150000D01*
X71450000Y46100000D01*
X72150000Y46100000D01*
X72150000Y45150000D01*
G36*
X72150000Y45150000D02*
G01*
X71450000Y45150000D01*
X71450000Y46100000D01*
X72150000Y46100000D01*
X72150000Y45150000D01*
G37*
X72150000Y43300000D02*
X71450000Y43300000D01*
X71450000Y44250000D01*
X72150000Y44250000D01*
X72150000Y43300000D01*
G36*
X72150000Y43300000D02*
G01*
X71450000Y43300000D01*
X71450000Y44250000D01*
X72150000Y44250000D01*
X72150000Y43300000D01*
G37*
X72150000Y41750000D02*
X71450000Y41750000D01*
X71450000Y42700000D01*
X72150000Y42700000D01*
X72150000Y41750000D01*
G36*
X72150000Y41750000D02*
G01*
X71450000Y41750000D01*
X71450000Y42700000D01*
X72150000Y42700000D01*
X72150000Y41750000D01*
G37*
X72150000Y39900000D02*
X71450000Y39900000D01*
X71450000Y40850000D01*
X72150000Y40850000D01*
X72150000Y39900000D01*
G36*
X72150000Y39900000D02*
G01*
X71450000Y39900000D01*
X71450000Y40850000D01*
X72150000Y40850000D01*
X72150000Y39900000D01*
G37*
X72150000Y38350000D02*
X71450000Y38350000D01*
X71450000Y39300000D01*
X72150000Y39300000D01*
X72150000Y38350000D01*
G36*
X72150000Y38350000D02*
G01*
X71450000Y38350000D01*
X71450000Y39300000D01*
X72150000Y39300000D01*
X72150000Y38350000D01*
G37*
X72400000Y36750000D02*
X72100000Y36750000D01*
X72100000Y37180000D01*
X72400000Y37180000D01*
X72400000Y36750000D01*
G36*
X72400000Y36750000D02*
G01*
X72100000Y36750000D01*
X72100000Y37180000D01*
X72400000Y37180000D01*
X72400000Y36750000D01*
G37*
X72400000Y36220000D02*
X72100000Y36220000D01*
X72100000Y36650000D01*
X72400000Y36650000D01*
X72400000Y36220000D01*
G36*
X72400000Y36220000D02*
G01*
X72100000Y36220000D01*
X72100000Y36650000D01*
X72400000Y36650000D01*
X72400000Y36220000D01*
G37*
X72920000Y51850000D02*
X72380000Y51850000D01*
X72380000Y52170000D01*
X72920000Y52170000D01*
X72920000Y51850000D01*
G36*
X72920000Y51850000D02*
G01*
X72380000Y51850000D01*
X72380000Y52170000D01*
X72920000Y52170000D01*
X72920000Y51850000D01*
G37*
X72920000Y51430000D02*
X72380000Y51430000D01*
X72380000Y51750000D01*
X72920000Y51750000D01*
X72920000Y51430000D01*
G36*
X72920000Y51430000D02*
G01*
X72380000Y51430000D01*
X72380000Y51750000D01*
X72920000Y51750000D01*
X72920000Y51430000D01*
G37*
X72920000Y34250000D02*
X72380000Y34250000D01*
X72380000Y34570000D01*
X72920000Y34570000D01*
X72920000Y34250000D01*
G36*
X72920000Y34250000D02*
G01*
X72380000Y34250000D01*
X72380000Y34570000D01*
X72920000Y34570000D01*
X72920000Y34250000D01*
G37*
X72920000Y33830000D02*
X72380000Y33830000D01*
X72380000Y34150000D01*
X72920000Y34150000D01*
X72920000Y33830000D01*
G36*
X72920000Y33830000D02*
G01*
X72380000Y33830000D01*
X72380000Y34150000D01*
X72920000Y34150000D01*
X72920000Y33830000D01*
G37*
X72800000Y36750000D02*
X72500000Y36750000D01*
X72500000Y37180000D01*
X72800000Y37180000D01*
X72800000Y36750000D01*
G36*
X72800000Y36750000D02*
G01*
X72500000Y36750000D01*
X72500000Y37180000D01*
X72800000Y37180000D01*
X72800000Y36750000D01*
G37*
X72800000Y36220000D02*
X72500000Y36220000D01*
X72500000Y36650000D01*
X72800000Y36650000D01*
X72800000Y36220000D01*
G36*
X72800000Y36220000D02*
G01*
X72500000Y36220000D01*
X72500000Y36650000D01*
X72800000Y36650000D01*
X72800000Y36220000D01*
G37*
X73550000Y43750000D02*
X73120000Y43750000D01*
X73120000Y44050000D01*
X73550000Y44050000D01*
X73550000Y43750000D01*
G36*
X73550000Y43750000D02*
G01*
X73120000Y43750000D01*
X73120000Y44050000D01*
X73550000Y44050000D01*
X73550000Y43750000D01*
G37*
X73550000Y43350000D02*
X73120000Y43350000D01*
X73120000Y43650000D01*
X73550000Y43650000D01*
X73550000Y43350000D01*
G36*
X73550000Y43350000D02*
G01*
X73120000Y43350000D01*
X73120000Y43650000D01*
X73550000Y43650000D01*
X73550000Y43350000D01*
G37*
X73550000Y42350000D02*
X73120000Y42350000D01*
X73120000Y42650000D01*
X73550000Y42650000D01*
X73550000Y42350000D01*
G36*
X73550000Y42350000D02*
G01*
X73120000Y42350000D01*
X73120000Y42650000D01*
X73550000Y42650000D01*
X73550000Y42350000D01*
G37*
X73550000Y41950000D02*
X73120000Y41950000D01*
X73120000Y42250000D01*
X73550000Y42250000D01*
X73550000Y41950000D01*
G36*
X73550000Y41950000D02*
G01*
X73120000Y41950000D01*
X73120000Y42250000D01*
X73550000Y42250000D01*
X73550000Y41950000D01*
G37*
X73550000Y40950000D02*
X73120000Y40950000D01*
X73120000Y41250000D01*
X73550000Y41250000D01*
X73550000Y40950000D01*
G36*
X73550000Y40950000D02*
G01*
X73120000Y40950000D01*
X73120000Y41250000D01*
X73550000Y41250000D01*
X73550000Y40950000D01*
G37*
X73550000Y40550000D02*
X73120000Y40550000D01*
X73120000Y40850000D01*
X73550000Y40850000D01*
X73550000Y40550000D01*
G36*
X73550000Y40550000D02*
G01*
X73120000Y40550000D01*
X73120000Y40850000D01*
X73550000Y40850000D01*
X73550000Y40550000D01*
G37*
X73550000Y39550000D02*
X73120000Y39550000D01*
X73120000Y39850000D01*
X73550000Y39850000D01*
X73550000Y39550000D01*
G36*
X73550000Y39550000D02*
G01*
X73120000Y39550000D01*
X73120000Y39850000D01*
X73550000Y39850000D01*
X73550000Y39550000D01*
G37*
X73550000Y39150000D02*
X73120000Y39150000D01*
X73120000Y39450000D01*
X73550000Y39450000D01*
X73550000Y39150000D01*
G36*
X73550000Y39150000D02*
G01*
X73120000Y39150000D01*
X73120000Y39450000D01*
X73550000Y39450000D01*
X73550000Y39150000D01*
G37*
X73550000Y38150000D02*
X73120000Y38150000D01*
X73120000Y38450000D01*
X73550000Y38450000D01*
X73550000Y38150000D01*
G36*
X73550000Y38150000D02*
G01*
X73120000Y38150000D01*
X73120000Y38450000D01*
X73550000Y38450000D01*
X73550000Y38150000D01*
G37*
X73550000Y37750000D02*
X73120000Y37750000D01*
X73120000Y38050000D01*
X73550000Y38050000D01*
X73550000Y37750000D01*
G36*
X73550000Y37750000D02*
G01*
X73120000Y37750000D01*
X73120000Y38050000D01*
X73550000Y38050000D01*
X73550000Y37750000D01*
G37*
X74020000Y51850000D02*
X73480000Y51850000D01*
X73480000Y52170000D01*
X74020000Y52170000D01*
X74020000Y51850000D01*
G36*
X74020000Y51850000D02*
G01*
X73480000Y51850000D01*
X73480000Y52170000D01*
X74020000Y52170000D01*
X74020000Y51850000D01*
G37*
X74020000Y51430000D02*
X73480000Y51430000D01*
X73480000Y51750000D01*
X74020000Y51750000D01*
X74020000Y51430000D01*
G36*
X74020000Y51430000D02*
G01*
X73480000Y51430000D01*
X73480000Y51750000D01*
X74020000Y51750000D01*
X74020000Y51430000D01*
G37*
X74020000Y34250000D02*
X73480000Y34250000D01*
X73480000Y34570000D01*
X74020000Y34570000D01*
X74020000Y34250000D01*
G36*
X74020000Y34250000D02*
G01*
X73480000Y34250000D01*
X73480000Y34570000D01*
X74020000Y34570000D01*
X74020000Y34250000D01*
G37*
X74020000Y33830000D02*
X73480000Y33830000D01*
X73480000Y34150000D01*
X74020000Y34150000D01*
X74020000Y33830000D01*
G36*
X74020000Y33830000D02*
G01*
X73480000Y33830000D01*
X73480000Y34150000D01*
X74020000Y34150000D01*
X74020000Y33830000D01*
G37*
X74080000Y43750000D02*
X73650000Y43750000D01*
X73650000Y44050000D01*
X74080000Y44050000D01*
X74080000Y43750000D01*
G36*
X74080000Y43750000D02*
G01*
X73650000Y43750000D01*
X73650000Y44050000D01*
X74080000Y44050000D01*
X74080000Y43750000D01*
G37*
X74080000Y43350000D02*
X73650000Y43350000D01*
X73650000Y43650000D01*
X74080000Y43650000D01*
X74080000Y43350000D01*
G36*
X74080000Y43350000D02*
G01*
X73650000Y43350000D01*
X73650000Y43650000D01*
X74080000Y43650000D01*
X74080000Y43350000D01*
G37*
X74080000Y42350000D02*
X73650000Y42350000D01*
X73650000Y42650000D01*
X74080000Y42650000D01*
X74080000Y42350000D01*
G36*
X74080000Y42350000D02*
G01*
X73650000Y42350000D01*
X73650000Y42650000D01*
X74080000Y42650000D01*
X74080000Y42350000D01*
G37*
X74080000Y41950000D02*
X73650000Y41950000D01*
X73650000Y42250000D01*
X74080000Y42250000D01*
X74080000Y41950000D01*
G36*
X74080000Y41950000D02*
G01*
X73650000Y41950000D01*
X73650000Y42250000D01*
X74080000Y42250000D01*
X74080000Y41950000D01*
G37*
X74080000Y40950000D02*
X73650000Y40950000D01*
X73650000Y41250000D01*
X74080000Y41250000D01*
X74080000Y40950000D01*
G36*
X74080000Y40950000D02*
G01*
X73650000Y40950000D01*
X73650000Y41250000D01*
X74080000Y41250000D01*
X74080000Y40950000D01*
G37*
X74080000Y40550000D02*
X73650000Y40550000D01*
X73650000Y40850000D01*
X74080000Y40850000D01*
X74080000Y40550000D01*
G36*
X74080000Y40550000D02*
G01*
X73650000Y40550000D01*
X73650000Y40850000D01*
X74080000Y40850000D01*
X74080000Y40550000D01*
G37*
X74080000Y39550000D02*
X73650000Y39550000D01*
X73650000Y39850000D01*
X74080000Y39850000D01*
X74080000Y39550000D01*
G36*
X74080000Y39550000D02*
G01*
X73650000Y39550000D01*
X73650000Y39850000D01*
X74080000Y39850000D01*
X74080000Y39550000D01*
G37*
X74080000Y39150000D02*
X73650000Y39150000D01*
X73650000Y39450000D01*
X74080000Y39450000D01*
X74080000Y39150000D01*
G36*
X74080000Y39150000D02*
G01*
X73650000Y39150000D01*
X73650000Y39450000D01*
X74080000Y39450000D01*
X74080000Y39150000D01*
G37*
X74080000Y38150000D02*
X73650000Y38150000D01*
X73650000Y38450000D01*
X74080000Y38450000D01*
X74080000Y38150000D01*
G36*
X74080000Y38150000D02*
G01*
X73650000Y38150000D01*
X73650000Y38450000D01*
X74080000Y38450000D01*
X74080000Y38150000D01*
G37*
X74080000Y37750000D02*
X73650000Y37750000D01*
X73650000Y38050000D01*
X74080000Y38050000D01*
X74080000Y37750000D01*
G36*
X74080000Y37750000D02*
G01*
X73650000Y37750000D01*
X73650000Y38050000D01*
X74080000Y38050000D01*
X74080000Y37750000D01*
G37*
X75120000Y51850000D02*
X74580000Y51850000D01*
X74580000Y52170000D01*
X75120000Y52170000D01*
X75120000Y51850000D01*
G36*
X75120000Y51850000D02*
G01*
X74580000Y51850000D01*
X74580000Y52170000D01*
X75120000Y52170000D01*
X75120000Y51850000D01*
G37*
X75120000Y51430000D02*
X74580000Y51430000D01*
X74580000Y51750000D01*
X75120000Y51750000D01*
X75120000Y51430000D01*
G36*
X75120000Y51430000D02*
G01*
X74580000Y51430000D01*
X74580000Y51750000D01*
X75120000Y51750000D01*
X75120000Y51430000D01*
G37*
X75120000Y34250000D02*
X74580000Y34250000D01*
X74580000Y34570000D01*
X75120000Y34570000D01*
X75120000Y34250000D01*
G36*
X75120000Y34250000D02*
G01*
X74580000Y34250000D01*
X74580000Y34570000D01*
X75120000Y34570000D01*
X75120000Y34250000D01*
G37*
X75120000Y33830000D02*
X74580000Y33830000D01*
X74580000Y34150000D01*
X75120000Y34150000D01*
X75120000Y33830000D01*
G36*
X75120000Y33830000D02*
G01*
X74580000Y33830000D01*
X74580000Y34150000D01*
X75120000Y34150000D01*
X75120000Y33830000D01*
G37*
X76050000Y48780000D02*
X75730000Y48780000D01*
X75730000Y49320000D01*
X76050000Y49320000D01*
X76050000Y48780000D01*
G36*
X76050000Y48780000D02*
G01*
X75730000Y48780000D01*
X75730000Y49320000D01*
X76050000Y49320000D01*
X76050000Y48780000D01*
G37*
X76050000Y47680000D02*
X75730000Y47680000D01*
X75730000Y48220000D01*
X76050000Y48220000D01*
X76050000Y47680000D01*
G36*
X76050000Y47680000D02*
G01*
X75730000Y47680000D01*
X75730000Y48220000D01*
X76050000Y48220000D01*
X76050000Y47680000D01*
G37*
X76050000Y46580000D02*
X75730000Y46580000D01*
X75730000Y47120000D01*
X76050000Y47120000D01*
X76050000Y46580000D01*
G36*
X76050000Y46580000D02*
G01*
X75730000Y46580000D01*
X75730000Y47120000D01*
X76050000Y47120000D01*
X76050000Y46580000D01*
G37*
X76050000Y45480000D02*
X75730000Y45480000D01*
X75730000Y46020000D01*
X76050000Y46020000D01*
X76050000Y45480000D01*
G36*
X76050000Y45480000D02*
G01*
X75730000Y45480000D01*
X75730000Y46020000D01*
X76050000Y46020000D01*
X76050000Y45480000D01*
G37*
X76050000Y44380000D02*
X75730000Y44380000D01*
X75730000Y44920000D01*
X76050000Y44920000D01*
X76050000Y44380000D01*
G36*
X76050000Y44380000D02*
G01*
X75730000Y44380000D01*
X75730000Y44920000D01*
X76050000Y44920000D01*
X76050000Y44380000D01*
G37*
X76050000Y43280000D02*
X75730000Y43280000D01*
X75730000Y43820000D01*
X76050000Y43820000D01*
X76050000Y43280000D01*
G36*
X76050000Y43280000D02*
G01*
X75730000Y43280000D01*
X75730000Y43820000D01*
X76050000Y43820000D01*
X76050000Y43280000D01*
G37*
X76050000Y42180000D02*
X75730000Y42180000D01*
X75730000Y42720000D01*
X76050000Y42720000D01*
X76050000Y42180000D01*
G36*
X76050000Y42180000D02*
G01*
X75730000Y42180000D01*
X75730000Y42720000D01*
X76050000Y42720000D01*
X76050000Y42180000D01*
G37*
X76050000Y41080000D02*
X75730000Y41080000D01*
X75730000Y41620000D01*
X76050000Y41620000D01*
X76050000Y41080000D01*
G36*
X76050000Y41080000D02*
G01*
X75730000Y41080000D01*
X75730000Y41620000D01*
X76050000Y41620000D01*
X76050000Y41080000D01*
G37*
X76050000Y39980000D02*
X75730000Y39980000D01*
X75730000Y40520000D01*
X76050000Y40520000D01*
X76050000Y39980000D01*
G36*
X76050000Y39980000D02*
G01*
X75730000Y39980000D01*
X75730000Y40520000D01*
X76050000Y40520000D01*
X76050000Y39980000D01*
G37*
X76050000Y38880000D02*
X75730000Y38880000D01*
X75730000Y39420000D01*
X76050000Y39420000D01*
X76050000Y38880000D01*
G36*
X76050000Y38880000D02*
G01*
X75730000Y38880000D01*
X75730000Y39420000D01*
X76050000Y39420000D01*
X76050000Y38880000D01*
G37*
X76050000Y37780000D02*
X75730000Y37780000D01*
X75730000Y38320000D01*
X76050000Y38320000D01*
X76050000Y37780000D01*
G36*
X76050000Y37780000D02*
G01*
X75730000Y37780000D01*
X75730000Y38320000D01*
X76050000Y38320000D01*
X76050000Y37780000D01*
G37*
X76050000Y36680000D02*
X75730000Y36680000D01*
X75730000Y37220000D01*
X76050000Y37220000D01*
X76050000Y36680000D01*
G36*
X76050000Y36680000D02*
G01*
X75730000Y36680000D01*
X75730000Y37220000D01*
X76050000Y37220000D01*
X76050000Y36680000D01*
G37*
X76470000Y48780000D02*
X76150000Y48780000D01*
X76150000Y49320000D01*
X76470000Y49320000D01*
X76470000Y48780000D01*
G36*
X76470000Y48780000D02*
G01*
X76150000Y48780000D01*
X76150000Y49320000D01*
X76470000Y49320000D01*
X76470000Y48780000D01*
G37*
X76470000Y47680000D02*
X76150000Y47680000D01*
X76150000Y48220000D01*
X76470000Y48220000D01*
X76470000Y47680000D01*
G36*
X76470000Y47680000D02*
G01*
X76150000Y47680000D01*
X76150000Y48220000D01*
X76470000Y48220000D01*
X76470000Y47680000D01*
G37*
X76470000Y46580000D02*
X76150000Y46580000D01*
X76150000Y47120000D01*
X76470000Y47120000D01*
X76470000Y46580000D01*
G36*
X76470000Y46580000D02*
G01*
X76150000Y46580000D01*
X76150000Y47120000D01*
X76470000Y47120000D01*
X76470000Y46580000D01*
G37*
X76470000Y45480000D02*
X76150000Y45480000D01*
X76150000Y46020000D01*
X76470000Y46020000D01*
X76470000Y45480000D01*
G36*
X76470000Y45480000D02*
G01*
X76150000Y45480000D01*
X76150000Y46020000D01*
X76470000Y46020000D01*
X76470000Y45480000D01*
G37*
X76470000Y44380000D02*
X76150000Y44380000D01*
X76150000Y44920000D01*
X76470000Y44920000D01*
X76470000Y44380000D01*
G36*
X76470000Y44380000D02*
G01*
X76150000Y44380000D01*
X76150000Y44920000D01*
X76470000Y44920000D01*
X76470000Y44380000D01*
G37*
X76470000Y43280000D02*
X76150000Y43280000D01*
X76150000Y43820000D01*
X76470000Y43820000D01*
X76470000Y43280000D01*
G36*
X76470000Y43280000D02*
G01*
X76150000Y43280000D01*
X76150000Y43820000D01*
X76470000Y43820000D01*
X76470000Y43280000D01*
G37*
X76470000Y42180000D02*
X76150000Y42180000D01*
X76150000Y42720000D01*
X76470000Y42720000D01*
X76470000Y42180000D01*
G36*
X76470000Y42180000D02*
G01*
X76150000Y42180000D01*
X76150000Y42720000D01*
X76470000Y42720000D01*
X76470000Y42180000D01*
G37*
X76470000Y41080000D02*
X76150000Y41080000D01*
X76150000Y41620000D01*
X76470000Y41620000D01*
X76470000Y41080000D01*
G36*
X76470000Y41080000D02*
G01*
X76150000Y41080000D01*
X76150000Y41620000D01*
X76470000Y41620000D01*
X76470000Y41080000D01*
G37*
X76470000Y39980000D02*
X76150000Y39980000D01*
X76150000Y40520000D01*
X76470000Y40520000D01*
X76470000Y39980000D01*
G36*
X76470000Y39980000D02*
G01*
X76150000Y39980000D01*
X76150000Y40520000D01*
X76470000Y40520000D01*
X76470000Y39980000D01*
G37*
X76470000Y38880000D02*
X76150000Y38880000D01*
X76150000Y39420000D01*
X76470000Y39420000D01*
X76470000Y38880000D01*
G36*
X76470000Y38880000D02*
G01*
X76150000Y38880000D01*
X76150000Y39420000D01*
X76470000Y39420000D01*
X76470000Y38880000D01*
G37*
X76470000Y37780000D02*
X76150000Y37780000D01*
X76150000Y38320000D01*
X76470000Y38320000D01*
X76470000Y37780000D01*
G36*
X76470000Y37780000D02*
G01*
X76150000Y37780000D01*
X76150000Y38320000D01*
X76470000Y38320000D01*
X76470000Y37780000D01*
G37*
X76470000Y36680000D02*
X76150000Y36680000D01*
X76150000Y37220000D01*
X76470000Y37220000D01*
X76470000Y36680000D01*
G36*
X76470000Y36680000D02*
G01*
X76150000Y36680000D01*
X76150000Y37220000D01*
X76470000Y37220000D01*
X76470000Y36680000D01*
G37*
%TD*%
D11*
%TO.C,C10*%
X85987500Y15100000D03*
X89112500Y15100000D03*
%TD*%
D12*
%TO.C,C5*%
X72312500Y63000000D03*
X69187500Y63000000D03*
%TD*%
%TO.C,C4*%
X72312500Y67500000D03*
X69187500Y67500000D03*
%TD*%
D13*
%TO.C,Q2*%
X45950000Y49025000D03*
X44050000Y49025000D03*
X45000000Y47150000D03*
%TD*%
D11*
%TO.C,C6*%
X24287500Y55500000D03*
X27412500Y55500000D03*
%TD*%
D14*
%TO.C,J3*%
X74650000Y22040000D03*
X74650000Y19500000D03*
X74650000Y16960000D03*
D15*
X68750000Y14200000D03*
D14*
X62850000Y22040000D03*
X62850000Y19500000D03*
X62850000Y16960000D03*
D15*
X68750000Y24800000D03*
%TD*%
D16*
%TO.C,R1*%
X63550000Y88500000D03*
X60450000Y88500000D03*
%TD*%
D17*
%TO.C,D7*%
X86050000Y19400000D03*
X89550000Y19400000D03*
%TD*%
D18*
%TO.C,D9*%
X57850000Y21900000D03*
X54350000Y21900000D03*
%TD*%
D19*
%TO.C,Q4*%
X56395000Y57150000D03*
X56395000Y59050000D03*
X54520000Y58100000D03*
%TD*%
D11*
%TO.C,C9*%
X85987500Y24600000D03*
X89112500Y24600000D03*
%TD*%
D12*
%TO.C,C12*%
X57812500Y17000000D03*
X54687500Y17000000D03*
%TD*%
D20*
%TO.C,C8*%
X17850000Y65562500D03*
X17850000Y62437500D03*
%TD*%
D16*
%TO.C,R11*%
X34300000Y48000000D03*
X31200000Y48000000D03*
%TD*%
D21*
%TO.C,C1*%
X22100000Y79062500D03*
X22100000Y74137500D03*
%TD*%
D22*
%TO.C,R7*%
X50750000Y47150000D03*
X50750000Y50250000D03*
%TD*%
D23*
%TO.C,U3*%
X34000000Y18405000D03*
X34000000Y17135000D03*
X34000000Y15865000D03*
X34000000Y14595000D03*
X41000000Y14595000D03*
X41000000Y15865000D03*
X41000000Y17135000D03*
X41000000Y18405000D03*
%TD*%
D11*
%TO.C,C11*%
X85937500Y5600000D03*
X89062500Y5600000D03*
%TD*%
D19*
%TO.C,Q3*%
X56345000Y62337500D03*
X56345000Y64237500D03*
X54470000Y63287500D03*
%TD*%
D24*
%TO.C,U1*%
X54650000Y74100000D03*
X54650000Y75800000D03*
X54650000Y77500000D03*
D25*
X47925000Y74725000D03*
X47925000Y80275000D03*
X43075000Y74725000D03*
X43075000Y80275000D03*
D24*
X54650000Y79200000D03*
X54650000Y80900000D03*
%TD*%
D26*
%TO.C,U2*%
X23650000Y49250000D03*
X22850000Y49250000D03*
X22050000Y49250000D03*
X21250000Y49250000D03*
X20450000Y49250000D03*
X19650000Y49250000D03*
X18850000Y49250000D03*
X18050000Y49250000D03*
D27*
X16600000Y47800000D03*
X16600000Y47000000D03*
X16600000Y46200000D03*
X16600000Y45400000D03*
X16600000Y44600000D03*
X16600000Y43800000D03*
X16600000Y43000000D03*
X16600000Y42200000D03*
D26*
X18050000Y40750000D03*
X18850000Y40750000D03*
X19650000Y40750000D03*
X20450000Y40750000D03*
X21250000Y40750000D03*
X22050000Y40750000D03*
X22850000Y40750000D03*
X23650000Y40750000D03*
D27*
X25100000Y42200000D03*
X25100000Y43000000D03*
X25100000Y43800000D03*
X25100000Y44600000D03*
X25100000Y45400000D03*
X25100000Y46200000D03*
X25100000Y47000000D03*
X25100000Y47800000D03*
%TD*%
D18*
%TO.C,D2*%
X72555000Y58000000D03*
X69055000Y58000000D03*
%TD*%
D16*
%TO.C,R4*%
X18350000Y19500000D03*
X15250000Y19500000D03*
%TD*%
D22*
%TO.C,R6*%
X38750000Y39950000D03*
X38750000Y43050000D03*
%TD*%
D28*
%TO.C,D1*%
X30700000Y79050000D03*
X30700000Y75550000D03*
%TD*%
D29*
%TO.C,C3*%
X73212500Y73000000D03*
X68287500Y73000000D03*
%TD*%
D16*
%TO.C,R3*%
X39550000Y29000000D03*
X36450000Y29000000D03*
%TD*%
D29*
%TO.C,C2*%
X73212500Y79000000D03*
X68287500Y79000000D03*
%TD*%
D30*
%TO.C,C7*%
X11850000Y62437500D03*
X11850000Y65562500D03*
%TD*%
D31*
%TO.C,Q1*%
X44137500Y41062500D03*
X46037500Y41062500D03*
X45087500Y42937500D03*
%TD*%
D16*
%TO.C,R2*%
X54650000Y88500000D03*
X51550000Y88500000D03*
%TD*%
D32*
%TO.C,R8*%
X45057500Y63300000D03*
X48157500Y63300000D03*
%TD*%
D16*
%TO.C,R10*%
X34300000Y43000000D03*
X31200000Y43000000D03*
%TD*%
D17*
%TO.C,D6*%
X86050000Y29000000D03*
X89550000Y29000000D03*
%TD*%
D33*
%TO.C,D10*%
X33512500Y24000000D03*
X36487500Y24000000D03*
%TD*%
D32*
%TO.C,R5*%
X29050000Y88500000D03*
X32150000Y88500000D03*
%TD*%
D34*
%TO.C,D4*%
X39500000Y63300000D03*
X36525000Y63300000D03*
%TD*%
D32*
%TO.C,R9*%
X45057500Y58150000D03*
X48157500Y58150000D03*
%TD*%
D17*
%TO.C,D8*%
X85950000Y10000000D03*
X89450000Y10000000D03*
%TD*%
D34*
%TO.C,D5*%
X39500000Y58110000D03*
X36525000Y58110000D03*
%TD*%
D16*
%TO.C,R12*%
X43050000Y24000000D03*
X39950000Y24000000D03*
%TD*%
D34*
%TO.C,D3*%
X25087500Y88500000D03*
X22112500Y88500000D03*
%TD*%
M02*
